<svg viewBox="0 0 150 43" fill="none" xmlns="http://www.w3.org/2000/svg"><path d="M144.6 43H5.4c-3 0-5.4-2.4-5.4-5.4V5.4C0 2.4 2.4 0 5.4 0h139.2c3 0 5.4 2.4 5.4 5.4v32.2c0 3-2.4 5.4-5.4 5.4z" fill="#000"/><path fill-rule="evenodd" clip-rule="evenodd" d="M32.431 7.587H20.228c-5.75 0-7.853 2.103-7.853 7.853v12.204c0 5.749 2.103 7.852 7.852 7.852h12.2c5.75 0 7.857-2.103 7.857-7.852V15.44c0-5.75-2.103-7.853-7.853-7.853" fill="#C70F2E"/><path fill-rule="evenodd" clip-rule="evenodd" d="M25.67 23.773h-1.12l.559-1.306.561 1.306zm-1.726 1.418.331-.76 1.67-.001.328.76h.776l-1.601-3.646h-.653l-1.607 3.647h.756zm13.225-.003h-.73v-3.644h.73v3.644zm-2.292-1.566h-1.346l-.001.904h2.025v.664H32.8v-3.644h2.686v.665h-1.955v.747h1.346v.664zm-5.077-2.08.828 2.51.809-2.507h.767l-1.269 3.647h-.618l-.829-2.395-.83 2.395h-.613l-1.272-3.647h.788l.806 2.508.829-2.51h.604zm-8.558 3c.536 0 .83-.316.83-.91v-2.088h.741v2.058c0 1.045-.576 1.645-1.58 1.645-.994 0-1.564-.588-1.564-1.614v-2.087h.74v2.06c0 .61.296.937.833.937zm-2.6-2.998h-.74v1.47H16.23v-1.471h-.74v3.649h.74V23.71h1.672v1.483h.74v-3.65zm4.404-6.007a4.651 4.651 0 0 0 3.284 1.362l-.001-.001a4.65 4.65 0 0 0 4.646-4.646h-.656c0 2.2-1.789 3.99-3.989 3.99s-3.99-1.79-3.99-3.99h-.656a4.651 4.651 0 0 0 1.362 3.285zm30.105-1.984c-.15.356-.376.634-.678.837-.302.204-.671.305-1.106.305-.437 0-.805-.103-1.101-.311a1.85 1.85 0 0 1-.661-.846 3.224 3.224 0 0 1-.216-1.214c0-.428.077-.821.23-1.176.142-.344.38-.64.686-.851.305-.212.677-.317 1.114-.317.458 0 .832.104 1.123.313.291.209.502.488.635.84.132.35.198.75.198 1.2 0 .458-.074.864-.224 1.22zm-4.526.5c.233.464.598.848 1.049 1.104h-.001c.459.263 1.001.393 1.629.393.65 0 1.217-.134 1.698-.401a2.74 2.74 0 0 0 1.116-1.145c.261-.495.391-1.08.391-1.75 0-.62-.119-1.167-.359-1.64a2.577 2.577 0 0 0-1.041-1.1c-.454-.26-.998-.39-1.628-.39-.659 0-1.231.135-1.716.404a2.72 2.72 0 0 0-1.114 1.145c-.257.494-.387 1.07-.387 1.729 0 .628.121 1.178.363 1.652zm6.132-3.94h1.939l-.001 5.35h1.08v-5.35h1.844l.1-.902h-4.867l-.095.902zm9.556 5.35h1.217l-2.326-3.408 1.143-1.64c.099-.141.194-.243.284-.307a.555.555 0 0 1 .326-.095c.116.002.23.027.336.073l.225-.842c-.19-.08-.406-.12-.648-.12-.29 0-.531.062-.723.188-.192.125-.382.326-.572.606l-1.296 1.874h-.565V9.21h-1.08v6.254h1.08v-2.755h.738l1.861 2.755zm5.096-4.343c0 .38-.116.674-.346.883-.23.208-.566.313-1.006.313-.144 0-.351-.022-.622-.065v-2.22h.587c.455 0 .8.085 1.035.255.234.17.352.448.352.834zM68.04 9.21h-1.684l-.001 6.254h1.08v-2.41c.308.058.582.087.82.087.401.008.799-.078 1.162-.25.327-.154.6-.402.788-.711.189-.31.283-.671.283-1.086 0-.61-.211-1.077-.631-1.4-.419-.321-1.026-.483-1.817-.483zm8.001 4.343a1.83 1.83 0 0 1-.678.837h.001c-.303.204-.671.305-1.107.305-.436 0-.804-.103-1.1-.311a1.85 1.85 0 0 1-.661-.846 3.224 3.224 0 0 1-.216-1.214 2.94 2.94 0 0 1 .229-1.176c.142-.344.381-.64.687-.851.305-.212.676-.317 1.114-.317.458 0 .832.104 1.123.313.291.21.513.502.635.84.132.35.198.75.198 1.2 0 .458-.075.864-.225 1.22zm-4.525.5c.232.465.597.85 1.049 1.105.458.262 1 .392 1.628.392.651 0 1.217-.134 1.699-.401a2.75 2.75 0 0 0 1.115-1.144c.261-.496.391-1.08.391-1.75 0-.621-.12-1.168-.36-1.64a2.581 2.581 0 0 0-1.04-1.1c-.454-.26-.998-.39-1.628-.39-.659 0-1.231.134-1.716.403-.485.27-.857.65-1.114 1.145-.257.494-.387 1.07-.387 1.729 0 .628.121 1.178.363 1.652zM79.939 8.2c.13.199.309.36.521.467h-.001c.227.122.508.182.842.182.336 0 .62-.061.848-.182.229-.121.403-.277.523-.467.118-.186.195-.394.227-.612h-.782c-.086.46-.358.69-.816.69-.457 0-.728-.231-.812-.691h-.777c.032.218.11.427.227.613zm2.955 3.827v3.437l1.003-.001V9.21h-1.24l-3.092 4.845c.026-.46.039-.886.039-1.274V9.21h-1.002v6.254h1.201l3.139-4.923a26.32 26.32 0 0 0-.048 1.486zm1.918-1.914h1.938v5.35h1.08v-5.35h1.844l.099-.902h-4.866l-.095.902zm9.561-.902h-3.684v6.253h3.623l.091-.898h-2.635v-1.91h2.358v-.832h-2.358V10.1h2.5l.105-.89zm7.202 4.422c0 .328-.11.582-.33.762-.22.18-.554.27-1 .27h-.812v-2.1h.726c.457 0 .808.093 1.051.273.243.182.365.447.365.795zm-1.468-1.866h-.674V10.01h.717c.351 0 .619.063.805.19.186.126.279.318.279.574a.935.935 0 0 1-.138.499.995.995 0 0 1-.395.36c-.172.09-.37.134-.594.134zm2.351 1.147a1.5 1.5 0 0 0-.527-.54l.002-.001a2.023 2.023 0 0 0-.763-.27 1.69 1.69 0 0 0 .832-.525c.211-.248.317-.56.317-.93 0-.446-.166-.797-.496-1.053-.332-.257-.829-.385-1.49-.385H98.38v6.254h2.037c.47 0 .872-.074 1.207-.223.335-.148.591-.355.765-.622.174-.266.261-.573.261-.921 0-.3-.064-.561-.192-.784zM56.383 27.532h-3.789l1.347-3.648a47.92 47.92 0 0 0 .534-1.645c.165.56.35 1.115.551 1.663l1.357 3.63zm-4.428 1.724h5.075l1.268 3.396h2.344l-5.083-12.68H53.45l-4.97 12.68h2.233l1.242-3.396zm16.038-1.505c0 1.138-.22 2.003-.66 2.595-.44.59-1.08.887-1.92.887-.281 0-.564-.03-.849-.09a3.324 3.324 0 0 1-.753-.25v-5.057a4.347 4.347 0 0 1 1.015-.797 2.355 2.355 0 0 1 1.164-.297c.607 0 1.091.237 1.457.713.364.476.546 1.24.546 2.296zm-6.413-4.542c.046.84.07 1.61.07 2.31v11.077l2.161-.184V32.51c.61.213 1.252.323 1.899.324.886 0 1.668-.202 2.344-.604.677-.402 1.204-.994 1.58-1.776.376-.782.565-1.724.565-2.826 0-1.056-.165-1.926-.494-2.612-.33-.685-.764-1.187-1.3-1.505a3.38 3.38 0 0 0-1.75-.477c-1.086 0-2.047.458-2.887 1.375a10.29 10.29 0 0 0-.158-1.2h-2.03zm16.346 4.542c0 1.138-.221 2.003-.662 2.595h.001c-.441.59-1.08.887-1.92.887-.286 0-.57-.03-.85-.09a3.332 3.332 0 0 1-.752-.25v-5.057a4.362 4.362 0 0 1 1.015-.797 2.355 2.355 0 0 1 1.164-.297c.606 0 1.091.237 1.456.713s.548 1.24.548 2.296zm-6.414-4.541c.046.84.07 1.61.07 2.31v11.077l2.161-.184V32.51c.61.213 1.252.323 1.899.324.886 0 1.668-.202 2.344-.604.677-.402 1.204-.994 1.58-1.776.376-.782.564-1.724.564-2.826 0-1.056-.164-1.926-.494-2.612-.33-.685-.763-1.187-1.3-1.505a3.376 3.376 0 0 0-1.749-.477c-1.086 0-2.048.458-2.888 1.375a10.219 10.219 0 0 0-.157-1.2h-2.03zm10.543 6.624a5.245 5.245 0 0 0 2.152 2.218c.934.517 2.036.775 3.307.775a11.18 11.18 0 0 0 4.655-1.05V26.44h-5.03v1.68h2.93v2.562a6.512 6.512 0 0 1-1.18.306c-.42.07-.84.106-1.26.106-.928 0-1.697-.204-2.305-.613a3.547 3.547 0 0 1-1.34-1.662c-.282-.7-.424-1.502-.424-2.406 0-1.033.184-1.913.551-2.643.368-.728.882-1.281 1.545-1.658.662-.376 1.434-.564 2.314-.564 1.044 0 2.14.274 3.29.822l.551-1.663a9.069 9.069 0 0 0-1.851-.66 8.844 8.844 0 0 0-2.086-.24c-1.237 0-2.353.249-3.347.748-.995.499-1.781 1.245-2.358 2.24-.578.994-.866 2.203-.866 3.626 0 1.313.251 2.45.752 3.413zm17.709.262a3.45 3.45 0 0 1-1.102.805c-.449.217-.89.324-1.321.324-.425 0-.762-.112-1.011-.337-.247-.224-.372-.57-.372-1.037 0-.49.171-.878.513-1.168.34-.29.957-.432 1.85-.432.482.007.964.038 1.443.095v1.75zm.044 1.305c.018.42.067.837.148 1.25h2.031a32.85 32.85 0 0 1-.07-1.776v-3.753c0-1.021-.161-1.834-.481-2.437-.321-.604-.767-1.03-1.339-1.277-.572-.248-1.266-.373-2.082-.373a8.82 8.82 0 0 0-1.995.22c-.63.145-1.138.306-1.523.48l.341 1.575a7.748 7.748 0 0 1 1.383-.48 5.957 5.957 0 0 1 1.479-.202c.665 0 1.175.17 1.531.512.356.34.533.929.533 1.763v.184a11.773 11.773 0 0 0-1.714-.123c-1.541 0-2.639.272-3.299.819-.659.545-.988 1.275-.988 2.192 0 .617.131 1.14.393 1.57.252.418.621.753 1.063.962a3.42 3.42 0 0 0 1.483.319c.671 0 1.274-.14 1.806-.415.535-.277.968-.614 1.3-1.01zm4-12.172v11.156c0 1.627.749 2.44 2.248 2.44.28 0 .56-.026.836-.073.256-.04.506-.105.748-.197l-.253-1.548a2.496 2.496 0 0 1-.57.096c-.297 0-.515-.084-.651-.25-.138-.166-.206-.45-.206-.853V19.054l-2.152.175zm5.382 0v11.156h-.001c0 1.627.749 2.44 2.249 2.44a5.08 5.08 0 0 0 .835-.073c.256-.04.506-.105.748-.197l-.253-1.548a2.498 2.498 0 0 1-.569.096c-.298 0-.516-.084-.652-.25-.137-.166-.207-.45-.207-.853V19.054l-2.15.175zm10.113 5.91c.339.377.529.94.569 1.694h-4.007c.111-.747.349-1.31.713-1.688.365-.38.821-.57 1.37-.57.565 0 1.018.189 1.355.565zm-3.499 3.067h6.177v-.578c0-.84-.143-1.606-.433-2.3a3.755 3.755 0 0 0-1.33-1.667c-.598-.416-1.343-.626-2.236-.626-.857 0-1.614.198-2.27.595-.656.397-1.168.97-1.536 1.724-.367.752-.551 1.65-.551 2.695 0 1.004.174 1.862.52 2.572a3.65 3.65 0 0 0 1.554 1.636c.688.38 1.534.57 2.538.57 1.318 0 2.505-.257 3.56-.77l-.472-1.48a8.08 8.08 0 0 1-1.334.434 5.993 5.993 0 0 1-1.361.16c-1.786 0-2.726-.987-2.826-2.965zm7.849-4.996c.046 1.062.07 1.852.07 2.372v7.069h2.152v-6.063c.431-.595.836-1.022 1.216-1.282s.822-.39 1.33-.39a2.4 2.4 0 0 1 .7.097l.272-1.873a3.09 3.09 0 0 0-.859-.105 2.247 2.247 0 0 0-1.105.268 3.03 3.03 0 0 0-.85.69 7.968 7.968 0 0 0-.739 1.046 24.17 24.17 0 0 0-.066-.888 21.553 21.553 0 0 0-.1-.941h-2.021zm6.257 13.116a5.81 5.81 0 0 0 1.793.271c.729 0 1.352-.134 1.869-.402.516-.27.963-.68 1.343-1.234.378-.554.731-1.283 1.058-2.187l3.474-9.564h-2.178l-1.777 5.364a26.874 26.874 0 0 0-.577 2.047c-.082-.484-.266-1.181-.552-2.091l-1.75-5.32h-2.318l3.482 9.52-.14.35c-.479 1.23-1.196 1.846-2.152 1.846-.198 0-.408-.02-.63-.056a6.166 6.166 0 0 1-.551-.12l-.394 1.576z" fill="#fff"/></svg>