<svg xmlns="http://www.w3.org/2000/svg" viewBox="0 0 150 43"><path d="M144.6 43H5.4c-3 0-5.4-2.4-5.4-5.4V5.4C0 2.4 2.4 0 5.4 0h139.2c3 0 5.4 2.4 5.4 5.4v32.2c0 3-2.4 5.4-5.4 5.4z"/><path d="M75.2 23.4c-2.5 0-4.6 1.9-4.6 4.6 0 2.6 2.1 4.6 4.6 4.6 2.5 0 4.6-1.9 4.6-4.6 0-2.7-2-4.6-4.6-4.6zm0 7.3c-1.4 0-2.6-1.1-2.6-2.8 0-1.6 1.2-2.8 2.6-2.8s2.6 1.1 2.6 2.8c0 1.7-1.2 2.8-2.6 2.8zm-10-7.3c-2.5 0-4.6 1.9-4.6 4.6 0 2.6 2.1 4.6 4.6 4.6 2.5 0 4.6-1.9 4.6-4.6 0-2.7-2-4.6-4.6-4.6zm0 7.3c-1.4 0-2.6-1.1-2.6-2.8 0-1.6 1.2-2.8 2.6-2.8 1.4 0 2.6 1.1 2.6 2.8 0 1.7-1.2 2.8-2.6 2.8zm-11.9-5.9v1.9H58c-.1 1.1-.5 1.9-1.1 2.4-.7.7-1.7 1.4-3.6 1.4-2.9 0-5.1-2.3-5.1-5.2s2.2-5.2 5.1-5.2c1.5 0 2.7.6 3.5 1.4l1.4-1.4c-1.2-1.1-2.7-2-4.9-2-3.9 0-7.2 3.2-7.2 7.1 0 3.9 3.3 7.1 7.2 7.1 2.1 0 3.7-.7 5-2 1.3-1.3 1.7-3.1 1.7-4.5 0-.5 0-.9-.1-1.2h-6.6zm48.7 1.5c-.4-1-1.5-2.9-3.9-2.9s-4.3 1.9-4.3 4.6c0 2.6 1.9 4.6 4.5 4.6 2.1 0 3.3-1.3 3.8-2l-1.6-1c-.5.8-1.2 1.3-2.3 1.3-1 0-1.7-.5-2.2-1.4l6.1-2.5-.1-.7zm-6.2 1.5c-.1-1.8 1.4-2.7 2.4-2.7.8 0 1.5.4 1.7 1l-4.1 1.7zm-5 4.5h2V18.8h-2v13.5zm-3.3-7.9c-.5-.5-1.4-1-2.5-1-2.3 0-4.4 2-4.4 4.6 0 2.6 2.1 4.6 4.4 4.6 1.1 0 2-.5 2.4-1h.1v.7c0 1.7-.9 2.7-2.4 2.7-1.2 0-2-.9-2.3-1.6l-1.8.5c.5 1.2 1.8 2.7 4.1 2.7 2.4 0 4.3-1.4 4.3-4.8v-8.2h-1.9v.8zm-2.3 6.3c-1.4 0-2.5-1.2-2.5-2.8 0-1.6 1.2-2.8 2.5-2.8 1.4 0 2.4 1.2 2.4 2.8.1 1.7-1 2.8-2.4 2.8zm26.2-11.9h-4.8v13.4h2v-5.1h2.8c2.2 0 4.4-1.6 4.4-4.2s-2.1-4.1-4.4-4.1zm.1 6.5h-2.9v-4.6h2.9c1.5 0 2.4 1.2 2.4 2.3-.1 1-.9 2.3-2.4 2.3zm12.4-1.9c-1.5 0-3 .6-3.6 2.1l1.8.7c.4-.7 1.1-1 1.8-1 1 0 2.1.6 2.1 1.7v.1c-.4-.2-1.1-.5-2.1-.5-1.9 0-3.9 1.1-3.9 3 0 1.8 1.6 3 3.3 3 1.3 0 2.1-.6 2.6-1.3h.1v1h1.9V27c.1-2.3-1.7-3.6-4-3.6zm-.3 7.3c-.7 0-1.6-.3-1.6-1.1 0-1 1.1-1.4 2.1-1.4.9 0 1.3.2 1.8.4 0 1.2-1.1 2.1-2.3 2.1zm11.4-7-2.3 5.8h-.1l-2.4-5.8H128l3.6 8.1-2 4.5h2.1l5.5-12.7H135zm-18 8.6h2V18.8h-2v13.5z" fill="#fff"/><linearGradient id="a" gradientUnits="userSpaceOnUse" x1="25.435" y1="175.637" x2="7.394" y2="157.596" gradientTransform="matrix(1 0 0 -1 0 185)"><stop offset="0" stop-color="#00A0FF"/><stop offset=".007" stop-color="#00A1FF"/><stop offset=".26" stop-color="#00BEFF"/><stop offset=".512" stop-color="#00D2FF"/><stop offset=".76" stop-color="#00DFFF"/><stop offset="1" stop-color="#00E3FF"/></linearGradient><path d="M13.2 8.1c-.3.3-.5.8-.5 1.5v23.8c0 .7.2 1.2.5 1.5l.1.1 13.3-13.3v-.4L13.2 8.1z" fill="url(#a)"/><linearGradient id="b" gradientUnits="userSpaceOnUse" x1="38.372" y1="163.498" x2="12.36" y2="163.498" gradientTransform="matrix(1 0 0 -1 0 185)"><stop offset="0" stop-color="#FFE000"/><stop offset=".409" stop-color="#FFBD00"/><stop offset=".775" stop-color="orange"/><stop offset="1" stop-color="#FF9C00"/></linearGradient><path d="m31.1 26.1-4.4-4.4v-.4l4.4-4.4.1.1 5.3 3c1.5.9 1.5 2.3 0 3.1l-5.3 3h-.1z" fill="url(#b)"/><linearGradient id="c" gradientUnits="userSpaceOnUse" x1="28.689" y1="161.032" x2="4.224" y2="136.566" gradientTransform="matrix(1 0 0 -1 0 185)"><stop offset="0" stop-color="#FF3A44"/><stop offset="1" stop-color="#C31162"/></linearGradient><path d="m31.2 26-4.5-4.5-13.5 13.4c.5.5 1.3.6 2.2.1l15.8-9" fill="url(#c)"/><linearGradient id="d" gradientUnits="userSpaceOnUse" x1="9.845" y1="184.81" x2="20.769" y2="173.886" gradientTransform="matrix(1 0 0 -1 0 185)"><stop offset="0" stop-color="#32A071"/><stop offset=".069" stop-color="#2DA771"/><stop offset=".476" stop-color="#15CF74"/><stop offset=".801" stop-color="#06E775"/><stop offset="1" stop-color="#00F076"/></linearGradient><path d="M31.2 17 15.5 8c-.9-.5-1.7-.5-2.2.1l13.4 13.4 4.5-4.5z" fill="url(#d)"/><path d="m31.1 25.9-15.6 8.9c-.9.5-1.7.5-2.2 0l-.1.1.1.1c.5.5 1.3.5 2.2 0l15.7-9-.1-.1z" opacity=".2"/><path d="M13.2 34.7c-.3-.3-.5-.8-.5-1.5v.2c0 .7.2 1.2.5 1.5v-.2zm23.2-11.8-5.4 3 .1.1 5.3-3c.8-.4 1.1-1 1.1-1.6 0 .6-.4 1.1-1.1 1.5z" opacity=".12"/><path d="m15.5 8.2 21 11.9c.7.4 1.1.9 1.1 1.4 0-.6-.4-1.1-1.1-1.6L15.5 8c-1.5-.9-2.7-.1-2.7 1.6v.2c-.1-1.7 1.1-2.5 2.7-1.6z" opacity=".25" fill="#fff"/><path d="M47.3 15.3h-.8v-2.2h.6c.6-.5.8-1.3.8-2.5V7.5h4.3v5.7h.8v2.2h-.8V14h-4.9v1.3zm1.5-4.6c0 1-.2 1.8-.6 2.5h3.3V8.3h-2.6v2.4zm10.6 2.4c-.6.7-1.4 1-2.4 1-.9 0-1.7-.3-2.4-1-.6-.7-1-1.4-1-2.4 0-.9.3-1.7 1-2.4.6-.7 1.4-1 2.4-1 .9 0 1.7.3 2.4 1 .6.7 1 1.5 1 2.4 0 1-.3 1.8-1 2.4zm-4.1-.5c.5.5 1.1.7 1.8.7s1.3-.2 1.8-.7c.5-.5.7-1.1.7-1.9 0-.8-.2-1.4-.7-1.9-.5-.5-1.1-.7-1.8-.7s-1.3.2-1.8.7c-.5.5-.7 1.1-.7 1.9 0 .8.2 1.4.7 1.9zm9.2 1.5c-.9 0-1.7-.3-2.4-1-.6-.6-1-1.4-1-2.4s.3-1.8 1-2.4c.6-.6 1.4-1 2.4-1s1.8.4 2.4 1.1l-.6.6c-.4-.5-1-.8-1.8-.8-.7 0-1.3.2-1.8.7-.4.5-.7 1.1-.7 1.9 0 .8.2 1.4.7 1.9.5.5 1.1.7 1.8.7.8 0 1.4-.3 2-.9l.6.6c-.3.4-.7.6-1.1.8-.5.1-.9.2-1.5.2zm6-.1h-.8V8.3h-1.8v-.8h4.4v.8h-1.8V14zm7.4-6.5L75.5 13c-.3.8-.8 1.2-1.5 1.2-.2 0-.4 0-.6-.1l.2-.8c.1.1.3.1.4.1.2 0 .3 0 .4-.1s.2-.2.3-.4l.2-.5-2.2-4.8h1l1.6 3.7L77 7.5h.9zm1 6.5V7.5h4.7V14h-.8V8.3h-3V14h-.9zm6.1 0V7.5h.8v2.8H89V7.5h.8V14H89v-2.9h-3.2V14H85zm11.7-.9c-.6.7-1.4 1-2.4 1-.9 0-1.7-.3-2.4-1-.6-.7-1-1.4-1-2.4 0-.9.3-1.7 1-2.4.6-.7 1.4-1 2.4-1 .9 0 1.7.3 2.4 1 .6.7 1 1.5 1 2.4-.1 1-.4 1.8-1 2.4zm-4.2-.5c.5.5 1.1.7 1.8.7s1.3-.2 1.8-.7c.5-.5.7-1.1.7-1.9 0-.8-.2-1.4-.7-1.9-.5-.5-1.1-.7-1.8-.7s-1.3.3-1.8.8-.7 1.1-.7 1.9c0 .7.3 1.3.7 1.8zM101 14V7.5h2.3c.5 0 .9.2 1.3.5s.6.8.6 1.3c0 .3-.1.6-.2.8-.2.2-.4.4-.6.5.3.1.6.3.8.6.2.3.3.6.3.9 0 .5-.2 1-.6 1.3-.4.3-.8.5-1.4.5H101zm.8-3.7h1.5c.3 0 .6-.1.8-.3.2-.2.3-.4.3-.7s-.1-.5-.3-.7c-.2-.2-.4-.3-.7-.3h-1.5v2zm0 2.9h1.7c.3 0 .6-.1.8-.3.2-.2.3-.5.3-.7 0-.3-.1-.5-.3-.7-.2-.2-.5-.3-.8-.3h-1.6v2z" fill="#fff" stroke="#fff" stroke-width=".2" stroke-miterlimit="10"/></svg>