<svg viewBox="0 0 160 46" xmlns="http://www.w3.org/2000/svg"><path d="M154.824.01H5.174A5.171 5.171 0 0 0 0 5.178v35.664a5.172 5.172 0 0 0 5.175 5.168h149.65A5.172 5.172 0 0 0 160 40.842V5.178A5.171 5.171 0 0 0 154.824.01z"/><path d="M30.69 11.182c1.908-2.337 1.51-4.764 1.51-4.764s-2.67.012-4.59 2.594c-1.707 2.294-1.272 4.257-1.272 4.257s2.315.408 4.35-2.088zm3.663 11.03c0-4 3.162-5.647 3.162-5.647s-1.618-2.98-5.724-2.98c-2.387 0-4.22 1.385-5.208 1.385-1.15 0-2.867-1.303-5.08-1.303-3.406 0-7.036 3.11-7.036 9.038 0 6.023 4.288 13.517 7.684 13.517 1.184 0 3.004-1.218 4.836-1.218 1.8 0 3.126 1.174 4.835 1.174 3.718 0 6.47-7.9 6.47-7.9s-3.937-1.555-3.937-6.066zM52.852 7.79c.53-.33 1.254-.605 2.215-.605 1.514 0 2.463.776 2.463 1.93 0 .958-.655 1.632-1.547 1.85v.022c1.006.113 1.82.8 1.82 1.86 0 1.667-1.56 2.285-2.973 2.285-.747 0-1.537-.16-2.16-.526l.33-1.084c.372.205 1.107.467 1.773.467.995 0 1.56-.48 1.56-1.21 0-.982-.973-1.233-1.81-1.233h-.598v-1.05h.6c.88 0 1.56-.47 1.56-1.165 0-.628-.487-1.005-1.255-1.005-.587 0-1.21.24-1.638.47l-.34-1.007zm9.692 7.215-.09-.617h-.034c-.34.433-.916.742-1.628.742-1.108 0-1.73-.81-1.73-1.656 0-1.404 1.234-2.112 3.268-2.1v-.092c0-.365-.147-.97-1.12-.97-.542 0-1.107.17-1.48.41l-.27-.913c.406-.253 1.118-.492 1.988-.492 1.762 0 2.27 1.13 2.27 2.34v2.01c0 .5.024.993.08 1.335h-1.254v.002zm-.18-2.717c-.983-.023-1.92.194-1.92 1.04 0 .546.35.798.79.798.554 0 .96-.365 1.085-.765.033-.102.044-.216.044-.307v-.765zm6.9-2.843v1.107h-2.248v4.452h-1.39v-5.56h3.638zm1.296 1.849c0-.73-.022-1.324-.044-1.848h1.22l.068.856h.023c.407-.628 1.05-.982 1.887-.982 1.266 0 2.316 1.097 2.316 2.832 0 2.01-1.254 2.98-2.508 2.98-.69 0-1.265-.297-1.548-.743h-.023v2.876h-1.388v-5.972zm1.39 1.38c0 .14.012.265.046.39.135.57.633.98 1.22.98.882 0 1.402-.74 1.402-1.836 0-.982-.475-1.78-1.367-1.78-.575 0-1.107.42-1.242 1.038-.034.113-.057.24-.057.354v.855zm6.37-3.229.994 2.98c.113.342.226.764.305 1.083h.033c.09-.32.192-.73.294-1.096l.858-2.968h1.492l-1.38 3.79c-.756 2.078-1.265 3.003-1.92 3.574-.542.49-1.107.673-1.457.72l-.317-1.19c.238-.056.532-.182.814-.387.26-.17.566-.502.758-.878.056-.103.09-.183.09-.252a.577.577 0 0 0-.08-.273l-2.01-5.103h1.524zm5.805 2.249h.666c.76 0 1.2-.308 1.2-.707 0-.4-.373-.674-.994-.674-.464 0-.973.16-1.357.4l-.295-.834c.598-.377 1.345-.548 2.057-.548.927 0 2.057.365 2.057 1.472 0 .72-.634 1.12-1.21 1.257v.024c.734.08 1.458.525 1.458 1.346 0 1.29-1.436 1.69-2.566 1.69-.724 0-1.446-.182-1.99-.502l.318-.89c.384.205.972.376 1.525.376.768 0 1.186-.32 1.186-.754 0-.582-.598-.765-1.377-.765h-.678v-.89zm6.472-2.249v1.998c0 .878-.034 1.473-.08 2.248h.033c.294-.65.464-1.06.746-1.643l1.356-2.602h1.685v5.56h-1.323v-1.987c0-.89.034-1.3.09-2.35h-.045c-.27.66-.452 1.06-.724 1.597-.43.823-.926 1.826-1.4 2.74h-1.662v-5.56h1.323zm9.703 0v1.085h-1.65v4.475h-1.392V10.53h-1.65V9.445h4.69zm2.11 3.175c.033 1.003.813 1.438 1.693 1.438.645 0 1.108-.092 1.527-.252l.202.97c-.475.194-1.13.342-1.92.342-1.786 0-2.837-1.106-2.837-2.808 0-1.54.927-2.99 2.69-2.99 1.785 0 2.372 1.482 2.372 2.704 0 .263-.022.47-.044.594h-3.684zm2.417-.983c.01-.514-.215-1.36-1.142-1.36-.858 0-1.22.79-1.276 1.36h2.417zm5.656-2.124c.407-.068 1.242-.137 2-.137.927 0 2.6.126 2.6 1.404 0 .708-.543 1.108-1.13 1.234v.023c.813.125 1.377.58 1.377 1.358 0 1.53-1.987 1.678-3.095 1.678-.69 0-1.425-.045-1.752-.08v-5.48zm1.344 4.647c.226.024.395.034.677.034.633 0 1.402-.17 1.402-.822 0-.628-.61-.833-1.48-.833h-.6v1.62zm.012-2.466h.575c.712 0 1.3-.205 1.3-.73 0-.445-.385-.686-1.21-.686-.27 0-.45.023-.666.045v1.37zM61.43 34.725h-2.595l-1.422-4.557H52.47l-1.355 4.557h-2.528l4.897-15.515h3.026l4.92 15.515zm-4.446-6.47-1.286-4.05c-.135-.414-.39-1.388-.767-2.923h-.045c-.15.66-.39 1.635-.722 2.923l-1.264 4.05h4.084zm17.042.739c0 1.903-.504 3.406-1.512 4.51-.904.983-2.024 1.474-3.364 1.474-1.445 0-2.482-.53-3.114-1.588h-.046v5.893h-2.438V27.22c0-1.196-.03-2.423-.09-3.682h2.143l.136 1.773h.047c.813-1.335 2.046-2.002 3.702-2.002 1.293 0 2.373.52 3.237 1.564.867 1.046 1.3 2.42 1.3 4.122zm-2.483.09c0-1.088-.24-1.985-.722-2.692-.526-.737-1.234-1.105-2.12-1.105-.603 0-1.15.205-1.637.61-.49.408-.81.94-.96 1.6-.074.31-.112.56-.112.76v1.864c0 .815.246 1.502.735 2.062.49.56 1.125.84 1.907.84.918 0 1.632-.36 2.144-1.08.51-.723.767-1.675.767-2.857zm15.1-.09c0 1.903-.504 3.406-1.513 4.51-.902.983-2.024 1.474-3.362 1.474-1.445 0-2.483-.53-3.114-1.588h-.046v5.893H76.17V27.22c0-1.196-.03-2.423-.09-3.682h2.143l.136 1.773h.045c.812-1.335 2.045-2.002 3.702-2.002 1.293 0 2.373.52 3.24 1.564.863 1.046 1.296 2.42 1.296 4.122zm-2.482.09c0-1.088-.24-1.985-.723-2.692-.527-.737-1.232-1.105-2.12-1.105-.603 0-1.148.205-1.638.61-.49.408-.81.94-.96 1.6-.073.31-.112.56-.112.76v1.864c0 .815.244 1.502.73 2.062.49.56 1.126.84 1.91.84.92 0 1.633-.36 2.144-1.08.512-.723.77-1.675.77-2.857zm16.589 1.291c0 1.32-.45 2.393-1.35 3.222-.992.906-2.372 1.36-4.145 1.36-1.638 0-2.95-.323-3.943-.968l.565-2.072a6.58 6.58 0 0 0 3.523.99c.918 0 1.632-.212 2.146-.634.51-.422.766-.99.766-1.695 0-.63-.21-1.16-.632-1.59-.42-.43-1.12-.83-2.1-1.2-2.663-1.014-3.993-2.498-3.993-4.45 0-1.275.466-2.322 1.4-3.135.93-.815 2.172-1.222 3.724-1.222 1.386 0 2.536.246 3.453.737l-.61 2.026c-.856-.475-1.826-.714-2.91-.714-.858 0-1.527.216-2.008.645-.406.384-.61.85-.61 1.405 0 .613.232 1.12.698 1.52.407.367 1.144.766 2.214 1.196 1.308.537 2.27 1.166 2.888 1.886.618.72.925 1.618.925 2.69zm8.06-4.972h-2.687v5.432c0 1.382.473 2.072 1.42 2.072a4.3 4.3 0 0 0 1.084-.116l.068 1.888c-.48.183-1.112.275-1.896.275-.963 0-1.716-.3-2.258-.897-.54-.6-.813-1.604-.813-3.016V25.4h-1.602v-1.864h1.6v-2.05l2.395-.736v2.786h2.687v1.867zm12.12 3.637c0 1.72-.482 3.13-1.445 4.235-1.01 1.137-2.35 1.704-4.02 1.704-1.608 0-2.89-.546-3.846-1.635-.957-1.09-1.435-2.463-1.435-4.12 0-1.733.492-3.153 1.478-4.257.985-1.105 2.314-1.657 3.983-1.657 1.61 0 2.905.545 3.883 1.635.934 1.057 1.4 2.422 1.4 4.095zm-2.528.08c0-1.03-.216-1.916-.654-2.655-.51-.893-1.242-1.338-2.188-1.338-.98 0-1.724.447-2.235 1.338-.438.74-.654 1.638-.654 2.7 0 1.032.218 1.917.655 2.654.527.892 1.264 1.337 2.213 1.337.93 0 1.66-.454 2.188-1.362.45-.75.676-1.645.676-2.675zm10.451-3.396a4.177 4.177 0 0 0-.768-.07c-.857 0-1.52.33-1.987.992-.406.582-.61 1.32-.61 2.21v5.868h-2.436l.023-7.664c0-1.29-.03-2.464-.092-3.522h2.123l.09 2.14h.067c.258-.736.664-1.327 1.22-1.772.54-.4 1.128-.6 1.76-.6.226 0 .43.017.61.046v2.372zm10.9 2.879c0 .445-.03.82-.09 1.127h-7.312c.03 1.105.383 1.95 1.062 2.534.617.52 1.413.782 2.39.782 1.084 0 2.072-.177 2.96-.53l.38 1.726c-1.037.462-2.262.692-3.676.692-1.7 0-3.036-.51-4.008-1.53-.97-1.02-1.455-2.39-1.455-4.11 0-1.686.45-3.092 1.355-4.212.947-1.196 2.226-1.794 3.836-1.794 1.58 0 2.778.598 3.59 1.794.646.95.97 2.125.97 3.52zm-2.324-.645c.014-.737-.144-1.373-.474-1.91-.422-.693-1.07-1.037-1.943-1.037-.796 0-1.445.337-1.94 1.013-.406.538-.647 1.182-.722 1.933h5.078v.002z" fill="#FFF"/></svg>