<?xml version="1.0" encoding="UTF-8" standalone="no"?>
<svg
   xmlns:dc="http://purl.org/dc/elements/1.1/"
   xmlns:cc="http://creativecommons.org/ns#"
   xmlns:rdf="http://www.w3.org/1999/02/22-rdf-syntax-ns#"
   xmlns:svg="http://www.w3.org/2000/svg"
   xmlns="http://www.w3.org/2000/svg"
   xmlns:sodipodi="http://sodipodi.sourceforge.net/DTD/sodipodi-0.dtd"
   xmlns:inkscape="http://www.inkscape.org/namespaces/inkscape"
   width="250pt"
   height="458pt"
   viewBox="0 0 250 458"
   version="1.1"
   id="svg2"
   inkscape:version="0.48.5 r10040"
   sodipodi:docname="bauarbeiter.svg">
  <defs
     id="defs338" />
  <sodipodi:namedview
     pagecolor="#888888"
     bordercolor="#666666"
     borderopacity="1"
     objecttolerance="10"
     gridtolerance="10"
     guidetolerance="10"
     inkscape:pageopacity="1"
     inkscape:pageshadow="2"
     inkscape:window-width="927"
     inkscape:window-height="623"
     id="namedview336"
     showgrid="false"
     inkscape:zoom="1.1659542"
     inkscape:cx="151.16214"
     inkscape:cy="155.559"
     inkscape:window-x="137"
     inkscape:window-y="44"
     inkscape:window-maximized="0"
     inkscape:current-layer="svg2" />
  <path
     d=" M 124.49 6.70 C 128.96 2.69 136.13 3.06 140.61 6.86 C 143.26 6.92 145.92 6.99 148.58 6.99 C 152.21 3.93 157.63 3.80 161.61 6.26 C 168.12 10.75 178.11 7.75 183.25 14.64 C 185.90 18.64 189.88 21.64 191.94 26.04 C 194.96 32.08 196.33 38.75 198.87 44.98 C 202.49 54.27 205.65 63.81 210.33 72.64 C 216.69 76.36 223.38 79.91 228.37 85.47 C 231.06 88.38 232.84 92.57 231.38 96.49 C 229.94 103.01 223.74 107.05 217.63 108.61 C 222.08 114.59 221.31 122.53 220.42 129.49 C 219.72 135.26 216.58 140.48 211.97 143.97 C 213.77 149.30 214.69 155.26 212.18 160.55 C 215.12 161.76 215.95 165.21 215.77 168.09 C 215.47 172.44 214.50 176.71 213.46 180.94 C 220.00 186.08 222.23 194.37 224.78 201.90 C 225.88 209.03 226.91 216.19 227.35 223.40 C 231.16 224.84 233.91 228.08 235.23 231.88 C 237.95 239.32 240.68 247.12 239.95 255.17 C 239.47 258.51 237.83 261.53 236.47 264.58 C 234.42 268.79 234.27 273.70 231.81 277.73 C 228.32 283.82 222.07 287.56 215.78 290.23 C 214.03 297.79 214.52 305.85 211.11 312.98 C 208.15 319.42 203.02 324.71 197.12 328.53 C 193.08 340.12 195.05 352.54 197.10 364.31 C 199.81 364.00 203.31 365.05 204.09 367.98 C 206.23 375.09 207.50 383.01 204.85 390.17 C 210.66 390.80 217.05 392.15 220.78 397.10 C 226.00 403.88 227.34 413.44 225.02 421.58 C 230.78 425.20 229.11 432.77 230.88 438.42 C 229.93 440.77 228.46 443.00 225.97 443.89 C 217.44 447.40 208.05 447.79 198.99 448.85 C 190.37 448.95 181.44 450.94 173.09 447.88 C 161.61 443.81 152.03 434.93 146.49 424.15 C 145.00 424.74 143.14 425.65 141.81 424.21 C 136.71 419.74 130.87 414.43 130.80 407.09 C 127.40 412.61 123.91 418.74 117.98 421.88 C 117.07 421.26 116.17 420.64 115.27 420.02 C 108.45 438.44 90.67 452.63 71.09 454.82 C 58.10 455.45 44.81 455.46 32.23 451.74 C 27.63 450.42 23.40 447.96 19.98 444.62 C 20.19 437.68 19.53 428.38 26.65 424.51 C 24.34 415.94 26.30 406.42 30.77 398.85 C 36.14 389.94 47.30 387.31 57.00 387.03 C 53.66 385.77 49.90 383.92 49.06 380.09 C 47.85 372.77 51.32 365.88 54.35 359.46 C 55.25 357.32 57.37 356.26 59.13 354.93 C 55.63 349.84 50.24 345.44 49.59 338.91 C 49.46 332.16 52.16 325.79 54.85 319.73 C 48.01 326.35 41.50 333.68 32.89 338.04 C 27.92 339.08 23.09 334.23 23.89 329.26 C 32.93 322.51 41.98 315.68 50.01 307.72 C 43.66 309.99 37.15 313.18 30.21 312.05 C 26.41 308.89 26.25 303.38 27.10 298.89 C 28.42 294.32 32.18 291.07 35.99 288.50 C 31.57 286.13 27.50 282.36 26.77 277.16 C 25.22 272.13 28.48 267.43 30.25 262.92 C 25.65 263.11 20.56 264.25 16.42 261.60 C 12.23 258.89 10.71 253.83 8.51 249.62 C 5.69 244.28 7.21 237.50 10.96 233.02 C 8.51 228.01 8.90 222.32 9.07 216.91 C 10.02 208.42 12.05 199.87 16.38 192.43 C 18.70 188.44 22.68 185.91 26.60 183.71 C 38.07 177.47 50.52 172.67 63.47 170.79 C 58.28 167.03 52.19 163.54 49.76 157.24 C 46.51 148.85 49.29 139.21 55.01 132.58 C 49.30 125.90 48.93 116.35 49.82 108.03 C 44.74 104.85 39.13 100.40 38.79 93.91 C 38.51 91.94 39.27 90.07 40.10 88.33 C 45.23 81.29 52.87 76.83 59.76 71.77 C 68.04 59.76 70.34 44.91 73.96 31.05 C 75.60 25.12 79.45 19.95 84.64 16.65 C 87.74 11.72 93.50 9.62 99.03 8.91 C 103.56 8.63 107.44 4.91 112.12 6.20 C 116.06 7.48 120.55 7.97 124.49 6.70 Z"
     id="path6"
     fill="#000000" />
  <path
     fill="#fece00"
     d=" M 125.46 7.83 C 127.04 7.03 128.65 6.28 130.30 5.62 C 130.07 18.76 129.78 31.92 130.16 45.06 C 130.57 50.05 130.36 55.27 132.36 59.96 C 134.67 51.50 133.87 42.68 134.01 34.03 C 134.20 24.54 132.69 15.05 134.02 5.60 C 135.91 6.23 137.74 7.03 139.53 7.93 C 137.60 14.13 138.10 20.68 138.32 27.07 C 139.14 37.04 139.50 47.06 139.07 57.05 C 138.70 62.14 138.32 67.37 136.21 72.08 C 135.48 74.06 133.59 75.12 131.95 76.24 C 130.38 75.05 128.69 73.81 128.10 71.83 C 125.75 65.49 125.53 58.63 125.09 51.96 C 124.37 37.25 125.36 22.54 125.46 7.83 Z"
     id="path8" />
  <path
     fill="#fdf6a8"
     d=" M 130.30 5.62 C 131.54 5.62 132.78 5.62 134.02 5.60 C 132.69 15.05 134.20 24.54 134.01 34.03 C 133.87 42.68 134.67 51.50 132.36 59.96 C 130.36 55.27 130.57 50.05 130.16 45.06 C 129.78 31.92 130.07 18.76 130.30 5.62 Z"
     id="path10" />
  <path
     fill="#fece00"
     d=" M 149.65 8.06 C 154.32 4.76 160.27 6.59 164.26 10.06 C 163.10 13.94 162.06 17.93 162.32 22.02 C 163.11 34.34 166.15 46.53 165.41 58.92 C 165.10 62.24 164.55 66.60 161.00 68.03 C 158.37 68.63 156.99 65.79 156.09 63.82 C 152.45 53.96 152.46 43.29 150.85 33.01 C 149.49 24.78 148.66 16.38 149.65 8.06 Z"
     id="path12" />
  <path
     fill="#fdf6a5"
     d=" M 153.73 6.70 C 155.58 6.89 157.40 7.27 159.12 7.98 C 156.41 17.86 159.48 28.00 159.94 37.96 C 160.00 43.33 161.03 48.99 159.04 54.14 C 156.41 48.46 156.35 42.06 155.56 35.96 C 154.83 26.22 152.77 16.50 153.73 6.70 Z"
     id="path14" />
  <path
     fill="#fece00"
     d=" M 102.65 10.07 C 104.12 9.44 105.60 8.81 107.09 8.23 C 106.86 8.51 106.41 9.06 106.18 9.34 C 106.50 16.38 107.44 23.43 106.71 30.48 C 105.60 38.75 107.01 47.06 106.38 55.36 C 108.86 51.30 109.76 46.56 110.18 41.88 C 111.60 30.53 110.80 19.08 110.81 7.68 C 112.42 8.08 114.02 8.49 115.64 8.89 C 115.03 24.58 117.00 40.44 113.88 55.98 C 112.67 61.44 111.07 68.24 105.12 70.31 C 101.92 66.67 102.03 61.56 101.86 57.01 C 101.64 47.64 103.82 38.41 103.53 29.04 C 103.42 22.71 102.69 16.41 102.65 10.07 Z"
     id="path16" />
  <path
     fill="#fdf6a7"
     d=" M 107.09 8.23 C 108.32 8.00 109.56 7.82 110.81 7.68 C 110.80 19.08 111.60 30.53 110.18 41.88 C 109.76 46.56 108.86 51.30 106.38 55.36 C 107.01 47.06 105.60 38.75 106.71 30.48 C 107.44 23.43 106.50 16.38 106.18 9.34 C 106.41 9.06 106.86 8.51 107.09 8.23 Z"
     id="path18" />
  <path
     fill="#fece00"
     d=" M 116.49 9.24 C 119.20 9.19 121.91 9.09 124.61 8.81 C 124.44 26.18 123.18 43.60 124.90 60.93 C 125.53 65.58 126.00 70.54 128.60 74.60 C 129.83 76.66 132.75 77.28 134.60 75.64 C 137.66 73.04 138.36 68.78 139.10 65.04 C 141.01 51.78 139.90 38.35 139.09 25.05 C 138.80 19.54 138.77 13.93 140.16 8.55 C 143.02 8.57 145.87 8.60 148.73 8.61 C 147.91 16.43 148.60 24.33 149.83 32.07 C 151.60 42.67 151.52 53.68 155.19 63.90 C 156.10 66.37 157.96 69.55 161.10 68.85 C 164.48 67.90 165.63 64.08 166.06 60.99 C 166.96 53.72 166.03 46.37 165.11 39.14 C 164.11 29.48 161.50 19.46 165.13 10.01 C 169.32 10.58 173.52 11.26 177.57 12.52 C 180.56 13.33 182.10 16.26 184.16 18.30 C 178.75 18.55 177.27 24.50 176.51 28.84 C 174.78 41.06 175.78 53.77 179.65 65.50 C 181.35 69.99 183.77 75.46 189.03 76.46 C 195.73 77.65 202.80 76.61 208.98 73.79 C 216.93 79.01 227.35 83.10 230.50 92.94 C 228.35 91.71 226.20 90.46 224.26 88.91 L 224.47 88.21 L 223.03 88.30 C 219.89 86.63 216.76 84.86 213.30 83.92 C 212.89 83.80 212.06 83.57 211.65 83.45 C 205.05 82.14 198.39 84.46 192.00 85.99 C 172.44 91.34 153.22 98.39 133.00 100.93 C 121.60 102.10 110.20 100.00 99.06 97.78 C 87.93 95.43 76.92 92.49 66.08 89.05 C 57.37 85.88 47.35 87.96 39.88 93.22 C 43.41 83.98 52.69 78.96 60.49 73.75 C 65.45 75.56 70.88 75.08 76.04 74.69 C 82.89 73.86 87.19 67.48 89.41 61.51 C 93.16 51.18 93.81 39.83 92.07 29.02 C 91.36 24.47 89.80 20.01 86.94 16.36 C 90.50 11.94 96.42 11.15 101.62 10.08 C 102.14 19.33 103.17 28.61 102.39 37.87 C 101.44 46.89 100.25 56.05 101.68 65.08 C 102.17 67.36 102.97 70.61 105.81 70.81 C 110.31 69.67 112.26 64.89 113.55 60.89 C 118.27 44.06 115.86 26.44 116.49 9.24 Z"
     id="path20" />
  <path
     fill="#ffbc01"
     d=" M 75.35 32.57 C 76.82 26.11 81.17 20.73 86.72 17.25 C 93.40 28.12 92.92 41.79 90.73 53.91 C 89.01 61.45 85.95 70.43 78.03 73.37 C 72.51 74.67 66.70 74.33 61.16 73.38 C 68.99 61.05 72.05 46.58 75.35 32.57 Z"
     id="path22" />
  <path
     fill="#ffbc01"
     d=" M 179.30 22.55 C 180.22 20.57 182.68 18.25 184.90 19.88 C 191.49 25.18 193.02 33.95 195.73 41.48 C 199.72 52.13 203.48 62.92 208.51 73.14 C 202.56 75.67 195.88 76.75 189.47 75.69 C 184.97 75.00 182.69 70.57 181.08 66.80 C 177.62 57.97 176.58 48.37 176.52 38.95 C 176.70 33.42 176.92 27.65 179.30 22.55 Z"
     id="path24" />
  <path
     fill="#fee1a6"
     d=" M 77.48 33.53 C 79.07 29.30 80.62 24.81 84.03 21.66 C 84.98 27.31 82.79 32.79 80.98 38.04 C 79.41 41.76 78.14 45.95 74.77 48.48 C 74.12 43.33 75.85 38.33 77.48 33.53 Z"
     id="path26" />
  <path
     fill="#fee2a5"
     d=" M 184.39 24.83 C 184.69 24.31 185.27 23.29 185.56 22.77 C 190.49 30.70 194.52 39.97 194.01 49.47 C 190.82 46.84 189.41 42.85 187.91 39.14 C 186.22 34.53 184.62 29.77 184.39 24.83 Z"
     id="path28" />
  <path
     fill="#e39d05"
     d=" M 78.30 83.45 C 97.19 88.02 116.74 85.84 135.96 86.21 C 150.75 86.49 165.53 85.67 180.27 84.42 C 178.25 86.17 175.42 85.84 172.96 86.20 C 160.66 87.44 148.37 89.25 135.97 89.05 C 116.58 89.09 97.00 88.93 77.98 84.69 C 78.06 84.38 78.22 83.76 78.30 83.45 Z"
     id="path30" />
  <path
     fill="#a04c03"
     d=" M 211.65 83.45 C 212.06 83.57 212.89 83.80 213.30 83.92 C 212.96 83.96 212.29 84.03 211.96 84.07 C 215.69 85.36 219.12 87.62 223.03 88.30 L 224.47 88.21 L 224.26 88.91 L 223.87 89.69 C 222.27 94.78 217.33 97.01 212.65 98.50 L 212.11 98.70 C 206.89 95.60 205.29 89.53 204.43 83.92 C 206.83 83.75 209.23 83.48 211.65 83.45 Z"
     id="path32" />
  <path
     fill="#000000"
     d=" M 211.96 84.07 C 212.29 84.03 212.96 83.96 213.30 83.92 C 216.76 84.86 219.89 86.63 223.03 88.30 C 219.12 87.62 215.69 85.36 211.96 84.07 Z"
     id="path34" />
  <path
     fill="#ffe882"
     d=" M 194.39 86.23 C 197.32 85.48 200.28 84.84 203.25 84.22 C 204.08 87.72 204.70 91.33 206.32 94.58 C 208.19 98.13 212.32 99.42 214.83 102.37 C 216.93 107.61 214.20 113.19 212.07 117.97 C 209.23 123.69 204.14 130.16 196.94 129.01 C 196.71 127.37 196.52 125.72 196.39 124.07 C 200.35 122.43 204.91 122.01 208.44 119.49 C 209.17 117.01 208.94 114.39 209.04 111.84 C 206.36 115.00 203.61 118.11 200.56 120.92 C 197.47 113.40 208.42 109.13 206.27 101.73 C 203.28 95.89 197.57 91.99 194.39 86.23 Z"
     id="path36" />
  <path
     fill="#fece00"
     d=" M 188.20 87.86 C 190.26 87.31 192.33 86.77 194.39 86.23 C 197.57 91.99 203.28 95.89 206.27 101.73 C 208.42 109.13 197.47 113.40 200.56 120.92 C 203.61 118.11 206.36 115.00 209.04 111.84 C 208.94 114.39 209.17 117.01 208.44 119.49 C 204.91 122.01 200.35 122.43 196.39 124.07 C 196.65 121.40 197.11 118.69 196.80 116.00 C 194.34 112.01 190.71 108.80 188.83 104.43 C 192.08 102.07 192.79 97.73 192.63 93.98 C 192.46 91.21 190.14 89.50 188.20 87.86 Z"
     id="path38" />
  <path
     fill="#a04c03"
     d=" M 48.35 89.61 C 52.21 88.69 56.15 88.10 60.12 88.33 C 59.82 91.53 59.39 94.72 58.86 97.90 C 57.22 98.74 55.58 99.57 53.95 100.44 C 52.13 99.17 49.95 98.04 49.03 95.88 C 48.03 93.94 48.39 91.70 48.35 89.61 Z"
     id="path40" />
  <path
     fill="#ffe882"
     d=" M 61.03 88.44 C 63.58 89.17 66.12 89.96 68.64 90.79 C 70.40 93.66 72.21 96.51 73.98 99.39 C 72.27 98.62 70.57 97.85 68.87 97.08 C 68.30 99.70 67.60 102.37 67.98 105.06 C 68.36 108.79 70.48 111.98 72.21 115.20 C 69.62 113.43 67.09 111.57 64.57 109.71 C 64.77 112.46 64.57 115.43 66.11 117.86 C 67.65 120.53 70.33 122.21 72.73 124.03 C 71.26 124.58 69.74 124.99 68.20 125.24 C 66.31 123.63 64.62 121.73 63.64 119.43 C 60.95 113.35 59.62 106.69 59.52 100.06 C 60.18 96.21 61.13 92.38 61.03 88.44 Z"
     id="path42" />
  <path
     fill="#cb946c"
     d=" M 182.45 89.51 C 186.93 87.13 193.07 91.74 191.36 96.67 C 190.38 97.87 189.35 99.02 188.34 100.19 C 188.12 98.28 188.45 96.22 187.64 94.43 C 186.18 92.52 184.23 91.09 182.45 89.51 Z"
     id="path44" />
  <path
     fill="#ff7f00"
     d=" M 40.30 93.95 C 42.89 92.34 45.57 90.87 48.35 89.61 C 48.39 91.70 48.03 93.94 49.03 95.88 C 49.95 98.04 52.13 99.17 53.95 100.44 C 52.66 102.42 51.56 104.51 50.56 106.65 C 46.04 103.52 41.19 99.77 40.30 93.95 Z"
     id="path46" />
  <path
     fill="#ffffff"
     d=" M 78.99 90.35 C 95.91 91.89 112.42 99.41 129.60 96.55 C 141.91 95.29 154.11 93.23 166.31 91.26 C 160.72 93.91 154.36 94.18 148.37 95.43 C 138.55 96.30 128.88 99.22 118.95 98.49 C 105.31 97.64 92.28 93.19 78.99 90.35 Z"
     id="path48" />
  <path
     fill="#ddac83"
     d=" M 162.68 95.30 C 169.34 93.65 175.87 91.48 182.45 89.51 C 184.23 91.09 186.18 92.52 187.64 94.43 C 188.45 96.22 188.12 98.28 188.34 100.19 C 189.35 99.02 190.38 97.87 191.36 96.67 C 191.25 99.36 190.30 102.02 187.72 103.24 C 188.33 108.80 193.22 112.31 195.97 116.82 C 195.68 121.12 194.57 125.68 196.26 129.82 C 198.64 133.96 203.16 136.44 205.16 140.82 C 207.76 147.44 208.35 154.94 205.92 161.72 L 205.90 161.80 C 198.76 162.30 192.24 166.58 188.59 172.67 L 188.18 172.85 C 179.67 175.76 175.15 184.37 167.20 188.18 C 155.06 194.02 142.63 200.04 129.11 201.73 C 121.02 202.65 112.37 202.09 105.25 197.79 C 100.99 195.51 98.12 191.29 93.60 189.43 L 93.35 189.31 C 89.41 185.39 84.94 181.99 81.35 177.73 L 81.27 177.65 C 81.24 177.68 81.18 177.74 81.15 177.77 L 80.70 178.25 L 80.11 177.28 C 78.30 173.64 74.41 171.96 71.21 169.78 C 65.87 166.33 59.99 162.84 57.08 156.92 C 54.92 152.25 54.16 146.70 55.68 141.73 C 57.60 136.65 63.69 136.17 67.85 133.80 C 71.66 132.01 73.55 128.05 75.00 124.33 C 75.68 123.60 76.36 122.86 77.04 122.13 C 77.43 118.05 75.87 113.88 77.06 109.89 C 80.16 108.50 84.12 109.80 86.98 107.34 C 86.97 109.23 86.99 111.14 87.63 112.95 L 87.63 113.07 C 87.57 115.84 88.23 118.54 89.11 121.14 C 88.26 122.03 87.45 122.96 86.67 123.91 C 87.35 123.45 88.71 122.54 89.39 122.08 C 89.22 124.53 88.81 126.95 88.33 129.36 C 87.23 130.30 86.23 131.33 85.24 132.38 C 86.12 131.91 86.99 131.43 87.85 130.93 C 93.60 132.36 99.80 130.06 105.31 132.75 C 107.84 133.96 110.79 135.92 111.00 139.00 C 110.61 141.71 109.57 144.26 109.06 146.95 C 112.79 147.85 114.88 143.81 117.19 141.64 C 117.50 141.56 118.13 141.41 118.44 141.33 C 122.60 140.35 126.69 138.74 131.04 138.93 C 136.02 138.74 140.77 140.35 145.54 141.55 C 140.44 138.16 134.00 137.99 128.09 138.17 C 126.26 133.86 125.14 129.30 124.42 124.68 C 123.80 121.47 123.04 117.75 119.86 116.08 C 120.68 113.95 122.66 111.46 120.78 109.30 C 117.49 105.87 112.41 105.04 107.86 105.34 C 102.18 105.68 96.52 103.95 90.86 104.77 C 89.19 104.79 88.31 106.23 87.29 107.30 C 83.98 103.82 82.48 99.23 81.87 94.56 C 95.71 98.03 109.70 101.41 124.01 102.05 C 131.30 102.48 138.47 100.91 145.62 99.72 C 146.48 101.73 147.64 103.58 148.79 105.43 C 148.27 106.68 147.67 107.89 147.10 109.11 C 147.63 110.54 148.15 111.96 148.67 113.40 C 146.20 116.24 145.51 120.03 145.71 123.70 C 144.76 132.04 150.07 139.13 151.44 147.05 C 152.26 150.98 149.33 154.55 145.78 155.81 C 140.23 157.83 134.20 157.89 128.37 157.66 C 127.68 158.09 126.99 158.52 126.30 158.96 C 134.65 158.29 144.53 159.65 151.10 153.28 C 154.63 154.13 157.88 152.60 160.65 150.54 C 162.81 149.22 165.39 147.79 165.95 145.07 C 165.93 143.36 165.35 141.74 164.92 140.10 C 163.14 139.57 161.35 139.04 159.51 138.70 C 158.81 136.67 158.32 134.58 158.06 132.46 C 164.06 131.41 170.04 130.28 176.06 129.41 C 178.89 128.95 181.30 130.87 183.81 131.86 C 182.69 130.66 181.48 129.48 179.91 128.91 C 180.06 126.96 180.23 125.01 180.53 123.08 L 180.66 122.25 C 182.01 119.07 183.33 115.67 182.04 112.22 C 184.92 111.01 185.06 106.18 181.91 105.25 C 175.19 102.32 167.63 103.08 160.52 101.88 C 160.98 99.77 160.44 97.24 162.02 95.52 C 162.80 97.03 161.45 100.39 163.52 100.83 C 163.08 99.01 162.75 97.17 162.68 95.30 Z"
     id="path50" />
  <path
     fill="#ff7f00"
     d=" M 212.65 98.50 C 217.33 97.01 222.27 94.78 223.87 89.69 C 225.97 91.08 228.03 92.52 230.06 94.02 C 229.69 101.22 223.13 105.34 216.93 107.29 C 216.93 103.84 215.71 100.38 212.65 98.50 Z"
     id="path52" />
  <path
     fill="#fece00"
     d=" M 68.64 90.79 C 72.72 91.95 76.78 93.18 80.89 94.22 C 81.06 98.81 82.59 103.23 85.25 106.96 C 82.64 108.14 79.77 108.10 76.96 107.98 C 74.01 112.06 76.40 117.12 76.09 121.67 C 74.97 122.46 73.84 123.23 72.73 124.03 C 70.33 122.21 67.65 120.53 66.11 117.86 C 64.57 115.43 64.77 112.46 64.57 109.71 C 67.09 111.57 69.62 113.43 72.21 115.20 C 70.48 111.98 68.36 108.79 67.98 105.06 C 67.60 102.37 68.30 99.70 68.87 97.08 C 70.57 97.85 72.27 98.62 73.98 99.39 C 72.21 96.51 70.40 93.66 68.64 90.79 Z"
     id="path54" />
  <path
     fill="#ebcf00"
     d=" M 159.15 100.01 C 157.22 99.81 157.25 95.53 159.52 97.02 C 159.93 98.10 159.81 99.09 159.15 100.01 Z"
     id="path56" />
  <path
     fill="#ddac83"
     d=" M 152.04 98.20 C 153.31 97.93 154.58 97.75 155.87 97.66 C 156.70 98.98 157.43 100.37 158.19 101.74 C 157.33 101.94 155.61 102.36 154.75 102.57 C 154.58 102.62 154.25 102.74 154.08 102.80 C 153.56 102.90 152.52 103.09 152.00 103.19 C 152.00 101.52 152.02 99.86 152.04 98.20 Z"
     id="path58" />
  <path
     fill="#fad900"
     d=" M 146.54 99.49 C 148.01 99.19 149.48 98.90 150.95 98.61 C 150.90 101.24 150.98 103.88 151.77 106.41 C 149.66 104.40 147.83 102.12 146.54 99.49 Z"
     id="path60" />
  <path
     fill="#c99772"
     d=" M 51.26 111.99 C 51.27 106.96 53.01 101.19 58.20 99.28 C 58.54 102.79 58.95 106.31 59.34 109.82 C 56.66 114.33 53.89 120.87 58.05 125.36 L 59.46 125.78 C 60.48 126.34 61.49 126.91 62.51 127.49 C 60.62 128.98 58.75 130.49 56.92 132.05 C 51.97 126.64 51.34 118.97 51.26 111.99 Z"
     id="path62" />
  <path
     fill="#ffffa7"
     d=" M 154.08 102.80 C 154.25 102.74 154.58 102.62 154.75 102.57 C 156.89 102.98 159.27 102.87 160.50 105.02 C 158.13 105.40 155.79 105.89 153.42 106.25 C 153.13 105.67 152.55 104.52 152.26 103.94 L 153.76 104.13 C 153.84 103.80 154.00 103.13 154.08 102.80 Z"
     id="path64" />
  <path
     fill="#fdfb9e"
     d=" M 160.86 102.92 C 167.44 104.18 174.35 103.47 180.72 105.84 C 182.40 106.25 183.37 107.79 183.43 109.47 C 179.25 109.66 175.52 107.48 171.65 106.28 C 168.16 105.00 164.39 104.81 160.71 105.00 C 160.75 104.48 160.82 103.44 160.86 102.92 Z"
     id="path66" />
  <path
     fill="#fdcc00"
     d=" M 153.42 106.25 C 155.79 105.89 158.13 105.40 160.50 105.02 L 160.71 105.00 C 164.39 104.81 168.16 105.00 171.65 106.28 C 175.52 107.48 179.25 109.66 183.43 109.47 C 182.28 110.54 181.05 111.53 179.83 112.51 C 173.56 110.95 167.61 106.88 160.90 108.22 C 156.87 109.06 152.46 109.36 149.11 112.04 C 148.86 111.12 148.34 109.29 148.09 108.37 L 149.05 108.23 C 149.54 107.98 150.52 107.49 151.01 107.24 C 152.05 107.62 153.10 107.99 154.15 108.36 C 153.97 107.83 153.61 106.78 153.42 106.25 Z"
     id="path68" />
  <path
     fill="#fefc9f"
     d=" M 89.37 106.11 C 95.90 104.77 102.46 106.89 109.01 106.44 C 113.63 106.15 119.24 107.48 121.09 112.26 L 120.24 111.72 C 116.38 108.99 111.53 108.48 106.96 108.02 C 100.43 107.33 94.25 109.92 88.00 111.33 C 88.00 110.53 88.00 108.93 88.00 108.13 C 88.34 107.63 89.03 106.62 89.37 106.11 Z"
     id="path70" />
  <path
     fill="#ffffff"
     d=" M 149.05 108.23 C 147.77 106.87 150.88 105.29 151.01 107.24 C 150.52 107.49 149.54 107.98 149.05 108.23 Z"
     id="path72" />
  <path
     fill="#ffce00"
     d=" M 88.00 111.33 C 94.25 109.92 100.43 107.33 106.96 108.02 C 111.53 108.48 116.38 108.99 120.24 111.72 C 120.17 112.42 120.05 113.80 119.98 114.49 C 116.16 111.95 111.52 111.37 107.09 110.77 C 101.26 110.10 95.76 112.59 90.27 114.10 C 89.51 113.17 88.76 112.25 88.00 111.33 Z"
     id="path74" />
  <path
     fill="#cc956c"
     d=" M 148.67 113.40 C 153.10 110.23 158.73 109.51 164.01 108.97 C 169.60 109.35 174.65 112.19 179.95 113.80 C 180.47 113.41 181.52 112.62 182.04 112.22 C 183.33 115.67 182.01 119.07 180.66 122.25 C 176.60 116.87 169.30 115.52 162.97 115.09 C 160.60 114.69 158.50 115.84 156.89 117.48 C 157.99 117.04 159.07 116.55 160.14 116.05 C 167.42 115.63 175.61 117.25 180.53 123.08 C 180.23 125.01 180.06 126.96 179.91 128.91 L 178.38 128.44 C 178.53 126.55 178.56 124.34 176.69 123.24 C 170.83 119.12 163.00 118.99 156.23 120.42 C 151.55 122.15 153.18 128.20 153.39 132.01 C 152.45 132.58 151.53 133.16 150.60 133.75 C 153.09 133.31 155.58 132.90 158.06 132.46 C 158.32 134.58 158.81 136.67 159.51 138.70 C 156.37 138.69 153.27 139.31 150.21 140.00 C 147.70 133.86 145.14 127.07 147.90 120.53 C 147.15 121.57 146.42 122.63 145.71 123.70 C 145.51 120.03 146.20 116.24 148.67 113.40 Z"
     id="path76" />
  <path
     fill="#c99772"
     d=" M 216.45 109.75 C 219.86 115.61 219.33 122.64 218.56 129.11 C 217.82 134.47 215.14 139.67 210.42 142.54 C 209.24 140.37 208.04 138.22 206.80 136.09 C 208.08 135.26 209.37 134.42 210.68 133.62 L 212.02 133.73 C 216.26 130.19 214.27 124.13 212.27 119.92 C 213.95 116.65 215.30 113.23 216.45 109.75 Z"
     id="path78" />
  <path
     fill="#b5774e"
     d=" M 59.46 125.78 C 54.73 121.91 56.95 115.25 59.61 110.84 C 61.08 116.09 62.60 121.70 66.82 125.48 C 65.44 126.18 64.07 126.89 62.72 127.61 L 62.51 127.49 C 61.49 126.91 60.48 126.34 59.46 125.78 Z"
     id="path80" />
  <path
     fill="#cc956c"
     d=" M 89.50 115.21 C 95.02 114.19 100.24 111.41 105.98 111.79 C 110.83 112.18 116.00 112.82 119.86 116.08 C 123.04 117.75 123.80 121.47 124.42 124.68 C 125.14 129.30 126.26 133.86 128.09 138.17 C 124.70 138.54 121.30 139.40 118.44 141.33 C 118.13 141.41 117.50 141.56 117.19 141.64 C 114.88 143.81 112.79 147.85 109.06 146.95 C 109.57 144.26 110.61 141.71 111.00 139.00 C 110.79 135.92 107.84 133.96 105.31 132.75 C 99.80 130.06 93.60 132.36 87.85 130.93 C 90.49 129.15 93.65 127.79 96.88 128.65 C 104.10 130.06 111.82 130.23 118.35 133.98 C 117.75 133.23 117.15 132.48 116.55 131.73 C 116.85 127.81 118.82 121.90 114.56 119.48 C 107.56 117.67 99.38 118.00 93.31 122.28 C 91.21 123.46 92.03 125.96 92.38 127.83 C 91.02 128.32 89.66 128.80 88.33 129.36 C 88.81 126.95 89.22 124.53 89.39 122.08 C 91.83 120.19 94.17 118.00 97.16 117.05 C 102.52 115.50 108.21 117.00 113.58 115.57 C 108.91 115.26 104.19 115.27 99.53 115.70 C 95.49 116.09 92.13 118.62 89.11 121.14 C 88.23 118.54 87.57 115.84 87.63 113.07 C 88.10 113.61 89.03 114.68 89.50 115.21 Z"
     id="path82" />
  <path
     fill="#000000"
     d=" M 99.53 115.70 C 104.19 115.27 108.91 115.26 113.58 115.57 C 108.21 117.00 102.52 115.50 97.16 117.05 C 94.17 118.00 91.83 120.19 89.39 122.08 C 88.71 122.54 87.35 123.45 86.67 123.91 C 87.45 122.96 88.26 122.03 89.11 121.14 C 92.13 118.62 95.49 116.09 99.53 115.70 Z"
     id="path84" />
  <path
     fill="#000000"
     d=" M 156.89 117.48 C 158.50 115.84 160.60 114.69 162.97 115.09 C 169.30 115.52 176.60 116.87 180.66 122.25 L 180.53 123.08 C 175.61 117.25 167.42 115.63 160.14 116.05 C 159.07 116.55 157.99 117.04 156.89 117.48 Z"
     id="path86" />
  <path
     fill="#000000"
     d=" M 93.31 122.28 C 99.38 118.00 107.56 117.67 114.56 119.48 C 118.82 121.90 116.85 127.81 116.55 131.73 C 117.15 132.48 117.75 133.23 118.35 133.98 C 111.82 130.23 104.10 130.06 96.88 128.65 C 93.65 127.79 90.49 129.15 87.85 130.93 C 86.99 131.43 86.12 131.91 85.24 132.38 C 86.23 131.33 87.23 130.30 88.33 129.36 C 89.66 128.80 91.02 128.32 92.38 127.83 C 92.03 125.96 91.21 123.46 93.31 122.28 Z"
     id="path88" />
  <path
     fill="#000000"
     d=" M 156.23 120.42 C 163.00 118.99 170.83 119.12 176.69 123.24 C 178.56 124.34 178.53 126.55 178.38 128.44 L 179.91 128.91 C 181.48 129.48 182.69 130.66 183.81 131.86 C 181.30 130.87 178.89 128.95 176.06 129.41 C 170.04 130.28 164.06 131.41 158.06 132.46 C 155.58 132.90 153.09 133.31 150.60 133.75 C 151.53 133.16 152.45 132.58 153.39 132.01 C 153.18 128.20 151.55 122.15 156.23 120.42 Z"
     id="path90" />
  <path
     fill="#ffffff"
     d=" M 94.04 123.18 C 97.59 120.18 102.50 119.70 106.96 119.55 C 110.09 119.83 113.82 119.36 116.03 122.10 C 116.11 124.99 116.06 127.89 115.94 130.79 C 114.07 130.54 112.21 130.22 110.35 129.97 C 111.21 129.24 112.04 128.48 112.84 127.69 C 111.64 126.36 109.72 126.06 108.24 125.16 C 108.76 124.64 109.79 123.59 110.31 123.07 C 106.66 122.09 102.09 124.34 102.07 128.46 C 98.98 127.96 95.91 127.38 92.86 126.72 C 93.03 125.46 92.72 123.91 94.04 123.18 Z"
     id="path92" />
  <path
     fill="#000000"
     d=" M 145.71 123.70 C 146.42 122.63 147.15 121.57 147.90 120.53 C 145.14 127.07 147.70 133.86 150.21 140.00 C 153.27 139.31 156.37 138.69 159.51 138.70 C 161.35 139.04 163.14 139.57 164.92 140.10 C 165.35 141.74 165.93 143.36 165.95 145.07 C 165.39 147.79 162.81 149.22 160.65 150.54 C 162.79 148.15 165.82 145.84 165.13 142.20 C 161.35 138.23 155.46 139.87 150.72 140.59 C 151.54 143.40 152.33 146.24 152.53 149.17 C 152.12 150.56 151.62 151.92 151.10 153.28 C 144.53 159.65 134.65 158.29 126.30 158.96 C 126.99 158.52 127.68 158.09 128.37 157.66 C 134.20 157.89 140.23 157.83 145.78 155.81 C 149.33 154.55 152.26 150.98 151.44 147.05 C 150.07 139.13 144.76 132.04 145.71 123.70 Z"
     id="path94" />
  <path
     fill="#ffffff"
     d=" M 155.03 121.99 C 161.37 119.97 168.73 120.13 174.73 123.19 C 176.25 124.12 178.88 126.10 176.79 127.85 C 173.99 128.77 171.04 129.01 168.17 129.60 C 168.06 129.09 167.84 128.08 167.73 127.57 L 166.53 126.98 C 166.40 126.50 166.15 125.54 166.02 125.06 L 165.30 125.11 L 166.16 127.20 C 165.26 126.78 164.37 126.36 163.48 125.94 C 163.81 125.46 164.46 124.51 164.78 124.03 C 160.81 122.23 154.89 127.97 159.57 130.91 C 157.94 131.31 156.31 131.74 154.68 132.17 C 153.88 128.83 153.47 125.19 155.03 121.99 Z"
     id="path96" />
  <path
     fill="#b6784f"
     d=" M 211.74 120.77 C 213.76 124.70 215.58 131.04 210.68 133.62 C 209.37 134.42 208.08 135.26 206.80 136.09 C 205.31 133.97 203.79 131.87 202.25 129.79 C 206.29 127.86 209.43 124.54 211.74 120.77 Z"
     id="path98" />
  <path
     fill="#efcdb2"
     d=" M 63.63 128.71 C 67.09 126.46 71.21 125.78 75.00 124.33 C 73.55 128.05 71.66 132.01 67.85 133.80 C 63.69 136.17 57.60 136.65 55.68 141.73 C 54.16 146.70 54.92 152.25 57.08 156.92 C 59.99 162.84 65.87 166.33 71.21 169.78 C 74.41 171.96 78.30 173.64 80.11 177.28 C 72.45 173.32 64.76 169.23 57.98 163.85 C 54.17 160.92 50.97 156.80 50.54 151.87 C 49.45 142.34 55.53 133.26 63.63 128.71 Z"
     id="path100" />
  <path
     fill="#f0ceb3"
     d=" M 196.26 129.82 C 197.76 129.91 199.26 129.97 200.77 130.03 C 205.57 136.24 210.31 142.95 211.65 150.87 C 212.51 154.39 210.97 157.82 209.70 161.04 C 208.44 161.27 207.18 161.50 205.92 161.72 C 208.35 154.94 207.76 147.44 205.16 140.82 C 203.16 136.44 198.64 133.96 196.26 129.82 Z"
     id="path102" />
  <path
     fill="#000000"
     d=" M 118.44 141.33 C 121.30 139.40 124.70 138.54 128.09 138.17 C 134.00 137.99 140.44 138.16 145.54 141.55 C 140.77 140.35 136.02 138.74 131.04 138.93 C 126.69 138.74 122.60 140.35 118.44 141.33 Z"
     id="path104" />
  <path
     fill="#000000"
     d=" M 187.61 138.36 C 191.88 140.29 196.27 142.14 200.09 144.87 C 202.88 146.83 204.59 150.09 204.48 153.51 C 203.51 151.46 202.84 149.23 201.49 147.38 C 199.54 145.05 196.74 143.68 194.06 142.38 C 191.83 141.18 189.13 140.54 187.61 138.36 Z"
     id="path106" />
  <path
     fill="#ddac83"
     d=" M 150.72 140.59 C 155.46 139.87 161.35 138.23 165.13 142.20 C 163.56 143.88 162.17 145.79 160.27 147.12 C 157.88 148.39 155.13 148.63 152.53 149.17 C 152.33 146.24 151.54 143.40 150.72 140.59 Z"
     id="path108" />
  <path
     fill="#e4bd96"
     d=" M 130.38 143.48 C 133.52 143.32 137.03 143.42 139.74 145.18 C 139.80 145.61 139.91 146.47 139.96 146.90 C 135.09 149.03 128.07 149.85 123.97 145.88 C 125.53 144.02 128.15 143.83 130.38 143.48 Z"
     id="path110" />
  <path
     fill="#cc956c"
     d=" M 160.27 147.12 C 162.17 145.79 163.56 143.88 165.13 142.20 C 165.82 145.84 162.79 148.15 160.65 150.54 C 157.88 152.60 154.63 154.13 151.10 153.28 C 151.62 151.92 152.12 150.56 152.53 149.17 C 155.13 148.63 157.88 148.39 160.27 147.12 Z"
     id="path112" />
  <path
     fill="#cb936b"
     d=" M 194.06 142.38 C 196.74 143.68 199.54 145.05 201.49 147.38 C 202.84 149.23 203.51 151.46 204.48 153.51 C 203.57 155.38 202.63 157.24 201.64 159.07 C 200.43 155.52 199.42 151.83 197.33 148.67 C 196.02 146.69 194.70 144.69 194.06 142.38 Z"
     id="path114" />
  <path
     fill="#000000"
     d=" M 64.92 152.08 C 67.09 146.53 73.50 144.38 79.03 144.65 C 82.67 144.89 86.75 145.35 89.45 148.06 C 84.29 146.07 78.60 144.56 73.12 146.25 C 69.67 147.01 67.48 149.92 64.92 152.08 Z"
     id="path116" />
  <path
     fill="#000000"
     d=" M 78.97 147.54 C 81.04 150.23 82.78 153.30 85.87 154.99 C 94.67 160.63 104.53 164.35 114.38 167.70 C 121.71 169.97 129.20 172.51 136.99 172.04 C 150.09 171.51 163.04 168.28 175.07 163.10 C 182.59 159.64 190.39 155.24 194.50 147.72 L 195.36 148.01 C 190.99 155.95 182.76 160.64 174.75 164.22 C 164.01 168.63 152.66 171.66 141.08 172.67 C 136.04 173.07 130.92 173.07 125.99 171.86 C 115.99 169.51 106.29 165.99 96.87 161.92 C 91.65 159.43 86.32 156.91 81.97 153.03 C 80.32 151.64 79.48 149.58 78.97 147.54 Z"
     id="path118" />
  <path
     fill="#000000"
     d=" M 112.28 152.68 C 116.39 155.10 121.21 158.10 126.12 156.67 C 126.13 157.14 126.16 158.08 126.17 158.55 C 121.34 157.55 115.20 157.34 112.28 152.68 Z"
     id="path120" />
  <path
     fill="#cb946b"
     d=" M 96.87 161.92 C 106.29 165.99 115.99 169.51 125.99 171.86 C 130.92 173.07 136.04 173.07 141.08 172.67 C 152.66 171.66 164.01 168.63 174.75 164.22 C 174.99 164.57 175.46 165.28 175.70 165.63 C 172.07 169.49 167.06 171.73 162.04 173.16 C 152.58 175.71 142.74 176.54 132.98 176.66 C 121.99 176.23 110.54 174.13 101.43 167.59 C 99.37 166.20 97.77 164.24 96.87 161.92 Z"
     id="path122" />
  <path
     fill="#ddac83"
     d=" M 194.39 167.48 C 199.32 163.44 205.82 162.62 211.95 162.15 C 213.90 175.16 205.19 186.35 204.02 198.99 C 203.59 205.69 202.47 212.32 202.04 219.00 C 204.35 222.59 208.36 224.97 209.83 229.13 C 211.65 233.09 210.65 237.52 209.46 241.50 C 211.40 242.36 214.25 242.67 214.74 245.18 C 216.34 252.67 211.15 259.63 205.08 263.41 C 207.98 263.85 211.96 263.68 213.11 267.08 C 215.11 272.64 212.04 278.50 208.17 282.44 L 208.63 283.27 C 211.82 288.53 208.01 295.34 203.07 297.92 C 196.53 298.41 189.50 301.29 183.33 297.71 C 180.67 295.91 184.10 294.10 185.25 292.54 C 185.25 292.17 185.25 291.43 185.25 291.06 C 189.62 290.27 194.20 289.60 198.01 287.17 C 188.60 289.30 178.72 292.93 169.05 290.66 L 168.54 290.19 C 163.07 285.55 154.59 285.02 150.44 278.65 C 149.31 276.59 149.20 272.61 151.99 271.93 C 156.35 271.99 160.67 272.85 165.04 272.51 C 173.73 273.45 182.45 272.33 191.07 271.18 C 193.92 270.58 197.05 270.62 199.56 268.98 C 192.60 269.73 185.69 271.64 178.65 271.32 C 169.20 268.90 158.41 269.00 150.59 262.36 C 146.91 259.43 145.70 252.85 149.75 249.75 C 155.08 247.70 160.61 250.67 165.99 251.07 C 170.01 251.70 173.95 250.44 177.55 248.74 C 183.15 247.16 189.62 248.29 194.71 245.23 C 187.87 246.23 180.94 247.92 174.02 247.46 C 169.10 245.64 163.85 245.29 158.72 244.42 C 155.58 243.90 151.85 242.42 151.20 238.91 C 150.34 234.31 152.57 229.92 154.19 225.75 C 163.60 221.46 174.10 220.22 184.35 220.09 C 188.46 219.88 192.97 219.63 196.26 216.85 L 195.49 216.23 C 188.90 212.01 186.63 202.93 189.03 195.74 C 189.79 195.80 191.31 195.91 192.07 195.96 C 190.49 194.88 188.37 194.28 187.52 192.42 C 185.03 183.77 187.13 173.28 194.39 167.48 Z"
     id="path124" />
  <path
     fill="#efceb3"
     d=" M 211.95 162.15 C 212.95 163.56 214.02 165.10 213.91 166.93 C 213.48 176.83 209.28 186.10 208.53 195.96 C 207.47 202.95 205.16 209.88 205.82 217.04 C 210.58 219.53 215.33 223.42 216.21 229.05 C 217.23 232.88 215.70 236.72 213.99 240.10 C 220.57 245.55 221.44 257.22 214.18 262.47 C 217.30 265.40 217.83 270.08 216.20 273.92 C 214.98 277.91 212.00 280.97 208.63 283.27 L 208.17 282.44 C 212.04 278.50 215.11 272.64 213.11 267.08 C 211.96 263.68 207.98 263.85 205.08 263.41 C 211.15 259.63 216.34 252.67 214.74 245.18 C 214.25 242.67 211.40 242.36 209.46 241.50 C 210.65 237.52 211.65 233.09 209.83 229.13 C 208.36 224.97 204.35 222.59 202.04 219.00 C 202.47 212.32 203.59 205.69 204.02 198.99 C 205.19 186.35 213.90 175.16 211.95 162.15 Z"
     id="path126" />
  <path
     fill="#f3f6ff"
     d=" M 28.02 185.11 C 40.14 178.52 53.41 173.91 67.08 171.96 C 70.79 173.59 74.17 175.89 77.76 177.78 C 76.73 178.74 75.70 179.91 74.14 179.75 C 62.70 180.32 51.10 180.13 39.87 182.73 C 36.22 183.69 32.26 184.67 29.63 187.58 C 27.37 190.09 24.95 192.45 22.11 194.31 C 22.20 195.12 22.29 195.94 22.38 196.77 C 17.71 202.35 17.11 210.05 17.94 217.00 C 18.42 221.11 20.54 224.87 20.74 229.02 C 20.44 232.49 19.30 235.83 18.89 239.30 C 12.90 236.05 10.97 228.40 10.96 222.03 C 11.07 212.33 13.16 202.44 17.78 193.86 C 19.88 189.67 24.11 187.34 28.02 185.11 Z"
     id="path128" />
  <path
     fill="#f0ceb3"
     d=" M 167.20 188.18 C 175.15 184.37 179.67 175.76 188.18 172.85 C 187.75 174.22 187.29 175.57 186.88 176.93 C 184.12 178.71 180.86 179.99 178.86 182.71 C 175.19 187.70 171.09 192.41 166.23 196.28 C 161.53 200.30 155.17 201.18 149.36 202.58 C 138.71 204.65 127.85 206.14 116.98 205.83 C 112.53 205.36 107.45 205.33 103.99 202.05 C 100.03 198.28 96.89 193.77 93.60 189.43 C 98.12 191.29 100.99 195.51 105.25 197.79 C 112.37 202.09 121.02 202.65 129.11 201.73 C 142.63 200.04 155.06 194.02 167.20 188.18 Z"
     id="path130" />
  <path
     fill="#ffe1bc"
     d=" M 81.15 177.77 C 81.18 177.74 81.24 177.68 81.27 177.65 L 81.35 177.73 L 81.15 177.77 Z"
     id="path132" />
  <path
     fill="#cce4ff"
     d=" M 77.76 177.78 C 81.00 179.31 83.49 181.92 86.03 184.39 C 83.39 194.87 81.32 205.47 79.25 216.08 C 76.82 212.37 75.97 207.99 75.35 203.68 C 72.17 209.15 72.56 217.02 66.60 220.54 C 61.94 222.88 56.53 224.19 51.32 223.58 C 44.53 221.56 41.52 214.51 37.60 209.26 C 36.14 205.84 38.35 201.42 35.37 198.66 C 36.23 205.89 35.98 213.45 39.57 220.06 C 36.95 219.42 34.32 218.80 31.76 217.96 C 30.92 217.21 30.15 216.41 29.30 215.68 C 31.72 222.40 38.81 225.69 44.56 229.13 C 41.46 232.67 36.94 234.17 32.35 234.41 C 32.09 234.44 31.58 234.51 31.32 234.55 C 31.52 234.89 31.93 235.58 32.13 235.93 C 34.07 236.72 36.13 236.99 38.21 236.83 C 37.28 237.49 36.37 238.19 35.47 238.89 C 30.51 242.14 24.18 241.30 18.85 239.55 L 18.89 239.30 C 19.30 235.83 20.44 232.49 20.74 229.02 C 20.54 224.87 18.42 221.11 17.94 217.00 C 17.11 210.05 17.71 202.35 22.38 196.77 C 22.29 195.94 22.20 195.12 22.11 194.31 C 24.95 192.45 27.37 190.09 29.63 187.58 C 32.26 184.67 36.22 183.69 39.87 182.73 C 51.10 180.13 62.70 180.32 74.14 179.75 C 75.70 179.91 76.73 178.74 77.76 177.78 Z"
     id="path134" />
  <path
     fill="#00469b"
     d=" M 181.93 182.24 C 182.26 180.73 184.36 179.39 185.86 179.53 C 186.13 181.33 183.47 182.52 181.93 182.24 Z"
     id="path136" />
  <path
     fill="#000000"
     d=" M 120.90 182.66 C 131.43 180.43 142.23 179.73 152.98 180.28 L 152.93 180.95 C 139.81 180.86 126.18 181.00 113.85 186.02 C 115.71 184.06 118.35 183.27 120.90 182.66 Z"
     id="path138" />
  <path
     fill="#0060b6"
     d=" M 181.93 182.24 C 181.57 185.59 178.87 181.03 181.93 182.24 Z"
     id="path140" />
  <path
     fill="#cce4ff"
     d=" M 177.79 187.84 C 179.79 185.31 182.54 183.57 185.31 182.02 C 185.29 184.92 185.50 187.83 186.01 190.69 C 179.56 198.35 177.59 209.39 180.06 218.97 C 176.70 219.18 173.39 219.75 170.05 220.12 C 168.21 208.96 170.41 196.66 177.79 187.84 Z"
     id="path142" />
  <path
     fill="#f3f6fe"
     d=" M 212.19 182.76 C 218.23 187.83 220.82 195.62 222.93 202.95 C 224.08 210.04 224.85 217.18 225.57 224.32 C 224.46 223.52 223.35 222.71 222.25 221.91 L 222.25 221.84 C 222.88 216.64 220.35 211.90 218.77 207.12 C 216.65 200.96 215.19 194.27 210.59 189.38 C 211.03 187.15 211.56 184.94 212.19 182.76 Z"
     id="path144" />
  <path
     fill="#014696"
     d=" M 86.67 184.94 C 88.83 186.71 90.89 188.60 92.77 190.67 C 92.11 190.76 90.78 190.94 90.12 191.04 C 86.64 204.24 84.97 217.86 81.01 230.95 C 79.72 235.89 79.68 241.06 78.25 245.98 C 76.28 244.98 74.33 243.93 72.40 242.85 C 72.39 240.40 72.32 237.96 72.26 235.51 C 77.75 231.99 78.27 224.83 79.79 219.07 C 81.82 207.64 84.51 196.33 86.67 184.94 Z"
     id="path146" />
  <path
     fill="#cc956c"
     d=" M 129.33 187.51 C 134.36 185.88 139.84 185.81 144.95 187.16 C 144.71 189.43 144.35 191.99 142.19 193.28 C 137.72 196.35 130.08 197.59 126.71 192.31 C 125.03 190.37 127.56 188.16 129.33 187.51 Z"
     id="path148" />
  <path
     fill="#cce4ff"
     d=" M 210.59 189.38 C 215.19 194.27 216.65 200.96 218.77 207.12 C 220.35 211.90 222.88 216.64 222.25 221.84 C 219.14 220.58 216.25 218.23 212.81 218.17 L 212.87 217.89 L 212.98 217.37 L 212.40 217.39 C 210.50 216.93 208.64 216.38 206.76 215.87 C 206.79 210.84 207.44 205.84 208.76 200.99 C 209.84 197.20 209.67 193.20 210.59 189.38 Z"
     id="path150" />
  <path
     fill="#0060b6"
     d=" M 90.12 191.04 C 90.78 190.94 92.11 190.76 92.77 190.67 C 94.89 193.47 97.35 196.04 99.14 199.08 C 99.07 205.67 97.29 212.58 100.05 218.89 C 110.74 221.95 121.86 223.51 132.98 223.63 C 139.87 223.25 147.19 222.82 153.29 219.28 C 155.13 216.39 155.05 212.70 155.56 209.38 C 157.66 208.31 159.75 207.23 161.84 206.13 C 160.85 211.48 160.15 216.88 160.10 222.32 C 154.18 224.37 147.60 226.70 144.54 232.65 C 133.51 229.77 122.18 228.12 110.93 226.32 C 106.60 225.71 102.25 225.01 97.86 225.02 C 97.51 225.33 96.82 225.93 96.47 226.24 C 94.77 226.53 93.00 226.62 91.38 227.28 C 86.92 229.83 86.18 235.44 83.36 239.36 C 81.42 241.85 81.19 244.94 82.03 247.89 C 80.77 247.25 79.52 246.61 78.25 245.98 C 79.68 241.06 79.72 235.89 81.01 230.95 C 84.97 217.86 86.64 204.24 90.12 191.04 Z"
     id="path152" />
  <path
     fill="#014697"
     d=" M 156.54 202.15 C 163.76 200.85 169.01 195.63 174.05 190.75 C 169.36 199.68 166.71 210.13 168.90 220.17 C 165.97 220.92 163.04 221.63 160.10 222.32 C 160.15 216.88 160.85 211.48 161.84 206.13 C 159.75 207.23 157.66 208.31 155.56 209.38 C 155.49 206.93 155.68 204.46 156.54 202.15 Z"
     id="path154" />
  <path
     fill="#cc956c"
     d=" M 181.09 219.33 C 178.90 210.15 180.17 199.47 186.37 192.07 C 187.16 193.29 188.07 194.41 189.12 195.43 L 189.03 195.74 C 186.63 202.93 188.90 212.01 195.49 216.23 C 191.54 219.60 185.93 219.04 181.09 219.33 Z"
     id="path156" />
  <path
     fill="#cce4ff"
     d=" M 101.02 217.96 C 99.18 212.33 99.99 206.23 100.54 200.45 C 102.40 202.33 104.33 204.20 106.69 205.46 L 106.85 205.68 C 108.64 208.02 110.31 210.59 112.80 212.27 C 115.52 214.02 118.88 214.06 122.00 214.21 C 132.86 214.45 143.74 212.88 154.16 209.85 C 153.34 213.27 154.19 218.82 149.70 219.73 C 133.91 224.90 116.74 222.06 101.02 217.96 Z"
     id="path158" />
  <path
     fill="#8db4eb"
     d=" M 106.85 205.68 C 122.96 208.94 139.54 205.91 155.39 202.54 C 154.85 204.95 154.42 207.39 154.16 209.85 C 143.74 212.88 132.86 214.45 122.00 214.21 C 118.88 214.06 115.52 214.02 112.80 212.27 C 110.31 210.59 108.64 208.02 106.85 205.68 Z"
     id="path160" />
  <path
     fill="#8db4eb"
     d=" M 66.60 220.54 C 72.56 217.02 72.17 209.15 75.35 203.68 C 75.97 207.99 76.82 212.37 79.25 216.08 C 78.00 222.10 77.23 228.68 73.24 233.63 C 70.38 232.21 66.04 232.80 64.77 229.24 C 67.28 228.99 69.83 229.01 72.30 228.41 C 64.86 226.15 57.41 230.83 50.02 228.90 C 42.90 225.05 38.06 217.34 37.60 209.26 C 41.52 214.51 44.53 221.56 51.32 223.58 C 56.53 224.19 61.94 222.88 66.60 220.54 Z"
     id="path162" />
  <path
     fill="#f3f6fe"
     d=" M 212.40 217.39 L 212.98 217.37 L 212.87 217.89 C 212.81 218.17 212.68 218.73 212.62 219.01 C 216.98 220.01 221.06 222.21 224.56 224.97 C 224.92 224.84 225.63 224.57 225.99 224.44 L 226.00 225.68 C 231.45 226.77 233.40 232.47 234.89 237.11 C 236.75 242.92 238.72 248.95 237.90 255.13 C 237.05 259.36 234.46 262.96 233.30 267.09 C 232.44 270.18 231.72 273.32 230.37 276.25 L 230.11 275.15 C 230.59 266.71 233.85 258.55 233.04 249.98 C 233.08 239.66 226.56 229.35 216.65 225.98 L 216.51 225.92 C 214.84 223.00 212.98 219.90 209.73 218.53 C 210.62 218.15 211.51 217.77 212.40 217.39 Z"
     id="path164" />
  <path
     fill="#94bdf2"
     d=" M 31.76 217.96 C 34.32 218.80 36.95 219.42 39.57 220.06 L 39.74 220.10 C 41.64 223.67 44.82 226.24 47.59 229.09 C 41.67 226.53 35.62 223.31 31.76 217.96 Z"
     id="path166" />
  <path
     fill="#014697"
     d=" M 97.86 225.02 C 102.25 225.01 106.60 225.71 110.93 226.32 C 122.18 228.12 133.51 229.77 144.54 232.65 L 145.11 234.05 C 142.95 234.22 140.78 234.36 138.62 234.15 C 129.89 231.49 119.59 236.14 111.76 230.18 C 110.82 232.83 107.77 232.46 105.51 232.72 C 102.60 232.46 99.68 231.50 97.62 229.33 C 97.62 227.89 97.70 226.45 97.86 225.02 Z"
     id="path168" />
  <path
     fill="#cc956c"
     d=" M 146.01 232.90 C 147.01 229.08 150.90 227.23 154.19 225.75 C 152.57 229.92 150.34 234.31 151.20 238.91 C 151.85 242.42 155.58 243.90 158.72 244.42 C 163.85 245.29 169.10 245.64 174.02 247.46 L 174.72 247.68 C 170.19 248.18 165.53 248.51 161.05 247.48 C 156.73 246.23 152.16 245.91 148.03 244.01 C 146.90 240.41 145.85 236.70 146.01 232.90 Z"
     id="path170" />
  <path
     fill="#cce4ff"
     d=" M 216.65 225.98 C 226.56 229.35 233.08 239.66 233.04 249.98 C 233.85 258.55 230.59 266.71 230.11 275.15 C 230.09 275.57 230.05 276.41 230.03 276.82 C 225.65 283.40 218.28 287.10 210.91 289.27 C 210.89 287.27 210.69 285.27 210.16 283.34 C 215.80 279.27 221.56 274.95 224.68 268.53 C 230.38 258.70 228.45 246.29 223.19 236.72 C 221.37 232.82 216.41 230.80 216.65 225.98 Z"
     id="path172" />
  <path
     fill="#b2b2b2"
     d=" M 92.47 230.52 C 92.92 228.75 94.82 228.29 96.26 227.62 C 95.70 231.98 94.04 236.14 93.57 240.51 C 94.76 243.29 97.97 244.63 100.23 246.51 C 102.95 245.85 106.01 245.98 108.45 244.51 C 110.21 240.43 110.58 235.91 111.88 231.68 C 112.40 232.23 113.45 233.34 113.97 233.90 C 113.89 239.26 113.75 244.62 114.07 249.98 C 109.46 253.10 103.54 254.23 98.07 253.92 C 93.28 251.45 88.43 248.18 86.11 243.12 C 88.50 239.06 90.91 234.99 92.47 230.52 Z"
     id="path174" />
  <path
     fill="#92bbef"
     d=" M 44.56 229.13 C 46.57 229.60 48.60 229.95 50.64 230.27 C 46.15 232.28 41.80 234.86 36.88 235.69 C 35.19 236.26 33.75 235.19 32.35 234.41 C 36.94 234.17 41.46 232.67 44.56 229.13 Z"
     id="path176" />
  <path
     fill="#838383"
     d=" M 85.86 236.98 C 87.84 233.54 88.76 229.05 92.94 227.51 C 90.39 232.75 88.09 238.12 84.98 243.07 C 87.53 248.59 92.70 252.59 98.13 255.03 C 102.47 255.39 106.81 254.29 110.91 252.96 C 112.55 252.20 115.21 251.42 114.97 249.14 C 115.12 244.00 114.66 238.85 115.20 233.72 C 118.06 239.54 116.97 246.32 116.87 252.56 C 112.91 258.15 105.29 258.89 98.98 259.08 C 95.67 259.45 93.10 257.02 90.51 255.38 C 86.69 252.67 82.62 249.04 82.48 243.99 C 83.08 241.43 84.66 239.27 85.86 236.98 Z"
     id="path178" />
  <path
     fill="#0060b6"
     d=" M 97.15 228.92 L 97.62 229.33 C 99.68 231.50 102.60 232.46 105.51 232.72 C 107.12 232.89 108.73 233.02 110.35 233.12 C 109.63 236.76 108.69 240.36 107.82 243.97 C 105.26 244.54 102.65 245.34 100.00 245.08 C 98.10 243.72 95.68 242.48 94.67 240.32 C 95.15 236.45 96.39 232.73 97.15 228.92 Z"
     id="path180" />
  <path
     fill="#ffffff"
     d=" M 58.68 230.90 C 60.27 230.58 61.86 230.26 63.45 229.96 C 63.87 233.16 67.04 234.21 69.83 234.31 C 70.22 236.66 70.60 239.01 70.99 241.36 C 70.16 241.24 68.49 240.98 67.66 240.86 C 67.45 243.83 67.06 246.80 66.22 249.67 C 65.71 249.20 64.69 248.25 64.17 247.78 C 68.37 241.74 62.90 235.13 58.68 230.90 Z"
     id="path182" />
  <path
     fill="#8db4eb"
     d=" M 50.65 231.02 C 52.47 231.13 54.68 230.47 56.07 232.01 C 59.73 235.62 64.11 240.05 63.13 245.69 C 58.82 250.23 53.29 253.44 47.53 255.80 C 49.62 253.39 52.13 251.16 53.33 248.15 C 54.18 245.92 52.97 243.23 50.73 242.38 C 41.41 239.00 31.42 247.74 22.48 242.07 C 26.80 241.74 33.01 243.65 35.47 238.89 C 36.37 238.19 37.28 237.49 38.21 236.83 C 42.38 234.99 46.91 233.76 50.65 231.02 Z"
     id="path184" />
  <path
     fill="#000000"
     d=" M 167.80 242.52 C 165.85 238.95 165.39 233.40 168.73 230.50 C 166.79 234.29 167.33 238.46 167.80 242.52 Z"
     id="path186" />
  <path
     fill="#d3986e"
     d=" M 217.88 231.66 C 224.95 238.69 227.80 249.28 226.87 259.04 C 225.56 265.78 222.22 272.45 216.73 276.74 C 218.06 272.06 219.04 266.75 215.93 262.54 C 222.38 256.53 221.40 245.63 215.31 239.72 C 216.71 237.23 217.43 234.46 217.88 231.66 Z"
     id="path188" />
  <path
     fill="#fbfeff"
     d=" M 10.37 248.52 C 7.97 243.66 9.45 237.69 12.78 233.65 C 13.20 234.64 13.60 235.63 14.00 236.63 C 10.70 243.12 12.43 251.48 17.42 256.60 C 20.78 260.16 26.01 260.24 30.52 260.87 C 26.34 261.03 21.71 262.40 17.85 260.17 C 13.93 257.41 12.44 252.61 10.37 248.52 Z"
     id="path190" />
  <path
     fill="#0060b6"
     d=" M 116.42 233.35 C 123.77 234.58 131.23 233.64 138.62 234.15 C 140.78 234.36 142.95 234.22 145.11 234.05 C 144.99 237.49 145.91 240.81 147.01 244.03 C 143.67 247.37 142.24 251.96 142.58 256.63 C 136.01 256.92 129.44 256.81 122.87 256.75 L 122.65 256.55 C 121.93 255.90 121.06 255.54 120.03 255.49 C 120.80 249.63 121.06 243.72 121.37 237.82 C 121.53 236.47 121.14 235.17 120.36 234.08 C 120.06 241.46 119.22 248.82 118.96 256.20 C 118.08 256.16 116.31 256.07 115.43 256.02 C 116.49 254.50 118.24 253.11 118.09 251.06 C 117.83 245.15 118.77 238.97 116.42 233.35 Z"
     id="path192" />
  <path
     fill="#021d67"
     d=" M 120.36 234.08 C 121.14 235.17 121.53 236.47 121.37 237.82 C 121.06 243.72 120.80 249.63 120.03 255.49 C 121.06 255.54 121.93 255.90 122.65 256.55 C 122.61 256.75 122.51 257.14 122.47 257.34 C 121.58 257.44 119.82 257.66 118.93 257.77 C 118.94 257.38 118.95 256.59 118.96 256.20 C 119.22 248.82 120.06 241.46 120.36 234.08 Z"
     id="path194" />
  <path
     fill="#cce4ff"
     d=" M 14.00 236.63 C 16.20 239.33 19.29 240.85 22.48 242.07 C 31.42 247.74 41.41 239.00 50.73 242.38 C 52.97 243.23 54.18 245.92 53.33 248.15 C 52.13 251.16 49.62 253.39 47.53 255.80 C 42.64 259.43 36.40 260.17 30.52 260.87 C 26.01 260.24 20.78 260.16 17.42 256.60 C 12.43 251.48 10.70 243.12 14.00 236.63 Z"
     id="path196" />
  <path
     fill="#cb946b"
     d=" M 143.77 255.96 C 143.16 251.76 144.88 247.64 147.80 244.67 C 151.54 246.73 155.87 246.86 159.89 248.04 C 165.65 249.67 171.67 248.53 177.55 248.74 C 173.95 250.44 170.01 251.70 165.99 251.07 C 160.61 250.67 155.08 247.70 149.75 249.75 C 145.70 252.85 146.91 259.43 150.59 262.36 C 158.41 269.00 169.20 268.90 178.65 271.32 C 168.97 273.97 159.23 269.86 150.92 265.17 C 147.52 263.16 143.91 260.25 143.77 255.96 Z"
     id="path198" />
  <path
     fill="#ce9c77"
     d=" M 61.74 248.74 C 63.26 249.87 64.58 251.23 65.83 252.66 C 64.70 254.34 63.48 255.96 62.18 257.52 C 62.54 257.87 63.25 258.59 63.61 258.94 C 62.67 261.87 61.20 264.80 58.47 266.43 C 55.62 268.21 55.70 271.99 54.71 274.86 C 52.20 283.57 51.66 292.68 52.08 301.69 C 46.66 301.48 40.91 303.82 35.80 301.20 C 33.16 299.78 33.22 296.49 32.59 293.96 C 36.52 291.76 38.65 287.38 42.63 285.39 L 43.21 285.32 C 40.91 283.01 38.67 280.47 37.72 277.29 C 35.94 271.97 36.97 266.31 37.97 260.95 C 40.60 260.39 43.24 259.70 45.62 258.39 C 51.15 255.46 57.02 252.94 61.74 248.74 Z"
     id="path200" />
  <path
     fill="#d49758"
     d=" M 68.63 257.62 C 73.41 254.48 79.45 254.49 84.97 254.32 C 87.20 254.09 88.99 255.39 90.63 256.71 C 89.93 259.49 89.28 262.29 88.81 265.12 L 88.53 265.02 C 81.31 262.53 73.17 260.66 65.66 262.84 C 65.26 263.06 64.48 263.51 64.09 263.73 C 70.05 270.26 79.61 267.13 87.32 268.53 C 87.35 270.02 87.34 271.51 87.32 273.01 C 87.01 275.82 85.50 278.31 85.01 281.08 C 81.77 278.63 78.56 276.15 75.58 273.39 C 73.14 270.84 69.49 270.42 66.36 269.19 C 62.79 271.29 59.28 273.51 56.00 276.05 C 58.94 269.19 62.69 262.34 68.63 257.62 Z"
     id="path202" />
  <path
     fill="#652900"
     d=" M 165.04 256.34 C 166.90 259.18 166.34 262.86 167.44 266.01 C 167.11 266.01 166.46 266.02 166.13 266.03 C 165.41 262.85 164.81 259.61 165.04 256.34 Z"
     id="path204" />
  <path
     fill="#b2b2b2"
     d=" M 91.26 257.36 C 94.66 259.89 98.73 260.65 102.88 259.92 C 103.05 260.31 103.39 261.08 103.56 261.47 L 103.53 261.54 L 103.50 261.62 L 101.60 261.49 L 102.34 264.07 C 101.92 264.12 101.06 264.20 100.63 264.24 L 101.33 260.63 C 100.17 262.40 98.77 264.58 99.20 266.79 C 99.47 266.38 100.02 265.55 100.29 265.14 C 100.64 265.46 100.99 265.79 101.33 266.13 C 100.72 267.46 100.15 268.80 99.61 270.16 C 99.41 269.88 99.01 269.33 98.81 269.05 L 98.34 269.23 L 97.86 269.76 C 95.41 270.17 93.11 269.01 90.78 268.48 L 91.56 266.30 C 90.67 266.87 89.79 267.47 88.92 268.09 C 89.80 265.65 89.99 263.02 91.06 260.65 C 91.11 262.69 90.59 264.95 91.84 266.77 C 91.99 264.53 92.22 262.33 92.68 260.14 C 92.22 260.25 91.31 260.48 90.85 260.59 C 90.95 259.78 91.15 258.17 91.26 257.36 Z"
     id="path206" />
  <path
     fill="#bb743c"
     d=" M 104.76 259.60 C 110.09 258.14 115.58 261.55 119.20 265.25 C 111.80 271.24 111.73 281.49 109.91 290.05 C 108.15 297.53 107.45 305.66 103.15 312.21 C 99.31 314.84 94.23 313.98 89.83 313.83 C 81.21 312.74 72.57 311.44 64.19 309.10 C 65.50 307.70 66.82 306.31 68.11 304.90 C 69.14 304.77 70.17 304.64 71.21 304.52 C 73.22 305.41 75.25 306.30 77.27 307.19 C 77.30 307.62 77.37 308.49 77.41 308.92 C 84.34 308.86 91.16 310.34 98.05 310.99 C 101.35 311.21 103.14 307.79 103.71 305.01 C 104.46 300.00 104.17 294.88 103.36 289.90 C 102.47 284.58 104.18 279.31 105.49 274.21 C 104.34 274.14 103.20 274.08 102.06 274.02 L 102.02 275.05 L 101.57 274.78 C 97.85 271.83 92.94 273.07 88.61 273.38 C 88.76 272.03 88.88 270.68 88.96 269.33 C 88.38 270.54 87.85 271.77 87.32 273.01 C 87.34 271.51 87.35 270.02 87.32 268.53 C 93.43 270.27 99.95 272.69 106.25 270.32 C 109.06 269.38 110.23 266.54 111.20 264.00 C 110.75 264.38 109.87 265.14 109.42 265.52 C 107.88 263.53 106.37 261.53 104.76 259.60 Z"
     id="path208" />
  <path
     fill="#d49657"
     d=" M 103.56 261.47 C 103.86 261.00 104.46 260.07 104.76 259.60 C 106.37 261.53 107.88 263.53 109.42 265.52 C 107.97 268.97 104.30 270.18 100.81 270.16 C 101.76 267.33 102.64 264.48 103.50 261.62 L 103.53 261.54 L 103.56 261.47 Z"
     id="path210" />
  <path
     fill="#b7815d"
     d=" M 33.19 261.71 C 34.78 261.42 36.37 261.15 37.97 260.95 C 36.97 266.31 35.94 271.97 37.72 277.29 C 38.67 280.47 40.91 283.01 43.21 285.32 L 42.63 285.39 C 40.88 285.15 39.59 286.16 38.49 287.39 C 34.49 285.33 30.09 282.65 28.98 277.93 C 27.11 272.13 31.03 266.81 33.19 261.71 Z"
     id="path212" />
  <path
     fill="#bb743c"
     d=" M 65.66 262.84 C 73.17 260.66 81.31 262.53 88.53 265.02 C 88.58 265.67 88.69 266.97 88.74 267.61 C 81.99 266.24 74.84 268.18 68.32 265.66 C 66.89 265.34 66.23 264.04 65.66 262.84 Z"
     id="path214" />
  <path
     fill="#cb946b"
     d=" M 148.28 264.66 C 153.75 267.88 159.56 270.45 165.56 272.50 L 165.04 272.51 C 160.67 272.85 156.35 271.99 151.99 271.93 C 149.20 272.61 149.31 276.59 150.44 278.65 C 154.59 285.02 163.07 285.55 168.54 290.19 L 168.08 290.30 C 163.39 289.65 158.99 287.58 154.97 285.15 C 151.24 282.42 146.65 279.75 145.58 274.87 C 144.43 271.24 146.47 267.68 148.28 264.66 Z"
     id="path216" />
  <path
     fill="#020051"
     d=" M 119.57 266.26 C 123.50 265.94 127.64 265.41 131.44 266.77 C 127.52 266.94 123.31 267.78 119.57 266.26 Z"
     id="path218" />
  <path
     fill="#00296f"
     d=" M 57.30 269.21 C 57.79 269.75 57.79 269.75 57.30 269.21 Z"
     id="path220" />
  <path
     fill="#024697"
     d=" M 112.56 281.16 C 113.42 276.56 114.81 271.95 117.72 268.22 C 126.82 269.11 136.00 269.11 145.11 268.31 C 144.82 269.24 144.25 271.11 143.96 272.04 C 136.60 272.57 129.22 272.29 121.86 272.04 C 117.77 277.88 116.87 285.06 115.68 291.90 C 114.06 300.20 112.71 308.70 108.91 316.34 C 115.07 323.82 121.95 331.78 131.70 334.35 C 142.71 337.07 154.15 335.37 165.24 334.05 C 164.07 334.80 162.92 335.58 161.70 336.26 C 157.72 335.84 153.97 337.57 150.05 337.82 C 146.68 338.05 143.30 338.03 139.94 338.40 C 135.43 339.19 131.10 337.28 126.87 336.00 C 122.95 334.45 118.62 333.19 115.68 329.99 C 113.66 327.83 111.36 325.95 108.69 324.67 C 108.28 322.39 107.79 320.13 107.30 317.86 C 93.09 320.22 79.06 315.62 65.25 313.02 C 64.09 312.67 62.93 312.33 61.77 311.99 C 62.83 312.86 63.89 313.76 65.00 314.58 C 62.74 319.54 59.91 324.44 59.29 329.95 C 58.68 335.01 61.02 339.69 62.63 344.33 C 64.51 349.56 64.09 355.67 67.84 360.13 C 64.81 359.07 62.87 356.49 61.09 353.98 C 57.93 349.72 53.71 346.09 51.79 341.03 C 50.45 335.70 52.70 330.37 54.45 325.41 C 56.71 320.02 58.44 314.04 63.12 310.18 C 70.30 312.42 77.78 313.49 85.19 314.67 C 90.62 315.23 96.26 316.03 101.62 314.58 C 104.61 313.63 105.67 310.38 106.71 307.75 C 109.58 299.12 110.92 290.08 112.56 281.16 Z"
     id="path222" />
  <path
     fill="#666666"
     d=" M 53.78 281.59 C 55.69 276.19 61.16 273.70 65.66 270.84 C 71.05 276.81 77.98 281.01 84.58 285.48 C 87.02 286.65 86.60 289.66 87.35 291.84 C 88.36 296.30 91.23 299.97 93.11 304.05 C 91.82 305.67 90.15 306.92 88.55 308.21 C 77.99 298.16 67.05 287.94 53.78 281.59 Z"
     id="path224" />
  <path
     fill="#838383"
     d=" M 67.49 270.84 C 69.81 271.58 72.38 272.06 74.20 273.81 C 79.20 278.19 84.55 282.15 89.77 286.25 C 90.71 292.55 92.52 298.70 95.71 304.25 C 91.22 299.73 87.91 293.34 88.12 286.85 C 81.42 281.29 73.19 277.58 67.49 270.84 Z"
     id="path226" />
  <path
     fill="#0060b6"
     d=" M 121.86 272.04 C 129.22 272.29 136.60 272.57 143.96 272.04 C 144.32 277.33 147.82 281.56 152.11 284.35 C 151.67 286.40 151.34 288.67 152.65 290.50 C 156.56 296.42 162.93 299.99 168.95 303.41 L 169.16 303.94 C 169.32 307.56 168.70 311.68 171.20 314.71 C 173.52 317.36 176.86 318.86 180.12 320.00 C 185.82 321.95 191.90 320.72 197.70 320.05 C 190.72 325.77 181.58 327.89 174.83 333.98 C 177.50 333.60 180.18 333.30 182.84 332.86 C 187.67 336.42 186.59 342.72 187.33 347.93 C 188.11 354.04 188.89 360.14 189.50 366.26 C 185.32 368.24 180.92 369.74 176.36 370.57 C 181.76 371.74 187.31 371.35 192.78 371.75 C 196.26 371.99 197.05 376.20 197.01 379.01 C 197.31 384.04 194.78 388.57 191.99 392.55 C 187.02 393.35 182.75 396.02 178.37 398.26 C 167.95 398.66 157.30 400.43 147.03 397.79 C 144.05 396.95 140.48 395.69 139.48 392.41 C 138.02 387.60 139.16 382.50 141.09 378.00 C 144.48 377.94 147.87 377.76 151.26 377.81 C 156.87 379.46 162.63 381.49 168.56 380.51 C 175.50 379.33 184.14 379.26 188.66 372.97 C 184.26 375.48 179.49 377.31 174.48 378.13 C 168.19 376.90 162.06 374.99 155.94 373.12 C 152.94 372.12 149.63 370.96 147.88 368.13 C 145.32 363.98 144.76 359.03 144.16 354.30 C 145.07 354.50 145.99 354.72 146.90 354.94 C 147.22 355.21 147.86 355.76 148.17 356.03 C 149.69 357.41 151.69 357.97 153.60 358.59 C 150.87 352.97 146.62 347.96 146.06 341.49 C 148.73 340.79 151.38 339.97 153.99 339.06 C 156.59 338.22 159.20 337.37 161.70 336.26 C 162.92 335.58 164.07 334.80 165.24 334.05 C 154.15 335.37 142.71 337.07 131.70 334.35 C 121.95 331.78 115.07 323.82 108.91 316.34 C 112.71 308.70 114.06 300.20 115.68 291.90 C 116.87 285.06 117.77 277.88 121.86 272.04 Z"
     id="path228" />
  <path
     fill="#d49758"
     d=" M 88.61 273.38 C 92.94 273.07 97.85 271.83 101.57 274.78 C 98.54 281.06 96.71 287.95 96.36 294.92 C 96.26 295.89 96.60 296.70 97.36 297.36 C 97.57 289.39 99.49 281.56 103.05 274.43 C 103.43 274.97 103.81 275.51 104.17 276.06 C 99.63 285.13 104.24 295.13 102.59 304.62 C 102.11 306.65 101.32 309.27 98.96 309.75 C 96.79 309.91 94.63 309.49 92.48 309.25 C 94.25 307.41 95.97 305.50 97.19 303.24 C 93.35 299.00 92.38 293.21 91.26 287.81 C 90.96 284.84 87.96 283.45 85.73 282.07 C 87.68 279.58 87.67 276.28 88.61 273.38 Z"
     id="path230" />
  <path
     fill="#c98c60"
     d=" M 216.73 276.74 C 216.04 277.03 216.04 277.03 216.73 276.74 Z"
     id="path232" />
  <path
     fill="#652900"
     d=" M 172.27 287.43 C 169.84 285.90 168.24 281.73 170.36 279.44 C 170.62 282.18 171.24 284.87 172.27 287.43 Z"
     id="path234" />
  <path
     fill="#d49758"
     d=" M 54.14 282.78 C 58.30 285.03 62.51 287.30 66.16 290.34 C 65.90 293.53 63.37 290.41 62.09 289.70 C 60.73 290.89 59.31 292.05 58.17 293.46 C 57.19 295.47 58.55 297.35 59.61 298.97 C 58.81 299.88 58.02 300.80 57.22 301.72 C 55.83 300.44 54.44 299.17 53.04 297.91 C 52.71 292.83 53.24 287.77 54.14 282.78 Z"
     id="path236" />
  <path
     fill="#cc956c"
     d=" M 153.71 290.25 C 152.47 288.74 152.78 286.76 152.95 284.98 C 158.72 288.57 165.15 291.21 171.89 292.24 C 176.38 292.72 180.82 291.59 185.25 291.06 C 185.25 291.43 185.25 292.17 185.25 292.54 C 184.10 294.10 180.67 295.91 183.33 297.71 C 189.50 301.29 196.53 298.41 203.07 297.92 C 198.18 301.67 191.99 303.23 186.00 304.13 C 180.05 305.00 173.61 304.83 168.24 301.84 C 162.81 298.87 157.30 295.42 153.71 290.25 Z"
     id="path238" />
  <path
     fill="#014697"
     d=" M 210.03 291.02 C 211.32 290.61 212.60 290.21 213.88 289.81 C 211.92 297.73 212.60 306.31 208.70 313.70 C 205.79 319.21 201.34 324.21 195.55 326.75 C 191.29 328.75 187.55 331.93 182.84 332.86 C 180.18 333.30 177.50 333.60 174.83 333.98 C 181.58 327.89 190.72 325.77 197.70 320.05 C 200.00 319.09 202.23 317.88 203.82 315.91 C 202.66 316.37 201.51 316.85 200.37 317.34 C 203.66 309.84 207.27 302.37 208.94 294.29 C 209.24 293.18 209.65 292.10 210.03 291.02 Z"
     id="path240" />
  <path
     fill="#d49758"
     d=" M 59.01 294.10 C 59.96 292.86 61.19 291.89 62.36 290.89 C 64.75 293.12 67.52 294.86 70.38 296.39 C 68.56 298.22 66.71 300.08 65.52 302.41 C 63.03 300.07 58.45 298.11 59.01 294.10 Z"
     id="path242" />
  <path
     fill="#e4b417"
     d=" M 65.62 292.36 C 66.10 292.06 67.07 291.47 67.56 291.17 C 69.68 292.70 71.70 294.39 73.41 296.37 C 70.53 295.66 68.10 293.89 65.62 292.36 Z"
     id="path244" />
  <path
     fill="#b7815d"
     d=" M 31.11 309.93 C 26.79 305.59 28.30 297.87 32.59 293.96 C 33.22 296.49 33.16 299.78 35.80 301.20 C 40.91 303.82 46.66 301.48 52.08 301.69 L 53.64 301.67 C 53.49 300.73 53.19 298.85 53.04 297.91 C 54.44 299.17 55.83 300.44 57.22 301.72 C 56.26 302.70 55.31 303.68 54.36 304.68 C 54.06 303.94 53.46 302.45 53.16 301.71 C 52.78 305.09 49.15 305.39 46.67 306.51 C 41.65 308.19 36.53 310.64 31.11 309.93 Z"
     id="path246" />
  <path
     fill="#562d13"
     d=" M 172.92 295.00 L 173.89 295.00 C 173.43 298.28 175.33 300.86 177.20 303.31 C 173.61 302.26 172.50 298.34 172.92 295.00 Z"
     id="path248" />
  <path
     fill="#0060b6"
     d=" M 179.87 305.83 C 190.37 305.08 201.74 302.61 208.94 294.29 C 207.27 302.37 203.66 309.84 200.37 317.34 C 195.82 319.33 190.76 319.92 185.84 319.94 C 180.87 317.03 180.58 310.90 179.87 305.83 Z"
     id="path250" />
  <path
     fill="#d69c0a"
     d=" M 73.41 296.37 C 73.91 296.92 73.91 296.92 73.41 296.37 Z"
     id="path252" />
  <path
     fill="#ba743b"
     d=" M 65.52 302.41 C 66.71 300.08 68.56 298.22 70.38 296.39 C 72.04 297.34 73.70 298.32 75.35 299.30 C 73.82 300.85 72.43 302.58 70.57 303.76 C 68.76 304.82 67.00 303.08 65.16 303.05 L 65.52 302.41 Z"
     id="path254" />
  <path
     fill="#d49758"
     d=" M 77.39 299.03 C 80.80 302.35 84.29 305.59 87.83 308.77 C 84.34 308.02 80.70 308.20 77.27 307.19 C 75.25 306.30 73.22 305.41 71.21 304.52 C 73.27 302.69 75.25 300.77 77.39 299.03 Z"
     id="path256" />
  <path
     fill="#e7b119"
     d=" M 60.52 299.68 C 61.96 300.84 63.39 302.02 64.80 303.23 C 57.41 311.18 49.40 318.52 40.91 325.29 C 37.33 328.41 33.41 331.14 30.13 334.58 C 32.63 334.22 34.30 332.27 36.13 330.77 C 41.15 326.58 46.18 322.40 51.22 318.23 C 56.32 313.89 60.68 308.77 65.59 304.25 C 65.91 304.24 66.55 304.21 66.87 304.19 C 65.01 307.31 61.97 309.68 59.53 312.39 C 50.72 320.81 42.76 330.48 31.96 336.46 C 28.64 335.96 26.14 333.67 25.60 330.33 C 38.16 321.23 50.16 311.26 60.52 299.68 Z"
     id="path258" />
  <path
     fill="#02145f"
     d=" M 169.16 303.94 C 169.76 303.93 170.97 303.91 171.57 303.90 L 171.40 304.60 C 170.63 307.59 170.00 311.28 172.20 313.85 C 175.67 317.67 180.91 319.12 185.84 319.94 C 190.76 319.92 195.82 319.33 200.37 317.34 C 201.51 316.85 202.66 316.37 203.82 315.91 C 202.23 317.88 200.00 319.09 197.70 320.05 C 191.90 320.72 185.82 321.95 180.12 320.00 C 176.86 318.86 173.52 317.36 171.20 314.71 C 168.70 311.68 169.32 307.56 169.16 303.94 Z"
     id="path260" />
  <path
     fill="#024697"
     d=" M 172.20 313.85 C 170.00 311.28 170.63 307.59 171.40 304.60 C 174.22 305.03 177.05 305.42 179.87 305.83 C 180.58 310.90 180.87 317.03 185.84 319.94 C 180.91 319.12 175.67 317.67 172.20 313.85 Z"
     id="path262" />
  <path
     fill="#02155d"
     d=" M 61.77 311.99 C 62.93 312.33 64.09 312.67 65.25 313.02 C 68.46 314.53 71.87 315.75 74.62 318.06 C 71.33 317.16 68.11 315.98 65.00 314.58 C 63.89 313.76 62.83 312.86 61.77 311.99 Z"
     id="path264" />
  <path
     fill="#0060b6"
     d=" M 65.25 313.02 C 79.06 315.62 93.09 320.22 107.30 317.86 C 107.79 320.13 108.28 322.39 108.69 324.67 L 108.98 326.39 C 106.07 324.43 103.14 322.48 100.06 320.80 C 100.48 325.99 103.22 330.58 107.70 333.28 C 105.86 336.07 104.49 339.13 103.67 342.37 C 103.20 342.38 102.26 342.41 101.79 342.42 C 99.71 342.36 97.65 342.63 95.65 343.16 C 98.01 344.54 100.42 345.85 102.83 347.15 C 102.57 350.26 101.23 353.88 103.26 356.67 C 104.65 358.84 107.42 358.90 109.70 359.23 L 110.77 359.36 C 111.63 358.37 112.50 357.39 113.38 356.42 L 113.73 356.91 C 115.53 359.55 118.27 362.47 117.09 365.95 C 115.73 369.65 113.21 372.78 111.12 376.09 C 108.29 380.57 104.05 384.34 98.86 385.78 C 95.24 386.74 91.55 385.52 87.98 384.90 C 80.05 383.23 71.85 383.78 63.90 382.31 C 60.11 381.54 55.30 379.58 55.09 375.07 C 55.21 370.52 57.32 366.24 59.49 362.33 C 62.03 360.75 65.27 361.68 68.07 361.91 C 77.23 365.79 87.54 367.79 97.34 365.33 C 99.94 364.72 101.92 362.86 103.52 360.82 C 99.82 362.40 96.23 364.67 92.08 364.73 C 83.74 365.45 75.45 363.44 67.84 360.13 C 64.09 355.67 64.51 349.56 62.63 344.33 C 61.02 339.69 58.68 335.01 59.29 329.95 C 59.91 324.44 62.74 319.54 65.00 314.58 C 68.11 315.98 71.33 317.16 74.62 318.06 C 71.87 315.75 68.46 314.53 65.25 313.02 Z"
     id="path266" />
  <path
     fill="#014696"
     d=" M 100.06 320.80 C 103.14 322.48 106.07 324.43 108.98 326.39 L 108.69 324.67 C 111.36 325.95 113.66 327.83 115.68 329.99 C 113.30 334.23 111.34 338.77 108.02 342.41 C 106.57 342.40 105.12 342.38 103.67 342.37 C 104.49 339.13 105.86 336.07 107.70 333.28 C 103.22 330.58 100.48 325.99 100.06 320.80 Z"
     id="path268" />
  <path
     fill="#024697"
     d=" M 182.84 332.86 C 187.55 331.93 191.29 328.75 195.55 326.75 C 193.23 333.55 192.42 340.80 192.76 347.96 C 193.05 354.26 194.74 360.40 195.12 366.70 C 197.41 366.26 200.50 365.63 201.81 368.19 C 204.38 375.54 205.74 384.16 202.11 391.40 C 198.72 391.64 195.35 392.04 191.99 392.55 C 194.78 388.57 197.31 384.04 197.01 379.01 C 197.05 376.20 196.26 371.99 192.78 371.75 C 187.31 371.35 181.76 371.74 176.36 370.57 C 180.92 369.74 185.32 368.24 189.50 366.26 C 188.89 360.14 188.11 354.04 187.33 347.93 C 186.59 342.72 187.67 336.42 182.84 332.86 Z"
     id="path270" />
  <path
     d=" M 108.69 344.19 C 111.68 340.80 114.26 337.09 116.24 333.01 C 123.35 337.39 131.55 339.78 139.76 341.09 C 140.05 344.32 141.71 347.14 142.99 350.05 C 139.66 353.90 141.10 359.23 142.14 363.69 C 137.60 364.35 133.33 368.12 133.23 372.90 C 132.90 379.43 131.69 386.53 134.90 392.57 C 135.29 395.17 133.81 397.10 131.96 398.71 C 131.95 394.51 130.25 390.36 126.42 388.30 C 125.96 383.46 124.27 378.89 122.52 374.39 C 125.01 369.56 129.30 363.58 125.88 358.17 C 122.97 353.71 118.35 347.83 112.29 350.06 C 110.79 348.33 108.89 346.64 108.69 344.19 Z"
     id="path272"
     fill="#ffffff" />
  <path
     fill="#020f53"
     d=" M 150.05 337.82 C 153.97 337.57 157.72 335.84 161.70 336.26 C 159.20 337.37 156.59 338.22 153.99 339.06 C 149.83 339.19 145.68 339.13 141.52 339.20 C 143.15 345.49 145.37 351.97 150.41 356.38 C 149.85 356.29 148.73 356.12 148.17 356.03 C 147.86 355.76 147.22 355.21 146.90 354.94 C 146.02 353.71 145.21 352.44 144.46 351.15 C 142.91 346.92 141.69 342.56 139.94 338.40 C 143.30 338.03 146.68 338.05 150.05 337.82 Z"
     id="path274" />
  <path
     fill="#014697"
     d=" M 141.52 339.20 C 145.68 339.13 149.83 339.19 153.99 339.06 C 151.38 339.97 148.73 340.79 146.06 341.49 C 146.62 347.96 150.87 352.97 153.60 358.59 C 151.69 357.97 149.69 357.41 148.17 356.03 C 148.73 356.12 149.85 356.29 150.41 356.38 C 145.37 351.97 143.15 345.49 141.52 339.20 Z"
     id="path276" />
  <path
     fill="#024696"
     d=" M 95.65 343.16 C 97.65 342.63 99.71 342.36 101.79 342.42 L 101.83 342.42 C 101.30 342.81 100.25 343.58 99.72 343.97 C 101.94 343.56 104.16 343.18 106.39 342.87 C 106.53 347.31 109.39 350.88 113.18 352.94 C 113.13 353.67 113.02 355.14 112.96 355.87 C 111.87 356.98 110.78 358.10 109.70 359.23 C 107.42 358.90 104.65 358.84 103.26 356.67 C 101.23 353.88 102.57 350.26 102.83 347.15 C 100.42 345.85 98.01 344.54 95.65 343.16 Z"
     id="path278" />
  <path
     fill="#024697"
     d=" M 115.00 350.95 C 119.78 353.31 124.49 357.56 125.20 363.07 C 123.23 372.53 116.72 380.16 110.40 387.14 L 110.34 387.19 L 109.43 387.90 C 103.61 391.41 96.93 394.48 89.96 393.19 C 79.36 392.37 68.99 389.73 59.10 385.87 C 55.71 384.56 51.21 383.28 50.65 379.03 C 49.99 372.56 53.21 366.52 55.80 360.79 C 56.65 358.53 58.81 357.32 61.06 356.86 C 63.19 358.81 65.46 360.64 68.07 361.91 C 65.27 361.68 62.03 360.75 59.49 362.33 C 57.32 366.24 55.21 370.52 55.09 375.07 C 55.30 379.58 60.11 381.54 63.90 382.31 C 71.85 383.78 80.05 383.23 87.98 384.90 C 91.55 385.52 95.24 386.74 98.86 385.78 C 104.05 384.34 108.29 380.57 111.12 376.09 C 113.21 372.78 115.73 369.65 117.09 365.95 C 118.27 362.47 115.53 359.55 113.73 356.91 C 113.05 354.82 113.97 352.73 115.00 350.95 Z"
     id="path280" />
  <path
     fill="#014696"
     d=" M 144.46 351.15 C 145.21 352.44 146.02 353.71 146.90 354.94 C 145.99 354.72 145.07 354.50 144.16 354.30 C 144.76 359.03 145.32 363.98 147.88 368.13 C 149.63 370.96 152.94 372.12 155.94 373.12 C 162.06 374.99 168.19 376.90 174.48 378.13 C 165.16 380.53 154.53 379.27 146.81 373.25 C 144.10 371.41 143.73 368.05 143.71 365.04 C 143.91 360.36 141.09 355.26 144.46 351.15 Z"
     id="path282" />
  <path
     fill="#020f57"
     d=" M 61.09 353.98 C 62.87 356.49 64.81 359.07 67.84 360.13 C 75.45 363.44 83.74 365.45 92.08 364.73 C 96.23 364.67 99.82 362.40 103.52 360.82 C 101.92 362.86 99.94 364.72 97.34 365.33 C 87.54 367.79 77.23 365.79 68.07 361.91 C 65.46 360.64 63.19 358.81 61.06 356.86 C 61.07 356.14 61.09 354.70 61.09 353.98 Z"
     id="path284" />
  <path
     fill="#021560"
     d=" M 141.76 365.72 C 142.25 365.55 143.22 365.21 143.71 365.04 C 143.73 368.05 144.10 371.41 146.81 373.25 C 154.53 379.27 165.16 380.53 174.48 378.13 C 179.49 377.31 184.26 375.48 188.66 372.97 C 184.14 379.26 175.50 379.33 168.56 380.51 C 162.63 381.49 156.87 379.46 151.26 377.81 C 148.75 376.35 146.18 374.82 144.28 372.58 C 142.79 370.59 142.46 368.04 141.76 365.72 Z"
     id="path286" />
  <path
     fill="#024697"
     d=" M 135.30 371.87 C 135.78 368.65 138.89 366.66 141.76 365.72 C 142.46 368.04 142.79 370.59 144.28 372.58 C 146.18 374.82 148.75 376.35 151.26 377.81 C 147.87 377.76 144.48 377.94 141.09 378.00 C 139.16 382.50 138.02 387.60 139.48 392.41 C 140.48 395.69 144.05 396.95 147.03 397.79 C 157.30 400.43 167.95 398.66 178.37 398.26 C 175.55 400.36 172.79 402.56 169.80 404.42 C 162.93 405.35 155.90 404.06 149.36 401.91 C 142.87 399.53 136.51 394.68 135.01 387.60 C 133.92 382.42 134.54 377.05 135.30 371.87 Z"
     id="path288" />
  <path
     fill="#652a00"
     d=" M 110.40 387.14 C 114.74 384.46 117.38 380.01 120.68 376.27 C 122.83 382.13 125.46 388.48 123.63 394.79 C 121.90 398.70 119.18 402.30 115.44 404.47 C 113.10 405.85 111.18 407.79 109.57 409.95 L 109.53 409.67 C 109.19 406.10 107.88 402.71 107.45 399.17 C 107.50 394.97 110.94 391.46 110.34 387.19 L 110.40 387.14 Z"
     id="path290" />
  <path
     fill="#8c4201"
     d=" M 109.43 387.90 L 110.34 387.19 C 110.94 391.46 107.50 394.97 107.45 399.17 C 107.88 402.71 109.19 406.10 109.53 409.67 C 109.17 411.45 107.99 412.88 106.82 414.20 L 107.19 412.48 C 102.63 417.81 97.83 423.88 90.48 425.19 C 90.85 425.44 91.59 425.94 91.95 426.19 C 91.29 427.66 89.52 427.57 88.16 427.70 L 88.85 427.27 C 88.86 426.94 88.89 426.29 88.90 425.97 C 86.94 426.54 84.70 426.64 83.01 427.87 C 84.34 428.14 85.68 428.17 87.04 427.96 L 86.90 428.60 C 82.76 429.44 78.57 430.04 74.35 430.25 L 74.24 431.53 C 81.01 430.92 87.92 430.06 94.14 427.13 C 97.43 425.66 100.18 423.29 103.22 421.39 C 100.03 428.29 92.62 432.32 85.35 433.45 C 75.66 435.04 65.82 435.56 56.01 435.77 C 45.93 436.03 35.80 433.74 26.93 428.92 C 25.55 430.44 24.16 431.95 22.84 433.53 C 22.98 429.95 26.63 425.32 30.42 427.49 C 44.06 433.25 59.23 432.00 73.68 431.82 L 73.74 430.47 C 61.13 431.47 48.22 431.55 35.88 428.39 C 33.43 427.51 30.03 427.22 29.35 424.16 C 41.90 429.26 55.63 429.81 69.00 429.24 C 73.00 428.91 77.28 429.66 81.08 428.27 C 77.09 427.56 73.02 428.33 68.99 428.28 C 55.79 428.86 42.22 428.33 29.83 423.28 C 30.43 418.93 30.78 414.45 32.48 410.35 C 33.99 406.56 36.55 403.33 38.48 399.77 C 43.40 401.71 48.72 401.03 53.83 400.48 C 58.18 399.97 62.60 401.06 66.91 400.16 C 68.54 400.11 68.88 398.38 69.43 397.21 C 77.97 398.82 84.98 404.07 92.91 407.24 C 93.75 407.74 94.55 408.32 95.37 408.88 C 92.39 403.16 86.41 399.91 80.95 396.94 C 75.91 394.13 70.22 392.82 65.15 390.11 C 71.60 389.34 77.60 392.71 84.01 392.99 C 92.67 394.49 102.71 394.42 109.43 387.90 Z"
     id="path292" />
  <path
     fill="#b3570e"
     d=" M 48.99 390.57 C 53.28 389.76 57.82 389.48 62.05 390.78 C 69.65 393.07 77.22 395.79 84.02 399.96 C 87.28 401.98 90.68 404.02 92.91 407.24 C 84.98 404.07 77.97 398.82 69.43 397.21 C 62.10 393.00 53.10 392.61 44.93 393.89 C 41.58 394.16 39.69 396.95 38.48 399.77 C 36.55 403.33 33.99 406.56 32.48 410.35 C 30.78 414.45 30.43 418.93 29.83 423.28 L 28.55 422.80 L 28.19 422.64 C 27.65 414.40 28.00 405.13 33.64 398.53 C 37.36 393.82 43.29 391.68 48.99 390.57 Z"
     id="path294" />
  <path
     fill="#e4bd96"
     d=" M 44.93 393.89 C 53.10 392.61 62.10 393.00 69.43 397.21 C 68.88 398.38 68.54 400.11 66.91 400.16 C 62.60 401.06 58.18 399.97 53.83 400.48 C 48.72 401.03 43.40 401.71 38.48 399.77 C 39.69 396.95 41.58 394.16 44.93 393.89 Z"
     id="path296" />
  <path
     fill="#652a00"
     d=" M 125.52 393.26 C 126.72 392.02 128.30 392.81 128.73 394.29 C 129.44 396.20 130.45 398.45 129.47 400.45 C 127.02 405.81 123.45 410.60 119.41 414.87 C 118.84 414.45 117.71 413.62 117.14 413.21 C 114.64 417.05 112.62 421.29 109.15 424.41 C 99.51 434.39 88.23 444.57 73.88 446.30 C 56.68 449.24 37.91 448.84 22.49 439.78 C 22.53 437.69 22.49 435.58 22.84 433.53 C 24.16 431.95 25.55 430.44 26.93 428.92 C 35.80 433.74 45.93 436.03 56.01 435.77 C 65.82 435.56 75.66 435.04 85.35 433.45 C 92.62 432.32 100.03 428.29 103.22 421.39 C 104.18 419.77 105.62 418.52 106.74 417.02 C 108.86 414.28 109.89 410.84 112.18 408.22 C 114.44 405.70 117.85 404.60 120.07 402.04 C 122.48 399.51 123.82 396.25 125.52 393.26 Z"
     id="path298" />
  <path
     fill="#b3570e"
     d=" M 184.01 397.00 C 192.87 392.61 203.35 391.30 212.85 394.29 C 218.40 396.03 222.34 401.31 223.21 406.96 C 223.92 411.39 224.69 416.07 223.38 420.46 L 221.73 420.44 C 221.59 416.46 221.70 412.38 220.48 408.54 C 219.40 405.15 216.72 402.68 214.82 399.78 C 213.50 396.04 209.63 394.69 205.95 395.02 C 198.95 395.53 191.62 396.39 185.54 400.19 C 182.47 401.57 179.23 402.59 176.31 404.28 C 173.01 406.08 170.14 408.56 166.76 410.20 C 166.44 410.30 165.80 410.50 165.48 410.61 C 170.01 404.22 177.17 400.44 184.01 397.00 Z"
     id="path300" />
  <path
     fill="#652a00"
     d=" M 136.91 393.94 C 141.07 398.55 146.47 402.05 152.60 403.34 L 152.56 403.55 C 151.84 406.72 151.08 409.90 150.60 413.12 C 146.53 410.01 141.30 408.12 138.67 403.44 C 136.49 400.76 136.82 397.16 136.91 393.94 Z"
     id="path302" />
  <path
     fill="#e4bd96"
     d=" M 185.54 400.19 C 191.62 396.39 198.95 395.53 205.95 395.02 C 209.63 394.69 213.50 396.04 214.82 399.78 C 211.05 401.27 207.04 402.13 202.96 402.01 C 197.95 401.82 193.02 403.25 188.02 402.92 C 186.47 402.96 186.00 401.31 185.54 400.19 Z"
     id="path304" />
  <path
     fill="#652a00"
     d=" M 134.13 399.98 C 135.59 399.46 136.08 401.41 136.85 402.22 C 138.64 405.00 140.45 407.98 143.45 409.59 C 146.36 411.18 149.30 412.99 150.87 416.04 C 152.57 419.28 155.46 421.57 157.72 424.36 C 161.05 429.87 167.54 433.30 173.98 432.90 C 182.28 432.65 190.35 430.38 198.59 429.49 C 206.15 428.66 213.47 426.23 221.07 425.79 C 223.44 425.55 225.48 426.95 227.53 427.90 C 227.47 430.85 227.51 433.80 227.50 436.76 C 216.42 439.05 205.37 442.22 193.96 442.20 C 186.92 442.17 179.75 442.24 172.93 440.31 C 165.11 438.01 158.75 432.61 152.75 427.34 C 149.42 424.48 146.86 420.91 144.41 417.31 C 143.73 417.91 143.06 418.52 142.38 419.13 C 139.03 415.54 135.44 412.02 133.27 407.55 C 132.00 405.20 132.41 401.99 134.13 399.98 Z"
     id="path306" />
  <path
     fill="#8c4201"
     d=" M 176.31 404.28 C 179.23 402.59 182.47 401.57 185.54 400.19 C 186.00 401.31 186.47 402.96 188.02 402.92 C 193.02 403.25 197.95 401.82 202.96 402.01 C 207.04 402.13 211.05 401.27 214.82 399.78 C 216.72 402.68 219.40 405.15 220.48 408.54 C 221.70 412.38 221.59 416.46 221.73 420.44 C 208.87 419.95 196.05 422.10 183.74 425.73 C 179.33 427.12 174.67 427.14 170.10 427.01 L 170.20 428.06 C 174.10 428.07 178.00 427.83 181.89 427.48 C 180.89 429.23 178.64 428.79 176.99 429.05 C 173.37 429.32 169.75 428.68 166.35 427.45 L 167.43 427.39 L 169.70 427.28 C 163.89 425.22 158.15 422.34 154.50 417.17 C 154.03 417.01 153.09 416.70 152.62 416.54 L 152.07 416.35 C 151.48 415.31 150.99 414.24 150.60 413.12 C 151.08 409.90 151.84 406.72 152.56 403.55 C 157.86 404.75 163.29 405.31 168.72 405.08 C 166.63 407.29 164.55 409.56 163.06 412.25 C 163.84 411.72 164.61 411.18 165.37 410.64 L 165.48 410.61 C 165.80 410.50 166.44 410.30 166.76 410.20 C 170.14 408.56 173.01 406.08 176.31 404.28 Z"
     id="path308" />
  <path
     fill="#a04c03"
     d=" M 119.76 416.13 C 123.46 412.54 126.12 408.12 129.29 404.10 C 127.71 410.18 122.95 414.74 118.66 419.06 C 118.26 418.76 117.47 418.17 117.07 417.88 C 117.10 417.18 117.16 415.78 117.19 415.09 C 118.04 415.43 118.90 415.78 119.76 416.13 Z"
     id="path310" />
  <path
     fill="#a04c03"
     d=" M 133.38 411.12 C 136.67 413.89 138.91 417.64 142.06 420.56 C 142.88 420.38 144.51 420.02 145.33 419.84 C 144.84 420.84 144.34 421.84 143.85 422.85 C 139.78 419.53 135.68 415.94 133.38 411.12 Z"
     id="path312" />
  <path
     fill="#fee1a6"
     d=" M 90.48 425.19 C 97.83 423.88 102.63 417.81 107.19 412.48 L 106.82 414.20 C 106.24 415.38 105.36 416.38 104.54 417.41 C 104.50 417.45 104.43 417.53 104.39 417.57 C 100.99 421.31 96.88 424.74 91.95 426.19 C 91.59 425.94 90.85 425.44 90.48 425.19 Z"
     id="path314" />
  <path
     fill="#fee1a6"
     d=" M 152.62 416.54 C 153.09 416.70 154.03 417.01 154.50 417.17 C 158.15 422.34 163.89 425.22 169.70 427.28 L 167.43 427.39 C 161.35 425.80 156.11 421.71 152.62 416.54 Z"
     id="path316" />
  <path
     fill="#ff7f00"
     d=" M 104.39 417.57 C 104.43 417.53 104.50 417.45 104.54 417.41 C 104.50 417.45 104.43 417.53 104.39 417.57 Z"
     id="path318" />
  <path
     fill="#fee1a6"
     d=" M 183.74 425.73 C 196.05 422.10 208.87 419.95 221.73 420.44 L 223.38 420.46 C 222.82 421.35 222.04 421.73 221.04 421.62 C 217.86 421.61 214.69 421.56 211.52 421.56 L 211.49 422.42 C 208.47 422.30 205.45 422.35 202.44 422.45 L 202.61 423.47 C 200.83 423.37 199.05 423.31 197.28 423.25 L 197.69 424.47 C 195.91 424.38 194.14 424.33 192.36 424.27 L 192.66 425.49 C 191.22 425.39 189.79 425.31 188.36 425.24 L 188.68 426.48 C 187.27 426.42 185.86 426.37 184.45 426.34 L 184.63 427.40 C 183.71 427.40 182.80 427.43 181.89 427.48 C 178.00 427.83 174.10 428.07 170.20 428.06 L 170.10 427.01 C 174.67 427.14 179.33 427.12 183.74 425.73 Z"
     id="path320" />
  <path
     fill="#f0ceb3"
     d=" M 28.55 422.80 L 29.83 423.28 C 42.22 428.33 55.79 428.86 68.99 428.28 C 73.02 428.33 77.09 427.56 81.08 428.27 C 77.28 429.66 73.00 428.91 69.00 429.24 C 55.63 429.81 41.90 429.26 29.35 424.16 C 29.15 423.82 28.75 423.14 28.55 422.80 Z"
     id="path322" />
  <path
     fill="#8c4201"
     d=" M 176.89 430.12 C 191.07 428.66 204.75 423.90 219.04 423.23 C 222.51 423.04 226.41 424.23 227.53 427.90 C 225.48 426.95 223.44 425.55 221.07 425.79 C 213.47 426.23 206.15 428.66 198.59 429.49 C 190.35 430.38 182.28 432.65 173.98 432.90 C 167.54 433.30 161.05 429.87 157.72 424.36 C 163.53 427.74 169.95 430.95 176.89 430.12 Z"
     id="path324" />
  <path
     fill="#8c4201"
     d=" M 86.69 443.75 C 96.16 439.00 103.89 431.61 111.16 424.05 C 105.78 435.05 95.86 443.47 85.01 448.88 C 79.18 452.02 72.46 452.56 65.97 452.95 C 55.25 453.31 44.38 452.75 33.96 450.04 C 29.61 448.72 24.75 447.27 22.17 443.19 C 25.95 443.23 29.33 445.06 32.94 445.93 C 44.13 448.99 55.87 449.66 67.39 448.49 C 73.97 447.75 80.76 446.91 86.69 443.75 Z"
     id="path326" />
  <path
     fill="#ffffff"
     d=" M 83.01 427.87 C 84.70 426.64 86.94 426.54 88.90 425.97 C 88.89 426.29 88.86 426.94 88.85 427.27 L 88.16 427.70 L 87.04 427.96 C 85.68 428.17 84.34 428.14 83.01 427.87 Z"
     id="path328" />
  <path
     fill="#652900"
     d=" M 151.99 428.86 C 156.92 431.45 160.60 435.88 165.63 438.36 C 172.08 442.16 179.70 443.06 187.05 443.20 C 200.79 444.05 214.41 441.14 227.59 437.53 C 227.68 438.10 227.86 439.24 227.95 439.82 C 221.20 444.24 212.90 444.74 205.13 445.81 C 200.24 445.93 195.40 447.09 190.52 446.82 C 186.43 445.89 182.22 445.76 178.11 446.64 C 167.42 444.94 157.98 437.71 151.99 428.86 Z"
     id="path330" />
  <path
     fill="#904300"
     d=" M 178.11 446.64 C 182.22 445.76 186.43 445.89 190.52 446.82 C 186.39 447.09 182.22 447.22 178.11 446.64 Z"
     id="path332" />
  <metadata
     id="metadata334">
    <rdf:RDF>
      <cc:Work>
        <dc:format>image/svg+xml</dc:format>
        <dc:type
           rdf:resource="http://purl.org/dc/dcmitype/StillImage" />
        <cc:license
           rdf:resource="http://creativecommons.org/licenses/publicdomain/" />
        <dc:publisher>
          <cc:Agent
             rdf:about="http://openclipart.org/">
            <dc:title>Open Clip Art Library</dc:title>
          </cc:Agent>
        </dc:publisher>
        <dc:title>Blue Worker</dc:title>
        <dc:date>2010-10-19T19:53:42</dc:date>
        <dc:description />
        <dc:source>http://openclipart.org/detail/91543/blue-worker-by-bugmenot</dc:source>
        <dc:creator>
          <cc:Agent>
            <dc:title>bugmenot</dc:title>
          </cc:Agent>
        </dc:creator>
        <dc:subject>
          <rdf:Bag>
            <rdf:li>Blue</rdf:li>
            <rdf:li>Man</rdf:li>
            <rdf:li>Smiling</rdf:li>
            <rdf:li>Worker</rdf:li>
            <rdf:li>clip art</rdf:li>
            <rdf:li>clipart</rdf:li>
          </rdf:Bag>
        </dc:subject>
      </cc:Work>
      <cc:License
         rdf:about="http://creativecommons.org/licenses/publicdomain/">
        <cc:permits
           rdf:resource="http://creativecommons.org/ns#Reproduction" />
        <cc:permits
           rdf:resource="http://creativecommons.org/ns#Distribution" />
        <cc:permits
           rdf:resource="http://creativecommons.org/ns#DerivativeWorks" />
      </cc:License>
    </rdf:RDF>
  </metadata>
</svg>
