<?xml version="1.0" encoding="UTF-8" standalone="no"?>
<svg
   xmlns:dc="http://purl.org/dc/elements/1.1/"
   xmlns:cc="http://creativecommons.org/ns#"
   xmlns:rdf="http://www.w3.org/1999/02/22-rdf-syntax-ns#"
   xmlns:svg="http://www.w3.org/2000/svg"
   xmlns="http://www.w3.org/2000/svg"
   xmlns:sodipodi="http://sodipodi.sourceforge.net/DTD/sodipodi-0.dtd"
   xmlns:inkscape="http://www.inkscape.org/namespaces/inkscape"
   width="241.4664"
   height="254.05566"
   viewBox="0 0 193.17313 203.24453"
   version="1.1"
   id="svg2"
   inkscape:version="0.48.5 r10040"
   sodipodi:docname="head.svg">
  <defs
     id="defs338" />
  <sodipodi:namedview
     pagecolor="#888888"
     bordercolor="#666666"
     borderopacity="1"
     objecttolerance="10"
     gridtolerance="10"
     guidetolerance="10"
     inkscape:pageopacity="1"
     inkscape:pageshadow="2"
     inkscape:window-width="927"
     inkscape:window-height="623"
     id="namedview336"
     showgrid="false"
     inkscape:zoom="1.6489083"
     inkscape:cx="162.01238"
     inkscape:cy="155.44582"
     inkscape:window-x="137"
     inkscape:window-y="44"
     inkscape:window-maximized="0"
     inkscape:current-layer="svg2"
     fit-margin-top="0"
     fit-margin-left="0"
     fit-margin-right="0"
     fit-margin-bottom="0" />
  <path
     d="m 85.75916,2.8076722 c 4.47,-3.94751 11.64,-3.58327997 16.12,0.1575 2.65,0.0591 5.31,0.12798 7.97,0.12798 3.63,-3.01231997 9.05,-3.14028997 13.03,-0.71863 6.51,4.42003 16.5,1.46678 21.64,8.2494098 2.65,3.93766 6.63,6.89091 8.69,11.22234 3.02,5.94588 4.39,12.51193 6.93,18.64484 3.62,9.14523 6.78,18.536555 11.46,27.228949 6.36,3.662027 13.05,7.156704 18.04,12.630057 2.69,2.864651 4.47,6.989354 3.01,10.848264 -1.44,6.418394 -7.64,10.395438 -13.75,11.931128 4.45,5.88681 3.68,13.70307 2.79,20.5546 -0.7,5.68009 -3.84,10.81874 -8.45,14.25435 1.8,5.24694 2.72,11.11406 0.21,16.32162 -7.00804,11.51245 -16.49171,11.81752 -29.78226,23.21826 -5.85667,6.29486 -9.13033,10.71417 -15.52093,17.78105 -2.36687,2.08722 -38.31354,11.57843 -60.77214,6.51882 -11.354265,-7.72817 -10.442542,-14.81343 -24.785541,-25.91975 -11.172398,-6.82889 -8.328264,-4.00662 -19.392929,-11.34639 -5.19,-3.70141 -9.7362,-7.30855 -12.1662,-13.51037 -3.2499996,-8.25925 -0.47,-17.74902 5.25,-24.2757 -5.71,-6.5759 -6.08,-15.97707 -5.19,-24.16741 C 6.0091604,99.428136 0.39916038,95.047489 0.05916038,88.658629 c -0.28,-1.939299 0.48,-3.780157 1.31000002,-5.493041 5.13,-6.930289 12.7699996,-11.320784 19.6599996,-16.301929 8.28,-11.822837 10.58,-26.441417 14.2,-40.085417 1.64,-5.83759 5.49,-10.92702 10.68,-14.17559 3.1,-4.8531698 8.86,-6.9204498 14.39,-7.6193798 4.53,-0.27564 8.41,-3.93767 13.09,-2.66777 3.94,1.26005 8.43,1.74242 12.37,0.49221 z"
     id="path6"
     inkscape:connector-curvature="0"
     style="fill:#000000"
     sodipodi:nodetypes="ccccccccccccccccccccccccccccccc" />
  <path
     d="m 86.72916,3.9821122 c 1.58,-0.8 3.19,-1.55 4.84,-2.21 -0.23,13.1399998 -0.52,26.2999998 -0.14,39.4399998 0.41,4.99 0.2,10.21 2.2,14.9 2.31,-8.46 1.51,-17.28 1.65,-25.93 0.19,-9.49 -1.32,-18.98 0.01,-28.4299998 1.89,0.63 3.72,1.43 5.51,2.33 -1.93,6.1999998 -1.43,12.7499998 -1.21,19.1399998 0.82,9.97 1.18,19.99 0.75,29.98 -0.37,5.090004 -0.75,10.320004 -2.86,15.030004 -0.73,1.98 -2.62,3.04 -4.26,4.16 -1.57,-1.19 -3.26,-2.43 -3.85,-4.41 -2.35,-6.34 -2.57,-13.200004 -3.01,-19.870004 -0.72,-14.71 0.27,-29.42 0.37,-44.1299998 z"
     id="path8"
     inkscape:connector-curvature="0"
     style="fill:#fece00" />
  <path
     d="m 91.56916,1.7721122 c 1.24,0 2.48,0 3.72,-0.02 -1.33,9.4499998 0.18,18.9399998 -0.01,28.4299998 -0.14,8.65 0.66,17.47 -1.65,25.93 -2,-4.69 -1.79,-9.91 -2.2,-14.9 -0.38,-13.14 -0.09,-26.3 0.14,-39.4399998 z"
     id="path10"
     inkscape:connector-curvature="0"
     style="fill:#fdf6a8" />
  <path
     d="m 110.91916,4.2121122 c 4.67,-3.29999997 10.62,-1.47 14.61,2 -1.16,3.8799998 -2.2,7.8699998 -1.94,11.9599998 0.79,12.32 3.83,24.51 3.09,36.9 -0.31,3.320004 -0.86,7.680004 -4.41,9.110004 -2.63,0.6 -4.01,-2.24 -4.91,-4.21 -3.64,-9.860004 -3.63,-20.530004 -5.24,-30.810004 -1.36,-8.23 -2.19,-16.63 -1.2,-24.9499998 z"
     id="path12"
     inkscape:connector-curvature="0"
     style="fill:#fece00" />
  <path
     d="m 114.99916,2.8521122 c 1.85,0.19 3.67,0.57 5.39,1.28 -2.71,9.8799998 0.36,20.0199998 0.82,29.9799998 0.06,5.37 1.09,11.03 -0.9,16.18 -2.63,-5.68 -2.69,-12.08 -3.48,-18.18 -0.73,-9.74 -2.79,-19.46 -1.83,-29.2599998 z"
     id="path14"
     inkscape:connector-curvature="0"
     style="fill:#fdf6a5" />
  <path
     d="m 63.91916,6.2221122 c 1.47,-0.63 2.95,-1.26 4.44,-1.84 -0.23,0.28 -0.68,0.83 -0.91,1.11 0.32,7.0399998 1.26,14.0899998 0.53,21.1399998 -1.11,8.27 0.3,16.58 -0.33,24.88 2.48,-4.06 3.38,-8.8 3.8,-13.48 1.42,-11.35 0.62,-22.8 0.63,-34.1999998 1.61,0.4 3.21,0.81 4.83,1.21 -0.61,15.6899998 1.36,31.5499998 -1.76,47.0899998 -1.21,5.460004 -2.81,12.260004 -8.76,14.330004 -3.2,-3.64 -3.09,-8.75 -3.26,-13.300004 -0.22,-9.37 1.96,-18.6 1.67,-27.97 -0.11,-6.33 -0.84,-12.63 -0.88,-18.9699998 z"
     id="path16"
     inkscape:connector-curvature="0"
     style="fill:#fece00" />
  <path
     d="m 68.35916,4.3821122 c 1.23,-0.23 2.47,-0.41 3.72,-0.55 -0.01,11.3999998 0.79,22.8499998 -0.63,34.1999998 -0.42,4.68 -1.32,9.42 -3.8,13.48 0.63,-8.3 -0.78,-16.61 0.33,-24.88 0.73,-7.05 -0.21,-14.1 -0.53,-21.1399998 0.23,-0.28 0.68,-0.83 0.91,-1.11 z"
     id="path18"
     inkscape:connector-curvature="0"
     style="fill:#fdf6a7" />
  <path
     d="m 77.75916,5.3921122 c 2.71,-0.05 5.42,-0.15 8.12,-0.43 -0.17,17.3699998 -1.43,34.7899998 0.29,52.1199998 0.63,4.650004 1.1,9.610004 3.7,13.670004 1.23,2.06 4.15,2.68 6,1.04 3.06,-2.6 3.76,-6.86 4.5,-10.6 1.91,-13.260004 0.8,-26.690004 -0.01,-39.990004 -0.29,-5.51 -0.32,-11.12 1.07,-16.4999998 2.86,0.02 5.71,0.05 8.57,0.06 -0.82,7.8199998 -0.13,15.7199998 1.1,23.4599998 1.77,10.6 1.69,21.61 5.36,31.830004 0.91,2.47 2.77,5.65 5.91,4.95 3.38,-0.95 4.53,-4.77 4.96,-7.86 0.9,-7.270004 -0.03,-14.620004 -0.95,-21.850004 -1,-9.66 -3.61,-19.68 0.02,-29.1299998 4.19,0.57 8.39,1.25 12.44,2.51 2.99,0.81 4.53,3.7399998 6.59,5.7799998 -5.41,0.25 -6.89,6.2 -7.65,10.54 -1.73,12.22 -0.73,24.93 3.14,36.660004 1.7,4.49 4.12,9.96 9.38,10.96 6.7,1.19 13.77,0.15 19.95,-2.67 7.95,5.22 18.37,9.31 21.52,19.15 -2.15,-1.23 -4.3,-2.48 -6.24,-4.03 l 0.21,-0.7 -1.44,0.09 c -3.14,-1.67 -6.27,-3.44 -9.73,-4.38 -0.41,-0.12 -1.24,-0.35 -1.65,-0.47 -6.6,-1.31 -13.26,1.01 -19.65,2.54 -19.56,5.35 -38.78,12.4 -59,14.94 -11.4,1.17 -22.8,-0.93 -33.94,-3.15 -11.13,-2.35 -22.14,-5.29 -32.98,-8.73 -8.71,-3.17 -18.7299996,-1.09 -26.1999996,4.17 3.53,-9.24 12.8099996,-14.26 20.6099996,-19.47 4.96,1.81 10.39,1.33 15.55,0.94 6.85,-0.83 11.15,-7.21 13.37,-13.18 3.75,-10.330004 4.4,-21.680004 2.66,-32.490004 -0.71,-4.55 -2.27,-9.01 -5.13,-12.66 3.56,-4.4199998 9.48,-5.2099998 14.68,-6.2799998 0.52,9.2499998 1.55,18.5299998 0.77,27.7899998 -0.95,9.02 -2.14,18.18 -0.71,27.210004 0.49,2.28 1.29,5.53 4.13,5.73 4.5,-1.14 6.45,-5.92 7.74,-9.920004 4.72,-16.83 2.31,-34.45 2.94,-51.6499998 z"
     id="path20"
     inkscape:connector-curvature="0"
     style="fill:#fece00" />
  <path
     d="m 36.61916,28.722112 c 1.47,-6.46 5.82,-11.84 11.37,-15.32 6.68,10.87 6.2,24.54 4.01,36.66 -1.72,7.540004 -4.78,16.520004 -12.7,19.460004 -5.52,1.3 -11.33,0.96 -16.87,0.01 7.83,-12.33 10.89,-26.800004 14.19,-40.810004 z"
     id="path22"
     inkscape:connector-curvature="0"
     style="fill:#ffbc01" />
  <path
     d="m 140.56916,18.702112 c 0.92,-1.98 3.38,-4.3 5.6,-2.67 6.59,5.3 8.12,14.07 10.83,21.6 3.99,10.65 7.75,21.440004 12.78,31.660004 -5.95,2.53 -12.63,3.61 -19.04,2.55 -4.5,-0.69 -6.78,-5.12 -8.39,-8.89 -3.46,-8.830004 -4.5,-18.430004 -4.56,-27.850004 0.18,-5.53 0.4,-11.3 2.78,-16.4 z"
     id="path24"
     inkscape:connector-curvature="0"
     style="fill:#ffbc01" />
  <path
     d="m 38.74916,29.682112 c 1.59,-4.23 3.14,-8.72 6.55,-11.87 0.95,5.65 -1.24,11.13 -3.05,16.38 -1.57,3.72 -2.84,7.91 -6.21,10.44 -0.65,-5.15 1.08,-10.15 2.71,-14.95 z"
     id="path26"
     inkscape:connector-curvature="0"
     style="fill:#fee1a6" />
  <path
     d="m 145.65916,20.982112 c 0.3,-0.52 0.88,-1.54 1.17,-2.06 4.93,7.93 8.96,17.2 8.45,26.7 -3.19,-2.63 -4.6,-6.62 -6.1,-10.33 -1.69,-4.61 -3.29,-9.37 -3.52,-14.31 z"
     id="path28"
     inkscape:connector-curvature="0"
     style="fill:#fee2a5" />
  <path
     d="m 39.56916,79.602116 c 18.89,4.57 38.44,2.39 57.66,2.76 14.79,0.28 29.57,-0.54 44.31,-1.79 -2.02,1.75 -4.85,1.42 -7.31,1.78 -12.3,1.24 -24.59,3.05 -36.99,2.85 -19.39,0.04 -38.97,-0.12 -57.99,-4.36 0.08,-0.31 0.24,-0.93 0.32,-1.24 z"
     id="path30"
     inkscape:connector-curvature="0"
     style="fill:#e39d05" />
  <path
     d="m 172.91916,79.602116 c 0.41,0.12 1.24,0.35 1.65,0.47 -0.34,0.04 -1.01,0.11 -1.34,0.15 3.73,1.29 7.16,3.55 11.07,4.23 l 1.44,-0.09 -0.21,0.7 -0.39,0.78 c -1.6,5.09 -6.54,7.32 -11.22,8.81 l -0.54,0.2 c -5.22,-3.1 -6.82,-9.17 -7.68,-14.78 2.4,-0.17 4.8,-0.44 7.22,-0.47 z"
     id="path32"
     inkscape:connector-curvature="0"
     style="fill:#a04c03" />
  <path
     d="m 173.22916,80.222116 c 0.33,-0.04 1,-0.11 1.34,-0.15 3.46,0.94 6.59,2.71 9.73,4.38 -3.91,-0.68 -7.34,-2.94 -11.07,-4.23 z"
     id="path34"
     inkscape:connector-curvature="0"
     style="fill:#000000" />
  <path
     d="m 155.65916,82.382116 c 2.93,-0.75 5.89,-1.39 8.86,-2.01 0.83,3.5 1.45,7.11 3.07,10.36 1.87,3.55 6,4.84 8.51,7.79 2.1,5.240004 -0.63,10.820004 -2.76,15.600004 -2.84,5.72 -7.93,12.19 -15.13,11.04 -0.23,-1.64 -0.42,-3.29 -0.55,-4.94 3.96,-1.64 8.52,-2.06 12.05,-4.58 0.73,-2.48 0.5,-5.1 0.6,-7.65 -2.68,3.16 -5.43,6.27 -8.48,9.08 -3.09,-7.52 7.86,-11.79 5.71,-19.190004 -2.99,-5.84 -8.7,-9.74 -11.88,-15.5 z"
     id="path36"
     inkscape:connector-curvature="0"
     style="fill:#ffe882" />
  <path
     d="m 149.46916,84.012116 c 2.06,-0.55 4.13,-1.09 6.19,-1.63 3.18,5.76 8.89,9.66 11.88,15.5 2.15,7.400004 -8.8,11.670004 -5.71,19.190004 3.05,-2.81 5.8,-5.92 8.48,-9.08 -0.1,2.55 0.13,5.17 -0.6,7.65 -3.53,2.52 -8.09,2.94 -12.05,4.58 0.26,-2.67 0.72,-5.38 0.41,-8.07 -2.46,-3.99 -6.09,-7.2 -7.97,-11.57 3.25,-2.360004 3.96,-6.700004 3.8,-10.450004 -0.17,-2.77 -2.49,-4.48 -4.43,-6.12 z"
     id="path38"
     inkscape:connector-curvature="0"
     style="fill:#fece00" />
  <path
     d="m 9.6191604,85.762116 c 3.8599996,-0.92 7.7999996,-1.51 11.7699996,-1.28 -0.3,3.2 -0.73,6.39 -1.26,9.57 -1.64,0.84 -3.28,1.67 -4.91,2.54 -1.82,-1.27 -4,-2.4 -4.92,-4.56 -0.9999996,-1.94 -0.6399996,-4.18 -0.6799996,-6.27 z"
     id="path40"
     inkscape:connector-curvature="0"
     style="fill:#a04c03" />
  <path
     d="m 22.29916,84.592116 c 2.55,0.73 5.09,1.52 7.61,2.35 1.76,2.87 3.57,5.72 5.34,8.6 -1.71,-0.77 -3.41,-1.54 -5.11,-2.31 -0.57,2.62 -1.27,5.29 -0.89,7.980004 0.38,3.73 2.5,6.92 4.23,10.14 -2.59,-1.77 -5.12,-3.63 -7.64,-5.49 0.2,2.75 0,5.72 1.54,8.15 1.54,2.67 4.22,4.35 6.62,6.17 -1.47,0.55 -2.99,0.96 -4.53,1.21 -1.89,-1.61 -3.58,-3.51 -4.56,-5.81 -2.69,-6.08 -4.02,-12.74 -4.12,-19.370004 0.66,-3.85 1.61,-7.68 1.51,-11.62 z"
     id="path42"
     inkscape:connector-curvature="0"
     style="fill:#ffe882" />
  <path
     d="m 143.71916,85.662116 c 4.48,-2.38 10.62,2.23 8.91,7.16 -0.98,1.2 -2.01,2.35 -3.02,3.52 -0.22,-1.91 0.11,-3.97 -0.7,-5.76 -1.46,-1.91 -3.41,-3.34 -5.19,-4.92 z"
     id="path44"
     inkscape:connector-curvature="0"
     style="fill:#cb946c" />
  <path
     d="m 1.5691604,90.102116 c 2.59,-1.61 5.27,-3.08 8.05,-4.34 0.04,2.09 -0.32,4.33 0.6799996,6.27 0.92,2.16 3.1,3.29 4.92,4.56 -1.29,1.98 -2.39,4.070004 -3.39,6.210004 C 7.3091604,99.672116 2.4591604,95.922116 1.5691604,90.102116 z"
     id="path46"
     inkscape:connector-curvature="0"
     style="fill:#ff7f00" />
  <path
     d="m 40.25916,86.502116 c 16.92,1.54 33.43,9.06 50.61,6.2 12.31,-1.26 24.51,-3.32 36.71,-5.29 -5.59,2.65 -11.95,2.92 -17.94,4.17 -9.82,0.87 -19.49,3.79 -29.42,3.06 -13.64,-0.85 -26.67,-5.3 -39.96,-8.14 z"
     id="path48"
     inkscape:connector-curvature="0"
     style="fill:#ffffff" />
  <path
     d="m 123.94916,91.452116 c 6.66,-1.65 13.19,-3.82 19.77,-5.79 1.78,1.58 3.73,3.01 5.19,4.92 0.81,1.79 0.48,3.85 0.7,5.76 1.01,-1.17 2.04,-2.32 3.02,-3.52 -0.11,2.69 -1.06,5.35 -3.64,6.57 0.61,5.560004 5.5,9.070004 8.25,13.580004 -0.29,4.3 -1.4,8.86 0.29,13 2.38,4.14 6.9,6.62 8.9,11 2.6,6.62 3.19,14.12 0.76,20.9 l -0.02,0.08 c -6.79693,2.72993 -10.0578,6.49533 -17.31,10.87 l -0.41,0.18 c -6.28007,5.65453 -13.03,11.52 -20.98,15.33 -12.14,5.84 -24.57,11.86 -38.09,13.55 -8.09,0.92 -16.74,0.36 -23.86,-3.94 -4.26,-2.28 -7.13,-6.5 -11.65,-8.36 l -0.25,-0.12 c -3.94,-3.92 -8.41,-7.32 -12,-11.58 l -0.08,-0.08 c -0.03,0.03 -0.09,0.09 -0.12,0.12 l -0.45,0.48 -0.59,-0.97 c -1.81,-3.64 -5.7,-5.32 -8.9,-7.5 -5.34,-3.45 -11.22,-6.94 -14.13,-12.86 -2.16,-4.67 -2.92,-10.22 -1.4,-15.19 1.92,-5.08 8.01,-5.56 12.17,-7.93 3.81,-1.79 5.7,-5.75 7.15,-9.47 0.68,-0.73 1.36,-1.47 2.04,-2.2 0.39,-4.08 -1.17,-8.25 0.02,-12.24 3.1,-1.39 7.06,-0.09 9.92,-2.55 -0.01,1.89 0.01,3.8 0.65,5.61 l 0,0.12 c -0.06,2.77 0.6,5.47 1.48,8.07 -0.85,0.89 -1.66,1.82 -2.44,2.77 0.68,-0.46 2.04,-1.37 2.72,-1.83 -0.17,2.45 -0.58,4.87 -1.06,7.28 -1.1,0.94 -2.1,1.97 -3.09,3.02 0.88,-0.47 1.75,-0.95 2.61,-1.45 5.75,1.43 11.95,-0.87 17.46,1.82 2.53,1.21 5.48,3.17 5.69,6.25 -0.39,2.71 -1.43,5.26 -1.94,7.95 3.73,0.9 5.82,-3.14 8.13,-5.31 0.31,-0.08 0.94,-0.23 1.25,-0.31 4.16,-0.98 8.25,-2.59 12.6,-2.4 4.98,-0.19 9.73,1.42 14.5,2.62 -5.1,-3.39 -11.54,-3.56 -17.45,-3.38 -1.83,-4.31 -2.95,-8.87 -3.67,-13.49 -0.62,-3.21 -1.38,-6.93 -4.56,-8.6 0.82,-2.13 2.8,-4.62 0.92,-6.78 -3.29,-3.43 -8.37,-4.26 -12.92,-3.96 -5.68,0.34 -11.34,-1.39 -17,-0.57 -1.67,0.02 -2.55,1.46 -3.57,2.53 -3.31,-3.480004 -4.81,-8.070004 -5.42,-12.740004 13.84,3.47 27.83,6.85 42.14,7.49 7.29,0.43 14.46,-1.14 21.61,-2.33 0.86,2.01 2.02,3.86 3.17,5.710004 -0.52,1.25 -1.12,2.46 -1.69,3.68 0.53,1.43 1.05,2.85 1.57,4.29 -2.47,2.84 -3.16,6.63 -2.96,10.3 -0.95,8.34 4.36,15.43 5.73,23.35 0.82,3.93 -2.11,7.5 -5.66,8.76 -5.55,2.02 -11.58,2.08 -17.41,1.85 -0.69,0.43 -1.38,0.86 -2.07,1.3 8.35,-0.67 18.23,0.69 24.8,-5.68 3.53,0.85 6.78,-0.68 9.55,-2.74 2.16,-1.32 4.74,-2.75 5.3,-5.47 -0.02,-1.71 -0.6,-3.33 -1.03,-4.97 -1.78,-0.53 -3.57,-1.06 -5.41,-1.4 -0.7,-2.03 -1.19,-4.12 -1.45,-6.24 6,-1.05 11.98,-2.18 18,-3.05 2.83,-0.46 5.24,1.46 7.75,2.45 -1.12,-1.2 -2.33,-2.38 -3.9,-2.95 0.15,-1.95 0.32,-3.9 0.62,-5.83 l 0.13,-0.83 c 1.35,-3.18 2.67,-6.58 1.38,-10.03 2.88,-1.21 3.02,-6.04 -0.13,-6.97 -6.72,-2.930004 -14.28,-2.170004 -21.39,-3.370004 0.46,-2.11 -0.08,-4.64 1.5,-6.36 0.78,1.51 -0.57,4.87 1.5,5.31 -0.44,-1.82 -0.77,-3.66 -0.84,-5.53 z"
     id="path50"
     inkscape:connector-curvature="0"
     style="fill:#ddac83"
     sodipodi:nodetypes="ccccccccccccccccccccccccccccccccccccccccccccccccccccccccccccccccccccccccccccccccc" />
  <path
     d="m 173.91916,94.652116 c 4.68,-1.49 9.62,-3.72 11.22,-8.81 2.1,1.39 4.16,2.83 6.19,4.33 -0.37,7.2 -6.93,11.320004 -13.13,13.270004 0,-3.450004 -1.22,-6.910004 -4.28,-8.790004 z"
     id="path52"
     inkscape:connector-curvature="0"
     style="fill:#ff7f00" />
  <path
     d="m 29.90916,86.942116 c 4.08,1.16 8.14,2.39 12.25,3.43 0.17,4.59 1.7,9.01 4.36,12.740004 -2.61,1.18 -5.48,1.14 -8.29,1.02 -2.95,4.08 -0.56,9.14 -0.87,13.69 -1.12,0.79 -2.25,1.56 -3.36,2.36 -2.4,-1.82 -5.08,-3.5 -6.62,-6.17 -1.54,-2.43 -1.34,-5.4 -1.54,-8.15 2.52,1.86 5.05,3.72 7.64,5.49 -1.73,-3.22 -3.85,-6.41 -4.23,-10.14 -0.38,-2.690004 0.32,-5.360004 0.89,-7.980004 1.7,0.77 3.4,1.54 5.11,2.31 -1.77,-2.88 -3.58,-5.73 -5.34,-8.6 z"
     id="path54"
     inkscape:connector-curvature="0"
     style="fill:#fece00" />
  <path
     d="m 120.41916,96.162116 c -1.93,-0.2 -1.9,-4.48 0.37,-2.99 0.41,1.08 0.29,2.07 -0.37,2.99 z"
     id="path56"
     inkscape:connector-curvature="0"
     style="fill:#ebcf00" />
  <path
     d="m 113.30916,94.352116 c 1.27,-0.27 2.54,-0.45 3.83,-0.54 0.83,1.32 1.56,2.71 2.32,4.08 -0.86,0.2 -2.58,0.62 -3.44,0.83 -0.17,0.05 -0.5,0.17 -0.67,0.23 -0.52,0.1 -1.56,0.29 -2.08,0.39 0,-1.67 0.02,-3.33 0.04,-4.99 z"
     id="path58"
     inkscape:connector-curvature="0"
     style="fill:#ddac83" />
  <path
     d="m 107.80916,95.642116 c 1.47,-0.3 2.94,-0.59 4.41,-0.88 -0.05,2.63 0.03,5.270004 0.82,7.800004 -2.11,-2.01 -3.94,-4.290004 -5.23,-6.920004 z"
     id="path60"
     inkscape:connector-curvature="0"
     style="fill:#fad900" />
  <path
     d="m 12.52916,108.14212 c 0.01,-5.03 1.75,-10.800004 6.94,-12.710004 0.34,3.51 0.75,7.030004 1.14,10.540004 -2.68,4.51 -5.45,11.05 -1.29,15.54 l 1.41,0.42 c 1.02,0.56 2.03,1.13 3.05,1.71 -1.89,1.49 -3.76,3 -5.59,4.56 -4.95,-5.41 -5.58,-13.08 -5.66,-20.06 z"
     id="path62"
     inkscape:connector-curvature="0"
     style="fill:#c99772" />
  <path
     d="m 115.34916,98.952116 c 0.17,-0.06 0.5,-0.18 0.67,-0.23 2.14,0.41 4.52,0.3 5.75,2.450004 -2.37,0.38 -4.71,0.87 -7.08,1.23 -0.29,-0.58 -0.87,-1.73 -1.16,-2.31 l 1.5,0.19 c 0.08,-0.330004 0.24,-1.000004 0.32,-1.330004 z"
     id="path64"
     inkscape:connector-curvature="0"
     style="fill:#ffffa7" />
  <path
     d="m 122.12916,99.072116 c 6.58,1.260004 13.49,0.55 19.86,2.920004 1.68,0.41 2.65,1.95 2.71,3.63 -4.18,0.19 -7.91,-1.99 -11.78,-3.19 -3.49,-1.28 -7.26,-1.47 -10.94,-1.28 0.04,-0.52 0.11,-1.560004 0.15,-2.080004 z"
     id="path66"
     inkscape:connector-curvature="0"
     style="fill:#fdfb9e" />
  <path
     d="m 114.68916,102.40212 c 2.37,-0.36 4.71,-0.85 7.08,-1.23 l 0.21,-0.02 c 3.68,-0.19 7.45,0 10.94,1.28 3.87,1.2 7.6,3.38 11.78,3.19 -1.15,1.07 -2.38,2.06 -3.6,3.04 -6.27,-1.56 -12.22,-5.63 -18.93,-4.29 -4.03,0.84 -8.44,1.14 -11.79,3.82 -0.25,-0.92 -0.77,-2.75 -1.02,-3.67 l 0.96,-0.14 c 0.49,-0.25 1.47,-0.74 1.96,-0.99 1.04,0.38 2.09,0.75 3.14,1.12 -0.18,-0.53 -0.54,-1.58 -0.73,-2.11 z"
     id="path68"
     inkscape:connector-curvature="0"
     style="fill:#fdcc00" />
  <path
     d="m 50.63916,102.26212 c 6.53,-1.34 13.09,0.78 19.64,0.33 4.62,-0.29 10.23,1.04 12.08,5.82 l -0.85,-0.54 c -3.86,-2.73 -8.71,-3.24 -13.28,-3.7 -6.53,-0.69 -12.71,1.9 -18.96,3.31 0,-0.8 0,-2.4 0,-3.2 0.34,-0.5 1.03,-1.51 1.37,-2.02 z"
     id="path70"
     inkscape:connector-curvature="0"
     style="fill:#fefc9f" />
  <path
     d="m 110.31916,104.38212 c -1.28,-1.36 1.83,-2.94 1.96,-0.99 -0.49,0.25 -1.47,0.74 -1.96,0.99 z"
     id="path72"
     inkscape:connector-curvature="0"
     style="fill:#ffffff" />
  <path
     d="m 49.26916,107.48212 c 6.25,-1.41 12.43,-4 18.96,-3.31 4.57,0.46 9.42,0.97 13.28,3.7 -0.07,0.7 -0.19,2.08 -0.26,2.77 -3.82,-2.54 -8.46,-3.12 -12.89,-3.72 -5.83,-0.67 -11.33,1.82 -16.82,3.33 -0.76,-0.93 -1.51,-1.85 -2.27,-2.77 z"
     id="path74"
     inkscape:connector-curvature="0"
     style="fill:#ffce00" />
  <path
     d="m 109.93916,109.55212 c 4.43,-3.17 10.06,-3.89 15.34,-4.43 5.59,0.38 10.64,3.22 15.94,4.83 0.52,-0.39 1.57,-1.18 2.09,-1.58 1.29,3.45 -0.03,6.85 -1.38,10.03 -4.06,-5.38 -11.36,-6.73 -17.69,-7.16 -2.37,-0.4 -4.47,0.75 -6.08,2.39 1.1,-0.44 2.18,-0.93 3.25,-1.43 7.28,-0.42 15.47,1.2 20.39,7.03 -0.3,1.93 -0.47,3.88 -0.62,5.83 l -1.53,-0.47 c 0.15,-1.89 0.18,-4.1 -1.69,-5.2 -5.86,-4.12 -13.69,-4.25 -20.46,-2.82 -4.68,1.73 -3.05,7.78 -2.84,11.59 -0.94,0.57 -1.86,1.15 -2.79,1.74 2.49,-0.44 4.98,-0.85 7.46,-1.29 0.26,2.12 0.75,4.21 1.45,6.24 -3.14,-0.01 -6.24,0.61 -9.3,1.3 -2.51,-6.14 -5.07,-12.93 -2.31,-19.47 -0.75,1.04 -1.48,2.1 -2.19,3.17 -0.2,-3.67 0.49,-7.46 2.96,-10.3 z"
     id="path76"
     inkscape:connector-curvature="0"
     style="fill:#cc956c" />
  <path
     d="m 177.71916,105.90212 c 3.41,5.86 2.88,12.89 2.11,19.36 -0.74,5.36 -3.42,10.56 -8.14,13.43 -1.18,-2.17 -2.38,-4.32 -3.62,-6.45 1.28,-0.83 2.57,-1.67 3.88,-2.47 l 1.34,0.11 c 4.24,-3.54 2.25,-9.6 0.25,-13.81 1.68,-3.27 3.03,-6.69 4.18,-10.17 z"
     id="path78"
     inkscape:connector-curvature="0"
     style="fill:#c99772" />
  <path
     d="m 20.72916,121.93212 c -4.73,-3.87 -2.51,-10.53 0.15,-14.94 1.47,5.25 2.99,10.86 7.21,14.64 -1.38,0.7 -2.75,1.41 -4.1,2.13 l -0.21,-0.12 c -1.02,-0.58 -2.03,-1.15 -3.05,-1.71 z"
     id="path80"
     inkscape:connector-curvature="0"
     style="fill:#b5774e" />
  <path
     d="m 50.76916,111.36212 c 5.52,-1.02 10.74,-3.8 16.48,-3.42 4.85,0.39 10.02,1.03 13.88,4.29 3.18,1.67 3.94,5.39 4.56,8.6 0.72,4.62 1.84,9.18 3.67,13.49 -3.39,0.37 -6.79,1.23 -9.65,3.16 -0.31,0.08 -0.94,0.23 -1.25,0.31 -2.31,2.17 -4.4,6.21 -8.13,5.31 0.51,-2.69 1.55,-5.24 1.94,-7.95 -0.21,-3.08 -3.16,-5.04 -5.69,-6.25 -5.51,-2.69 -11.71,-0.39 -17.46,-1.82 2.64,-1.78 5.8,-3.14 9.03,-2.28 7.22,1.41 14.94,1.58 21.47,5.33 -0.6,-0.75 -1.2,-1.5 -1.8,-2.25 0.3,-3.92 2.27,-9.83 -1.99,-12.25 -7,-1.81 -15.18,-1.48 -21.25,2.8 -2.1,1.18 -1.28,3.68 -0.93,5.55 -1.36,0.49 -2.72,0.97 -4.05,1.53 0.48,-2.41 0.89,-4.83 1.06,-7.28 2.44,-1.89 4.78,-4.08 7.77,-5.03 5.36,-1.55 11.05,-0.05 16.42,-1.48 -4.67,-0.31 -9.39,-0.3 -14.05,0.13 -4.04,0.39 -7.4,2.92 -10.42,5.44 -0.88,-2.6 -1.54,-5.3 -1.48,-8.07 0.47,0.54 1.4,1.61 1.87,2.14 z"
     id="path82"
     inkscape:connector-curvature="0"
     style="fill:#cc956c" />
  <path
     d="m 60.79916,111.85212 c 4.66,-0.43 9.38,-0.44 14.05,-0.13 -5.37,1.43 -11.06,-0.07 -16.42,1.48 -2.99,0.95 -5.33,3.14 -7.77,5.03 -0.68,0.46 -2.04,1.37 -2.72,1.83 0.78,-0.95 1.59,-1.88 2.44,-2.77 3.02,-2.52 6.38,-5.05 10.42,-5.44 z"
     id="path84"
     inkscape:connector-curvature="0"
     style="fill:#000000" />
  <path
     d="m 118.15916,113.63212 c 1.61,-1.64 3.71,-2.79 6.08,-2.39 6.33,0.43 13.63,1.78 17.69,7.16 l -0.13,0.83 c -4.92,-5.83 -13.11,-7.45 -20.39,-7.03 -1.07,0.5 -2.15,0.99 -3.25,1.43 z"
     id="path86"
     inkscape:connector-curvature="0"
     style="fill:#000000" />
  <path
     d="m 54.57916,118.43212 c 6.07,-4.28 14.25,-4.61 21.25,-2.8 4.26,2.42 2.29,8.33 1.99,12.25 0.6,0.75 1.2,1.5 1.8,2.25 -6.53,-3.75 -14.25,-3.92 -21.47,-5.33 -3.23,-0.86 -6.39,0.5 -9.03,2.28 -0.86,0.5 -1.73,0.98 -2.61,1.45 0.99,-1.05 1.99,-2.08 3.09,-3.02 1.33,-0.56 2.69,-1.04 4.05,-1.53 -0.35,-1.87 -1.17,-4.37 0.93,-5.55 z"
     id="path88"
     inkscape:connector-curvature="0"
     style="fill:#000000" />
  <path
     d="m 117.49916,116.57212 c 6.77,-1.43 14.6,-1.3 20.46,2.82 1.87,1.1 1.84,3.31 1.69,5.2 l 1.53,0.47 c 1.57,0.57 2.78,1.75 3.9,2.95 -2.51,-0.99 -4.92,-2.91 -7.75,-2.45 -6.02,0.87 -12,2 -18,3.05 -2.48,0.44 -4.97,0.85 -7.46,1.29 0.93,-0.59 1.85,-1.17 2.79,-1.74 -0.21,-3.81 -1.84,-9.86 2.84,-11.59 z"
     id="path90"
     inkscape:connector-curvature="0"
     style="fill:#000000" />
  <path
     d="m 55.30916,119.33212 c 3.55,-3 8.46,-3.48 12.92,-3.63 3.13,0.28 6.86,-0.19 9.07,2.55 0.08,2.89 0.03,5.79 -0.09,8.69 -1.87,-0.25 -3.73,-0.57 -5.59,-0.82 0.86,-0.73 1.69,-1.49 2.49,-2.28 -1.2,-1.33 -3.12,-1.63 -4.6,-2.53 0.52,-0.52 1.55,-1.57 2.07,-2.09 -3.65,-0.98 -8.22,1.27 -8.24,5.39 -3.09,-0.5 -6.16,-1.08 -9.21,-1.74 0.17,-1.26 -0.14,-2.81 1.18,-3.54 z"
     id="path92"
     inkscape:connector-curvature="0"
     style="fill:#ffffff" />
  <path
     d="m 106.97916,119.85212 c 0.71,-1.07 1.44,-2.13 2.19,-3.17 -2.76,6.54 -0.2,13.33 2.31,19.47 3.06,-0.69 6.16,-1.31 9.3,-1.3 1.84,0.34 3.63,0.87 5.41,1.4 0.43,1.64 1.01,3.26 1.03,4.97 -0.56,2.72 -3.14,4.15 -5.3,5.47 2.14,-2.39 5.17,-4.7 4.48,-8.34 -3.78,-3.97 -9.67,-2.33 -14.41,-1.61 0.82,2.81 1.61,5.65 1.81,8.58 -0.41,1.39 -0.91,2.75 -1.43,4.11 -6.57,6.37 -16.45,5.01 -24.8,5.68 0.69,-0.44 1.38,-0.87 2.07,-1.3 5.83,0.23 11.86,0.17 17.41,-1.85 3.55,-1.26 6.48,-4.83 5.66,-8.76 -1.37,-7.92 -6.68,-15.01 -5.73,-23.35 z"
     id="path94"
     inkscape:connector-curvature="0"
     style="fill:#000000" />
  <path
     d="m 116.29916,118.14212 c 6.34,-2.02 13.7,-1.86 19.7,1.2 1.52,0.93 4.15,2.91 2.06,4.66 -2.8,0.92 -5.75,1.16 -8.62,1.75 -0.11,-0.51 -0.33,-1.52 -0.44,-2.03 l -1.2,-0.59 c -0.13,-0.48 -0.38,-1.44 -0.51,-1.92 l -0.72,0.05 0.86,2.09 c -0.9,-0.42 -1.79,-0.84 -2.68,-1.26 0.33,-0.48 0.98,-1.43 1.3,-1.91 -3.97,-1.8 -9.89,3.94 -5.21,6.88 -1.63,0.4 -3.26,0.83 -4.89,1.26 -0.8,-3.34 -1.21,-6.98 0.35,-10.18 z"
     id="path96"
     inkscape:connector-curvature="0"
     style="fill:#ffffff" />
  <path
     d="m 173.00916,116.92212 c 2.02,3.93 3.84,10.27 -1.06,12.85 -1.31,0.8 -2.6,1.64 -3.88,2.47 -1.49,-2.12 -3.01,-4.22 -4.55,-6.3 4.04,-1.93 7.18,-5.25 9.49,-9.02 z"
     id="path98"
     inkscape:connector-curvature="0"
     style="fill:#b6784f" />
  <path
     d="m 24.89916,124.86212 c 3.46,-2.25 7.58,-2.93 11.37,-4.38 -1.45,3.72 -3.34,7.68 -7.15,9.47 -4.16,2.37 -10.25,2.85 -12.17,7.93 -1.52,4.97 -0.76,10.52 1.4,15.19 2.91,5.92 8.79,9.41 14.13,12.86 3.2,2.18 7.09,3.86 8.9,7.5 -7.66,-3.96 -15.35,-8.05 -22.13,-13.43 -3.81,-2.93 -7.01,-7.05 -7.44,-11.98 -1.09,-9.53 4.99,-18.61 13.09,-23.16 z"
     id="path100"
     inkscape:connector-curvature="0"
     style="fill:#efcdb2" />
  <path
     d="m 157.52916,125.97212 c 1.5,0.09 3,0.15 4.51,0.21 4.8,6.21 9.54,12.92 10.88,20.84 0.86,3.52 -0.68,6.95 -1.95,10.17 -1.26,0.23 -2.52,0.46 -3.78,0.68 2.43,-6.78 1.84,-14.28 -0.76,-20.9 -2,-4.38 -6.52,-6.86 -8.9,-11 z"
     id="path102"
     inkscape:connector-curvature="0"
     style="fill:#f0ceb3" />
  <path
     d="m 79.70916,137.48212 c 2.86,-1.93 6.26,-2.79 9.65,-3.16 5.91,-0.18 12.35,-0.01 17.45,3.38 -4.77,-1.2 -9.52,-2.81 -14.5,-2.62 -4.35,-0.19 -8.44,1.42 -12.6,2.4 z"
     id="path104"
     inkscape:connector-curvature="0"
     style="fill:#000000" />
  <path
     d="m 148.87916,134.51212 c 4.27,1.93 8.66,3.78 12.48,6.51 2.79,1.96 4.5,5.22 4.39,8.64 -0.97,-2.05 -1.64,-4.28 -2.99,-6.13 -1.95,-2.33 -4.75,-3.7 -7.43,-5 -2.23,-1.2 -4.93,-1.84 -6.45,-4.02 z"
     id="path106"
     inkscape:connector-curvature="0"
     style="fill:#000000" />
  <path
     d="m 111.98916,136.74212 c 4.74,-0.72 10.63,-2.36 14.41,1.61 -1.57,1.68 -2.96,3.59 -4.86,4.92 -2.39,1.27 -5.14,1.51 -7.74,2.05 -0.2,-2.93 -0.99,-5.77 -1.81,-8.58 z"
     id="path108"
     inkscape:connector-curvature="0"
     style="fill:#ddac83" />
  <path
     d="m 91.64916,139.63212 c 3.14,-0.16 6.65,-0.06 9.36,1.7 0.06,0.43 0.17,1.29 0.22,1.72 -4.87,2.13 -11.89,2.95 -15.99,-1.02 1.56,-1.86 4.18,-2.05 6.41,-2.4 z"
     id="path110"
     inkscape:connector-curvature="0"
     style="fill:#e4bd96" />
  <path
     d="m 121.53916,143.27212 c 1.9,-1.33 3.29,-3.24 4.86,-4.92 0.69,3.64 -2.34,5.95 -4.48,8.34 -2.77,2.06 -6.02,3.59 -9.55,2.74 0.52,-1.36 1.02,-2.72 1.43,-4.11 2.6,-0.54 5.35,-0.78 7.74,-2.05 z"
     id="path112"
     inkscape:connector-curvature="0"
     style="fill:#cc956c" />
  <path
     d="m 155.32916,138.53212 c 2.68,1.3 5.48,2.67 7.43,5 1.35,1.85 2.02,4.08 2.99,6.13 -0.91,1.87 -1.85,3.73 -2.84,5.56 -1.21,-3.55 -2.22,-7.24 -4.31,-10.4 -1.31,-1.98 -2.63,-3.98 -3.27,-6.29 z"
     id="path114"
     inkscape:connector-curvature="0"
     style="fill:#cb936b" />
  <path
     d="m 26.18916,148.23212 c 2.17,-5.55 8.58,-7.7 14.11,-7.43 3.64,0.24 7.72,0.7 10.42,3.41 -5.16,-1.99 -10.85,-3.5 -16.33,-1.81 -3.45,0.76 -5.64,3.67 -8.2,5.83 z"
     id="path116"
     inkscape:connector-curvature="0"
     style="fill:#000000" />
  <path
     d="m 40.23916,143.69212 c 2.07,2.69 3.81,5.76 6.9,7.45 8.8,5.64 18.66,9.36 28.51,12.71 7.33,2.27 14.82,4.81 22.61,4.34 13.1,-0.53 26.05,-3.76 38.08,-8.94 7.52,-3.46 15.32,-7.86 19.43,-15.38 l 0.86,0.29 c -4.37,7.94 -12.6,12.63 -20.61,16.21 -10.74,4.41 -22.09,7.44 -33.67,8.45 -5.04,0.4 -10.16,0.4 -15.09,-0.81 -10,-2.35 -19.7,-5.87 -29.12,-9.94 -5.22,-2.49 -10.55,-5.01 -14.9,-8.89 -1.65,-1.39 -2.49,-3.45 -3,-5.49 z"
     id="path118"
     inkscape:connector-curvature="0"
     style="fill:#000000" />
  <path
     d="m 73.54916,148.83212 c 4.11,2.42 8.93,5.42 13.84,3.99 0.01,0.47 0.04,1.41 0.05,1.88 -4.83,-1 -10.97,-1.21 -13.89,-5.87 z"
     id="path120"
     inkscape:connector-curvature="0"
     style="fill:#000000" />
  <path
     d="m 58.13916,158.07212 c 9.42,4.07 19.12,7.59 29.12,9.94 4.93,1.21 10.05,1.21 15.09,0.81 11.58,-1.01 22.93,-4.04 33.67,-8.45 0.24,0.35 0.71,1.06 0.95,1.41 -3.63,3.86 -8.64,6.1 -13.66,7.53 -9.46,2.55 -19.3,3.38 -29.06,3.5 -10.99,-0.43 -22.44,-2.53 -31.55,-9.07 -2.06,-1.39 -3.66,-3.35 -4.56,-5.67 z"
     id="path122"
     inkscape:connector-curvature="0"
     style="fill:#cb946b" />
  <path
     d="m 128.46916,184.33212 c 7.95,-3.81 29.28026,-24.2558 38.13333,-26.30813 15.86567,-5.14827 -18.04333,12.66893 -18.45333,14.02893 -2.76,1.78 -6.02,4.0892 -8.02,6.8092 -3.67,4.99 -7.77,9.7 -12.63,13.57 -4.7,4.02 -11.06,4.9 -16.87,6.3 -10.65,2.07 -21.51,3.56 -32.38,3.25 -4.45,-0.47 -9.53,-0.5 -12.99,-3.78 -3.96,-3.77 -7.1,-8.28 -10.39,-12.62 4.52,1.86 7.39,6.08 11.65,8.36 7.12,4.3 15.77,4.86 23.86,3.94 13.52,-1.69 25.95,-7.71 38.09,-13.55 z"
     id="path130"
     inkscape:connector-curvature="0"
     style="fill:#f0ceb3"
     sodipodi:nodetypes="cccccccccccc" />
  <path
     d="m 42.41916,173.92212 c 0.03,-0.03 0.09,-0.09 0.12,-0.12 l 0.08,0.08 -0.2,0.04 z"
     id="path132"
     inkscape:connector-curvature="0"
     style="fill:#ffe1bc" />
  <path
     d="m 82.16916,178.81212 c 10.53,-2.23 21.33,-2.93 32.08,-2.38 l -0.05,0.67 c -13.12,-0.09 -26.75,0.05 -39.08,5.07 1.86,-1.96 4.5,-2.75 7.05,-3.36 z"
     id="path138"
     inkscape:connector-curvature="0"
     style="fill:#000000" />
  <path
     d="m 90.59916,183.66212 c 5.03,-1.63 10.51,-1.7 15.62,-0.35 -0.24,2.27 -0.6,4.83 -2.76,6.12 -4.47,3.07 -12.11,4.31 -15.48,-0.97 -1.68,-1.94 0.85,-4.15 2.62,-4.8 z"
     id="path148"
     inkscape:connector-curvature="0"
     style="fill:#cc956c" />
  <metadata
     id="metadata334">
    <rdf:RDF>
      <cc:Work>
        <dc:format>image/svg+xml</dc:format>
        <dc:type
           rdf:resource="http://purl.org/dc/dcmitype/StillImage" />
        <cc:license
           rdf:resource="http://creativecommons.org/licenses/publicdomain/" />
        <dc:publisher>
          <cc:Agent
             rdf:about="http://openclipart.org/">
            <dc:title>Open Clip Art Library</dc:title>
          </cc:Agent>
        </dc:publisher>
        <dc:title></dc:title>
        <dc:date>2010-10-19T19:53:42</dc:date>
        <dc:description />
        <dc:source>http://openclipart.org/detail/91543/blue-worker-by-bugmenot</dc:source>
        <dc:creator>
          <cc:Agent>
            <dc:title>bugmenot</dc:title>
          </cc:Agent>
        </dc:creator>
        <dc:subject>
          <rdf:Bag>
            <rdf:li>Blue</rdf:li>
            <rdf:li>Man</rdf:li>
            <rdf:li>Smiling</rdf:li>
            <rdf:li>Worker</rdf:li>
            <rdf:li>clip art</rdf:li>
            <rdf:li>clipart</rdf:li>
          </rdf:Bag>
        </dc:subject>
      </cc:Work>
      <cc:License
         rdf:about="http://creativecommons.org/licenses/publicdomain/">
        <cc:permits
           rdf:resource="http://creativecommons.org/ns#Reproduction" />
        <cc:permits
           rdf:resource="http://creativecommons.org/ns#Distribution" />
        <cc:permits
           rdf:resource="http://creativecommons.org/ns#DerivativeWorks" />
      </cc:License>
    </rdf:RDF>
  </metadata>
</svg>
