<svg xmlns="http://www.w3.org/2000/svg" xmlns:xlink="http://www.w3.org/1999/xlink" xml:space="preserve" version="1.1" style="shape-rendering:geometricPrecision;text-rendering:geometricPrecision;image-rendering:optimizeQuality;" viewBox="0 0 50000 62500" x="0px" y="0px" fill-rule="evenodd" clip-rule="evenodd"><defs><style type="text/css">
   
    .fil0 {fill:black;fill-rule:nonzero}
   
  </style></defs><g><path class="fil0" d="M21443.92 20480.46l-1095.23 0c362.35,182.32 770.98,428.73 1161.04,515.93 -25.4,-171.51 -47.02,-343.58 -65.81,-515.93zm11492.2 20919.6c19.09,-292.54 -176.29,-783.09 -293.12,-1044.6 -245.54,-549.63 -590.95,-1123.4 -894.01,-1481.54 -432.59,-511.24 -926.4,-456.39 -1517.44,-440.46 -2394.99,64.56 -6831.74,1764.24 -8700.66,3588.48 -554.27,541.02 -846.65,810.23 -487.36,1541.93 345.74,704.13 1149.91,1965.1 1686.05,2542.67 209.61,225.81 452.3,248.87 584.64,25.07 1565.54,-2647.51 5868.35,-3964.38 8914.06,-4451.89 185.7,-29.71 691.55,-30.31 707.84,-279.66zm244.23 592.31l1123.28 1606.08c187.76,268.79 -221.43,554.63 -409.18,285.85l-1234.49 -1765.08c-2766.61,397.3 -6977.26,1593.73 -8706.63,3955.25l1057.44 1559.36c183.9,271.34 -229.2,551.32 -413.1,279.97l-942.27 -1389.51c-288.02,374.05 -871.58,330.79 -1202.07,16.39 -555.15,-528.5 -1515.59,-2059.89 -1858.14,-2757.52 -467.44,-951.99 -136.63,-1410.05 570.94,-2101.46 -659.13,-802.37 -1093.33,-1719.63 -1342.01,-2691.64 -292.53,-1143.39 -327.94,-2363.99 -170.96,-3562.22 101.66,-775.9 501.39,-1535.96 779.71,-2269.56 204.23,-538.32 400.22,-1162.31 518.18,-1941.51 169.92,-1565.3 394.21,-2370.97 1045.33,-3800.41 -50.75,-84.06 -98.91,-172.22 -147.3,-260.85 -183.79,-336.5 -372.39,-681.68 -762.14,-706.13 -212.74,519.45 -476.75,969.6 -839.44,1261.35 -688.26,553.66 -2027.55,448.62 -2419.24,-440.39 -90.81,-206.11 -119.17,-434.78 -81.6,-660.67 -827.97,-97.34 -1196.89,-730.76 -1151.39,-1520.72 28.5,-494.96 456.35,-1078.15 960.48,-1604.08 819.41,-854.86 2001.46,-1895.52 3153.89,-2259.15 -718.65,-349.48 -1320.29,-745.26 -2163.92,-745.26l-1757.81 0c-627.34,0 -1139.7,-512.37 -1139.7,-1139.71l0 -16225.49c0,-627.35 512.36,-1139.7 1139.7,-1139.7l9438.01 0c627.35,0 1139.7,512.35 1139.7,1139.7l0 12885.79c591.47,131.99 1264.17,353.09 1910.87,648.72 2490.18,1138.36 2867.86,2259.02 3741.7,4636.87 736.19,2003.36 1559.38,3700.94 1172.52,5896.98 -671.58,3811.97 -3713.02,6890.9 -3908.98,10749.45 831.82,-13.1 1264.8,-34.73 1859.59,669.05 350.7,414.98 710.41,995.83 957.86,1549.73 200.33,448.43 603.74,1493.37 81.17,1840.52zm-3399.68 -4031.62c170.24,-3973.13 3243.34,-7041.3 3916.67,-10863.27 362.56,-2057.99 -454.35,-3748.17 -1149.04,-5638.54 -825.65,-2246.66 -1124.4,-3278.42 -3479.35,-4354.96 -572.81,-261.85 -1168.61,-462.07 -1703.33,-589.21l0 2049.74c0,475.95 94.67,699.17 658.41,824.14 276.95,61.26 459.03,-79.92 669.91,-236.89 220.62,-164.23 468.42,-348.72 848.47,-429.46 193.16,-40.93 255.36,252.75 62.25,293.67 -316.64,67.27 -536.46,230.92 -732.17,376.61 -489.6,364.44 -553.01,118.81 -521.64,715.95 14.36,273.42 55.14,539.95 132.18,817.3 82.81,298.13 208.09,610.58 387.96,959.23 241.56,468.19 458.82,478.41 982.23,352.7 191.6,-45.58 260.9,245.75 69.3,291.32 -311.95,74.93 -717.61,108.56 -1004.95,-66.32 128.71,704.63 -613.45,694.22 -825.04,1075.95 -95.77,172.26 -357.75,26.64 -261.95,-145.67 344.09,-620.69 1148.16,-306.53 567.36,-1319.22 -247.47,-431.54 -467.47,-765.08 -880.35,-1199.53 -206.07,-216.85 -436.63,-423.46 -676.26,-576.45 -83.59,54.05 -174.62,97.47 -271.15,128.32 269.7,1458.2 256.49,3519 1420.31,4592.3 683.92,-606.48 1448.01,-98.56 2321.14,-1227.57 120.38,-155.87 357.66,27.4 237.29,183.26 -943.59,1220.11 -1628.47,702.56 -2319.06,1237.64 353.44,248.16 781.06,396.57 1291.16,415.98 328.32,11.58 310.73,510.82 -17.63,499.25 -800.26,-30.48 -1390.79,-290.29 -1833.85,-697.08 -1276.58,-1172.06 -1329.05,-3564.27 -1646.95,-5206.55 -185.27,-957.29 -321.49,-2045.73 -791.26,-2904.81 -832.41,-1522.3 -2891.26,-1473.95 -3293.94,328.24 -176.48,789.74 -93.34,1762.49 -23.55,2516.65 33.53,362.41 77.22,730.18 145.3,1087.81 168.44,884.56 464.28,1746.29 725.04,2607.22 217.71,718.84 300.56,1275.5 252.25,1835.32 -48,556.04 -224.75,1100.78 -526.76,1800.45 -679,1572.84 -808.18,2103.42 -1062.85,3794.32 -49.91,459.89 -88.9,904.86 -98.15,1312.68 -13.54,596.98 33.77,1126.12 199.38,1527.54 124.9,303.91 -337.17,493.79 -462.05,189.92 -111.11,-269.31 -177.21,-578.07 -210.8,-915.81 -255.23,660.98 -636.1,1397.98 -726.7,2089.54 -148.86,1136.24 -115.57,2292.57 161.17,3374.26 229.54,897.23 626.97,1742.09 1227.45,2479.5 1958.45,-1648.83 5719.65,-3156.78 8243.55,-3385.47zm-6404.02 -16378.43c-190.83,-51.75 -112.13,-341.92 78.71,-290.16 430.61,117.24 1079.56,72.53 1448.87,-196.71 159.14,-115.89 335.36,126.09 176.2,241.98 -444.15,323.82 -1184.02,386.4 -1703.78,244.89zm3487.76 -2241.57l0 -16225.49c0,-350.66 -287.83,-638.49 -638.49,-638.49l-9438.01 0c-350.66,0 -638.49,287.83 -638.49,638.49l0 16225.49c0,350.66 287.82,638.5 638.49,638.5l1757.81 0 2850.02 0c-66.02,-749.91 -120.56,-1658.25 54.15,-2440.11 493.49,-2208.56 3136.26,-2434.18 4192.9,-542.45 486.94,871.81 651.02,1958.12 833.07,2932.17 233.23,-99.87 388.55,-331.02 388.55,-588.11zm332.71 593.25c245.36,168.98 476.32,378.57 682.66,595.7l12.35 13.05c-32.72,-223.58 -46.79,-446.4 -46.6,-676.36 -0.14,-9.3 -447.11,-213.31 -511.51,-260.24 -28.39,117.17 -75.1,227.53 -136.9,327.85zm-4851.32 -2239.52c37.08,-193.89 331.93,-137.54 294.85,56.4 -55.85,292.52 -56.79,1307.08 318.16,1384.22 245,50.38 1416.92,-120.77 1613.3,-221.84 352.16,-181.3 254.98,-712.82 176.97,-1020.34 -47.9,-191.61 243.43,-264.42 291.32,-72.83 118.78,468.21 176.41,1098.66 -330.86,1359.83 -255.98,131.76 -1499.54,312.82 -1810.63,248.84 -598.33,-123.06 -643.8,-1259.33 -553.11,-1734.28zm-4914.8 7301.28c-188.5,-57.15 -101.62,-343.8 86.93,-286.63 632.31,192.26 1293.29,-668.55 1556.66,-1134.69 96.54,-171.49 357.36,-24.72 260.79,146.84 -344.97,610.57 -1100.38,1518.91 -1904.38,1274.48zm3340.93 -1164.27c151.92,-290.99 594.4,-60 442.47,231.02 -20.68,39.44 -42.4,79.42 -65.04,119.83 376.11,-45.13 774.87,-151.28 1109.24,-330.13 -233.24,-765.87 -484.96,-1527.96 -651.23,-2312.09 -1488.26,194.75 -2686.6,1243.07 -3691.37,2291.28 -434.08,452.86 -801.23,933.14 -821.48,1284.96 -32.11,557.59 180.83,968.4 781.94,1003 996.1,57.34 2006.01,-981.19 2533.24,-1719.13 133.47,-186.8 255.88,-378.62 362.23,-568.74zm1627.45 509.8c-481.81,233.77 -1050.17,352.32 -1583.31,365.09 -569.86,800.73 -1542.74,1729.55 -2554.54,1890.17 -49.09,159.36 -39.57,325.9 24.87,472.13 259.45,588.91 1217.53,598.58 1647.84,252.43 272.39,-219.11 484.06,-575.08 662.07,-995.73 161.33,-381.34 228.9,-744.55 555.21,-1046.54 240.8,-222.76 579.51,143.36 338.72,366.12 -105.6,97.73 -162.45,192.2 -214.72,314.88 500.7,80.82 743.56,469.18 964.51,869.94 165.62,-436.52 265.24,-809.25 297.15,-1179.02 34.8,-403.13 -10.46,-812.58 -137.8,-1309.47zm-3818.54 2608.62c-190.05,-52.53 -110.19,-341.5 79.87,-288.98 407.62,114 851.89,-237.97 1045.25,-573.51 97.98,-170.52 357.59,-21.35 259.61,149.18 -263.91,457.96 -838.36,866.11 -1384.73,713.31zm1579 -23473.29l2694.14 0c653.98,0 653.98,994.03 0,994.03l-2694.14 0c-653.98,0 -653.99,-994.03 0,-994.03zm2694.14 300.72l-2694.14 0c-258.1,0 -258.1,392.59 0,392.59l2694.14 0c258.1,0 258.1,-392.59 0,-392.59z"/></g><text x="0" y="50015" fill="#000000" font-size="5px" font-weight="bold" font-family="'Helvetica Neue', Helvetica, Arial-Unicode, Arial, Sans-serif">Created by Oleksandr Panasovskyi</text><text x="0" y="50020" fill="#000000" font-size="5px" font-weight="bold" font-family="'Helvetica Neue', Helvetica, Arial-Unicode, Arial, Sans-serif">from the Noun Project</text></svg>