<?xml version="1.0" encoding="UTF-8" standalone="no"?>
<svg
   xmlns:dc="http://purl.org/dc/elements/1.1/"
   xmlns:cc="http://creativecommons.org/ns#"
   xmlns:rdf="http://www.w3.org/1999/02/22-rdf-syntax-ns#"
   xmlns:svg="http://www.w3.org/2000/svg"
   xmlns="http://www.w3.org/2000/svg"
   xmlns:sodipodi="http://sodipodi.sourceforge.net/DTD/sodipodi-0.dtd"
   xmlns:inkscape="http://www.inkscape.org/namespaces/inkscape"
   viewBox="0 0 310.10254 310.10254"
   version="1.1"
   id="svg39"
   sodipodi:docname="cardboard-box.svg"
   width="310.10254"
   height="310.10254"
   inkscape:version="0.92.2 5c3e80d, 2017-08-06"
   inkscape:export-filename="/home/andrew/Projects/workwear/Artwork/cardboard-box.svg.png"
   inkscape:export-xdpi="14.859601"
   inkscape:export-ydpi="14.859601">
  <metadata
     id="metadata45">
    <rdf:RDF>
      <cc:Work
         rdf:about="">
        <dc:format>image/svg+xml</dc:format>
        <dc:type
           rdf:resource="http://purl.org/dc/dcmitype/StillImage" />
        <dc:title></dc:title>
      </cc:Work>
    </rdf:RDF>
  </metadata>
  <defs
     id="defs43" />
  <sodipodi:namedview
     pagecolor="#ffffff"
     bordercolor="#666666"
     borderopacity="1"
     objecttolerance="10"
     gridtolerance="10"
     guidetolerance="10"
     inkscape:pageopacity="0"
     inkscape:pageshadow="2"
     inkscape:window-width="1366"
     inkscape:window-height="717"
     id="namedview41"
     showgrid="false"
     fit-margin-top="0"
     fit-margin-left="0"
     fit-margin-right="0"
     fit-margin-bottom="0"
     inkscape:zoom="0.35047287"
     inkscape:cx="317.49111"
     inkscape:cy="190.42995"
     inkscape:window-x="0"
     inkscape:window-y="25"
     inkscape:window-maximized="1"
     inkscape:current-layer="g37"
     viewbox-x="0" />
  <g
     transform="translate(493.42999,-345.81147)"
     id="g37">
    <path
       d="m -480.51457,577.77 145.71,77.143 140,-77.143 6.4286,-180 -146.43,-51.429 -148.57,51.429 2.8571,180 z"
       id="path2"
       inkscape:connector-curvature="0"
       style="fill:#c7a172;fill-rule:evenodd;stroke:#b7946e" />
    <path
       d="m -344.44,449.78 149.21,-54.328 m -297.84,-3.0305 148.88,57.447 3.1994,206.03"
       id="path4"
       inkscape:connector-curvature="0"
       style="fill:none;stroke:#b7946e;stroke-width:2" />
    <path
       d="m -429.64,449.89 24.244,9.0914 2.0203,-34.345 61.619,-21.213 62.629,22.223 -2.0203,34.345 27.274,-8.0812 -1.0102,-36.365 -61.619,-20.203 61.619,-19.193 -24.244,-8.0812 -60.609,21.213 -69.701,-22.223 -16.162,6.0609 62.629,23.234 -65.66,18.183 -1.0102,35.355 z"
       id="path6"
       inkscape:connector-curvature="0"
       style="fill:#a28661;fill-rule:evenodd" />
    <g
       id="a"
       transform="translate(29.979,-7.4947)">
      <g
         transform="translate(-434.56,-177.54)"
         id="g26">
        <path
           d="m 136.5,650.95 c 1.5476,-0.0562 4.124,-0.52378 4.0494,2.7982 l -1.0895,48.493 c -0.52215,3.0046 -2.0338,4.6285 -2.8625,4.7072 l -60.849,25.898 c -2.9252,0.74819 -3.1806,-0.83963 -3.481,-2.3881 l 1.2245,-50.718 c 0.07711,-3.1939 2.1482,-4.5734 3.0305,-4.9245 l 59.978,-23.865 z"
           id="path8"
           inkscape:connector-curvature="0"
           style="fill:none;stroke:#69533c;stroke-width:2;stroke-linecap:square" />
        <path
           d="m 104.17,674.97 c -0.57663,-0.45704 -1.202,-2.4665 -0.86703,-2.7858 0.34166,-0.32566 2.0132,0.69024 2.3829,1.4482 0.51383,1.0536 -0.61612,2.0507 -1.5158,1.3376 z"
           id="path10"
           inkscape:connector-curvature="0"
           style="fill:#5c4a3a" />
        <g
           transform="matrix(0.21749,-0.014969,0.014969,0.21749,-23.577,623.85)"
           id="g14">
          <path
             d="m 468.32,451.44 z m -9.5,-15.532 c -12.775,-1.9696 -18.61,-5.9691 -14.83,-10.166 2.5574,-2.8396 5.5528,-3.8546 15.33,-5.1948 l 8.5,-1.1651 v -31.775 l -4.4464,-1.4822 c -5.1899,-1.73 -12.876,-8.9551 -15.962,-15.006 l -0.22673,-14.911 4.2512,-20.698 8.02,15.259 9.58,-25.84 4.2554,25.277 11.093,-23.634 3.4937,23.858 7.2359,-25.836 0.41964,45.285 c -0.35737,1.3106 -0.88702,2.4311 -1.6528,3.9423 -2.9074,5.7374 -8.3201,10.539 -14.023,12.44 l -4.0372,1.3457 v 31.77 l 4.5,0.78473 c 11.243,1.9606 15.055,3.0336 17.439,4.9092 5.2007,4.0909 2.4291,7.7522 -7.4389,9.8269 -7.5711,1.5918 -24.258,2.1271 -31.5,1.0105 z m 29.75,-4.1152 c 2.6125,-0.56023 4.75,-1.4616 4.75,-2.0031 0,-0.56818 -0.9515,-0.67929 -2.25,-0.26275 -8.8479,2.8383 -24.233,3.2292 -35.25,0.89564 -8.2722,-1.7522 -7.7593,-1.7106 -7.0558,-0.57239 0.48783,0.78933 5.6961,1.8505 17.055,3.4751 4.0705,0.58216 16.928,-0.28394 22.75,-1.5325 z m -37.853,-100.47 -4.4077,21.16 -0.01,-45.03 c 15.636,4.5287 33.777,2.63 49.64,1.1344 l -1.1083,12.431 -5.4458,16.055 -2.409,-23.037 -12.27,25.864 -5.8518,-19.718 -10.324,22.693 -7.8135,-11.551 z"
             id="path12"
             inkscape:connector-curvature="0"
             style="fill:#5a4838" />
        </g>
        <g
           transform="matrix(0.16996,-0.0569,0.0569,0.16996,36.553,585.9)"
           id="g20">
          <path
             d="m 261.73,735.37 5.0663,-15.394 77.936,-6.8787 -3.8643,15.369 -79.138,6.9041 z"
             id="path16"
             inkscape:connector-curvature="0"
             style="fill:#564734" />
          <path
             d="m 316.73,700.9 28.032,-81.209 -7.1429,-0.44757 23.248,-19.245 15.257,19.825 -10.703,-0.38548 -27.954,80.954 -20.736,0.50787 z"
             id="path18"
             inkscape:connector-curvature="0"
             style="fill:#564734" />
        </g>
        <path
           d="m 122.81,690.5 -0.13905,-16.245 -1.2395,0.33036 3.1388,-4.947 3.7212,2.8547 -1.2053,0.47285 0.067,15.491 -4.3432,2.0433 z"
           id="path22"
           inkscape:connector-curvature="0"
           style="fill:#564734" />
        <path
           d="m 107.52734,701.4302 c -1.18722,-0.0325 -2.66294,-1.20315 -2.89326,-2.2952 -0.13513,-0.64078 0.49982,-0.40872 0.90224,0.32975 0.57819,1.06101 1.42783,1.43363 2.67105,1.17144 0.8134,-0.17155 1.10211,-0.3497 1.54672,-0.95444 l 0.54664,-0.74352 -1.1607,-5.80442 -1.16073,-5.80442 -0.47224,0.10432 c -0.25974,0.0574 -0.84762,0.38016 -1.30641,0.71728 l -0.83417,0.61295 -1.23742,-0.3299 c -1.46976,-0.39185 -2.76934,-0.18461 -4.05975,0.64736 l -0.88059,0.56774 -0.68739,-0.53728 c -0.96143,-0.75146 -1.57043,-0.80496 -2.54161,-0.22328 -0.44005,0.26356 -0.85574,0.44295 -0.92375,0.39863 -0.25311,-0.16495 0.37226,-1.71602 1.12566,-2.79186 1.55299,-2.21764 4.28798,-3.9036 8.04064,-4.95656 1.41955,-0.39831 2.18428,-0.71176 2.38433,-0.9773 0.26388,-0.35026 0.33894,-0.36614 0.72171,-0.15267 0.24179,0.13484 1.06632,0.16571 1.89977,0.0711 4.43314,-0.50314 8.43724,0.55559 10.63974,2.81326 0.42272,0.43332 0.73881,0.87048 0.70243,0.9715 -0.0364,0.10102 -0.37622,0.19874 -0.75518,0.21718 -0.50136,0.0244 -0.96408,0.26195 -1.69878,0.87212 -0.95932,0.79672 -1.04886,0.83117 -1.79314,0.6898 -1.15262,-0.21893 -2.91178,0.20481 -3.7775,0.90991 l -0.72366,0.58941 -1.14675,-0.26601 c -2.0332,-0.47163 -1.97997,-0.86047 -0.74004,5.406 0.99695,5.03843 1.0731,5.6119 0.85476,6.43733 -0.36992,1.39847 -1.70818,2.35174 -3.24262,2.30977 z m 0.47666,-22.71197 c -0.49043,-0.58314 -0.89548,-2.53301 -0.54169,-2.60762 0.98394,-0.20751 2.56858,1.20226 2.46933,2.19683 -0.0733,0.7338 -1.41543,1.01984 -1.92764,0.41079 z m -7.11162,1.36642 c -0.55323,-0.75025 -0.88829,-2.27889 -0.5667,-2.58543 0.31802,-0.30312 2.00481,0.75109 2.35689,1.473 0.60195,1.23426 -0.97689,2.21537 -1.79019,1.11243 z m -8.76694,-1.58719 c -0.6745,-0.63078 -1.13735,-2.67447 -0.62997,-2.78148 0.50738,-0.10701 2.33299,1.31297 2.45991,1.91478 0.09942,0.47142 -0.46956,1.18078 -1.04434,1.302 -0.14368,0.0303 -0.4972,-0.16558 -0.7856,-0.4353 z m 5.00767,4.19012 c -0.22988,-0.18221 -0.58269,-0.82819 -0.78402,-1.43553 -0.51575,-1.55584 -0.07512,-1.85504 1.2916,-0.877 1.34244,0.96065 1.60172,2.07659 0.56338,2.42482 -0.36345,0.12189 -0.83831,0.0721 -1.07096,-0.11229 z m 12.01268,-8.07711 c -0.79997,-0.66307 -1.28258,-2.90682 -0.65374,-3.03944 0.53702,-0.11326 2.10032,1.24749 2.25032,1.95876 0.20233,0.95933 -0.8685,1.68415 -1.59658,1.08068 z m 4.20244,3.61967 c -0.41834,-0.33158 -1.01916,-2.51582 -0.78913,-2.86882 0.15206,-0.23334 1.85755,0.74516 2.39011,1.37129 0.80403,0.9453 -0.61869,2.2761 -1.60098,1.49753 z m -13.38991,-6.87481 c -1.82886,-2.44168 -0.41029,-3.93453 1.63169,-1.29838 0.51587,0.82252 -0.86604,1.92215 -1.63169,1.29838 z m -5.87505,14.60006 c -0.84687,-0.31608 -1.57103,-2.94899 -0.85274,-3.10048 0.36443,-0.0769 1.43894,0.65307 2.03036,1.37928 0.52384,0.64323 0.52634,0.66509 0.14345,1.25265 -0.35753,0.54864 -0.74156,0.68484 -1.32107,0.46855 z m 1.39196,-11.94612 c -0.65613,-0.88979 -0.84789,-2.10512 -0.37992,-2.4079 0.5878,-0.3803 2.23303,0.91018 2.31744,1.81776 0.05337,0.57376 -0.08139,0.75414 -0.7118,0.95279 -0.63041,0.19865 -0.86337,0.12875 -1.22571,-0.36265 z m 9.54572,-3.84763 c -1.82886,-2.44168 -0.41029,-3.93453 1.63169,-1.29838 0.51587,0.82252 -0.86604,1.92215 -1.63169,1.29838 z m 4.3799,-1.41287 c -1.82886,-2.44168 -0.41029,-3.93453 1.63169,-1.29838 0.51587,0.82252 -0.86604,1.92215 -1.63169,1.29838 z"
           id="path24"
           inkscape:connector-curvature="0"
           style="fill:#5c4a3a" />
      </g>
      <path
         transform="matrix(0.90756,-0.39654,0.38321,0.93442,0,0)"
         d="m -545.31218,358.14554 v -4.6599 h 3.14368 v 0.54991 h -2.52702 v 1.4431 h 2.18691 v 0.54991 h -2.18691 v 2.11698 z m 3.95742,0 v -4.6599 h 2.06612 c 0.41534,1e-5 0.73108,0.0419 0.94723,0.12556 0.21615,0.0837 0.38885,0.23151 0.51812,0.44342 0.12927,0.21191 0.1939,0.44607 0.1939,0.70248 0,0.33058 -0.10702,0.60924 -0.32104,0.83598 -0.21402,0.22674 -0.54461,0.37085 -0.99174,0.4323 0.16317,0.0784 0.28713,0.15576 0.3719,0.23204 0.18012,0.16529 0.35071,0.37191 0.51176,0.61984 l 0.81056,1.26828 h -0.77559 l -0.61666,-0.96949 c -0.18013,-0.27972 -0.32846,-0.49375 -0.44501,-0.64209 -0.11655,-0.14834 -0.22092,-0.25217 -0.3131,-0.3115 -0.0922,-0.0593 -0.18595,-0.10066 -0.28131,-0.12397 -0.0699,-0.0148 -0.18436,-0.0223 -0.34329,-0.0223 h -0.7152 v 2.0693 z m 0.61665,-2.60331 h 1.3255 c 0.28184,0 0.50222,-0.0291 0.66116,-0.0874 0.15894,-0.0583 0.27972,-0.15151 0.36236,-0.27972 0.0826,-0.12821 0.12397,-0.26753 0.12397,-0.41799 0,-0.22038 -0.08,-0.40156 -0.23999,-0.54355 -0.15999,-0.14199 -0.41269,-0.21296 -0.7581,-0.21297 h -1.4749 z m 3.56645,2.60331 1.78957,-4.6599 h 0.66434 l 1.90719,4.6599 h -0.70248 l -0.54355,-1.41132 h -1.94851 l -0.51176,1.41132 z m 1.34456,-1.91355 h 1.57979 l -0.48633,-1.29053 c -0.14834,-0.39203 -0.25853,-0.71413 -0.33058,-0.96631 -0.0593,0.2988 -0.14304,0.59547 -0.25111,0.89002 z m 5.69614,0.0858 v -0.54673 l 1.97394,-0.003 v 1.72918 c -0.30304,0.24158 -0.6156,0.42329 -0.9377,0.54514 -0.3221,0.12185 -0.65269,0.18277 -0.99174,0.18277 -0.45773,0 -0.8736,-0.098 -1.24762,-0.29402 -0.37402,-0.19602 -0.65639,-0.47945 -0.84711,-0.85029 -0.19072,-0.37084 -0.28608,-0.78512 -0.28608,-1.24285 0,-0.45348 0.0948,-0.87677 0.28449,-1.26987 0.18966,-0.3931 0.46249,-0.68499 0.8185,-0.87572 0.35601,-0.19073 0.76606,-0.28607 1.23014,-0.28607 0.33693,0 0.64155,0.0546 0.91386,0.1637 0.27231,0.10913 0.4858,0.26118 0.6405,0.45613 0.1547,0.19495 0.2723,0.44925 0.35283,0.76288 l -0.55626,0.15257 c -0.0699,-0.23733 -0.15682,-0.42381 -0.26065,-0.55944 -0.10383,-0.13563 -0.25218,-0.24422 -0.44501,-0.32581 -0.19283,-0.0816 -0.40687,-0.12237 -0.64209,-0.12238 -0.28184,10e-6 -0.52554,0.0429 -0.73109,0.12874 -0.20555,0.0858 -0.37137,0.19867 -0.49746,0.33852 -0.12609,0.13985 -0.22409,0.2935 -0.29402,0.46091 -0.11867,0.2882 -0.17801,0.60076 -0.17801,0.9377 0,0.41534 0.0715,0.76287 0.21456,1.04259 0.14304,0.27972 0.35124,0.4874 0.62461,0.62302 0.27337,0.13562 0.56367,0.20343 0.87095,0.20343 0.267,0 0.52765,-0.0514 0.78194,-0.15416 0.25429,-0.10277 0.44713,-0.21244 0.57852,-0.32899 v -0.86777 z m 2.98475,1.82772 v -4.6599 h 0.61666 v 4.6599 z m 1.67515,0 v -4.6599 h 0.61665 v 4.10999 h 2.29499 v 0.54991 z m 3.6618,0 v -4.6599 h 3.36936 v 0.54991 h -2.75271 v 1.42721 h 2.57789 v 0.54673 h -2.57789 v 1.58614 h 2.86079 v 0.54991 z m 5.84553,-1.39861 v -0.57533 h 1.75779 v 0.57533 z m 4.24985,1.39861 v -4.6599 h 0.61666 v 2.31088 l 2.31405,-2.31088 h 0.83599 l -1.95487,1.88812 2.04069,2.77178 h -0.81373 l -1.65926,-2.35856 -0.76287,0.74381 v 1.61475 z m 4.38653,0 v -4.6599 h 3.36937 v 0.54991 h -2.75271 v 1.42721 h 2.57788 v 0.54673 h -2.57788 v 1.58614 h 2.86078 v 0.54991 z m 4.34839,0 v -4.6599 h 3.36937 v 0.54991 h -2.75271 v 1.42721 h 2.57788 v 0.54673 h -2.57788 v 1.58614 h 2.86078 v 0.54991 z m 4.33568,0 v -4.6599 h 1.75779 c 0.30939,10e-6 0.54567,0.0148 0.70884,0.0445 0.22886,0.0381 0.42064,0.11073 0.57533,0.21774 0.15469,0.10701 0.27919,0.25694 0.37349,0.44978 0.0943,0.19284 0.14145,0.40475 0.14145,0.63573 0,0.39627 -0.12609,0.73162 -0.37825,1.00604 -0.25216,0.27442 -0.70779,0.41164 -1.36682,0.41163 h -1.19517 v 1.89448 z m 0.61666,-2.44438 h 1.2047 c 0.39839,0 0.68129,-0.0742 0.8487,-0.22251 0.16741,-0.14834 0.25111,-0.35706 0.25112,-0.62619 -10e-6,-0.19495 -0.0493,-0.36183 -0.14781,-0.50064 -0.0985,-0.13881 -0.22834,-0.23044 -0.38939,-0.27495 -0.10383,-0.0275 -0.29561,-0.0413 -0.57533,-0.0413 h -1.19199 z m 5.5372,2.44438 v -4.6599 h 1.60521 c 0.36237,10e-6 0.63891,0.0223 0.82963,0.0668 0.267,0.0615 0.49481,0.17271 0.68341,0.33376 0.24581,0.20768 0.42964,0.47309 0.55149,0.79625 0.12185,0.32316 0.18277,0.69242 0.18278,1.10776 -10e-6,0.35389 -0.0413,0.66752 -0.12397,0.94088 -0.0826,0.27336 -0.1886,0.49958 -0.31787,0.67864 -0.12927,0.17906 -0.27071,0.31999 -0.42434,0.42276 -0.15363,0.10277 -0.33906,0.18065 -0.55627,0.23363 -0.21721,0.053 -0.46673,0.0795 -0.74857,0.0795 z m 0.61665,-0.54991 h 0.99492 c 0.30727,0 0.54831,-0.0286 0.72314,-0.0858 0.17483,-0.0572 0.31416,-0.13774 0.41799,-0.24158 0.14622,-0.14621 0.26012,-0.34276 0.34171,-0.58964 0.0816,-0.24688 0.12237,-0.54619 0.12238,-0.89797 -1e-5,-0.48738 -0.08,-0.86193 -0.23999,-1.12365 -0.15999,-0.26172 -0.35442,-0.43706 -0.58328,-0.52606 -0.16529,-0.0636 -0.43124,-0.0954 -0.79784,-0.0954 h -0.97903 z m 4.09728,0.54991 v -4.6599 h 2.06612 c 0.41534,10e-6 0.73109,0.0419 0.94724,0.12556 0.21615,0.0837 0.38885,0.23151 0.51812,0.44342 0.12927,0.21191 0.19389,0.44607 0.1939,0.70248 -10e-6,0.33058 -0.10702,0.60924 -0.32105,0.83598 -0.21403,0.22674 -0.54461,0.37085 -0.99174,0.4323 0.16317,0.0784 0.28714,0.15576 0.37191,0.23204 0.18012,0.16529 0.3507,0.37191 0.51176,0.61984 l 0.81055,1.26828 h -0.77559 l -0.61665,-0.96949 c -0.18013,-0.27972 -0.32847,-0.49375 -0.44501,-0.64209 -0.11654,-0.14834 -0.22092,-0.25217 -0.3131,-0.3115 -0.0922,-0.0593 -0.18595,-0.10066 -0.28131,-0.12397 -0.0699,-0.0148 -0.18436,-0.0223 -0.3433,-0.0223 h -0.71519 v 2.0693 z m 0.61666,-2.60331 h 1.32549 c 0.28184,0 0.50223,-0.0291 0.66116,-0.0874 0.15893,-0.0583 0.27972,-0.15151 0.36237,-0.27972 0.0827,-0.12821 0.12396,-0.26753 0.12397,-0.41799 -1e-5,-0.22038 -0.08,-0.40156 -0.23999,-0.54355 -0.15999,-0.14199 -0.4127,-0.21296 -0.75811,-0.21297 h -1.47489 z m 5.39099,2.60331 v -1.97394 l -1.79594,-2.68596 h 0.75016 l 0.91863,1.40496 c 0.16953,0.26277 0.3274,0.52554 0.47362,0.78831 0.13986,-0.2437 0.30938,-0.51812 0.50858,-0.82327 l 0.90274,-1.37 h 0.71837 l -1.85951,2.68596 v 1.97394 z"
         id="path28"
         inkscape:connector-curvature="0"
         style="fill:#5c4a3a" />
    </g>
  </g>
</svg>
