<?xml version="1.0" encoding="UTF-8" standalone="no"?>
<!-- Created with Inkscape (http://www.inkscape.org/) -->

<svg
   xmlns:dc="http://purl.org/dc/elements/1.1/"
   xmlns:cc="http://creativecommons.org/ns#"
   xmlns:rdf="http://www.w3.org/1999/02/22-rdf-syntax-ns#"
   xmlns:svg="http://www.w3.org/2000/svg"
   xmlns="http://www.w3.org/2000/svg"
   xmlns:sodipodi="http://sodipodi.sourceforge.net/DTD/sodipodi-0.dtd"
   xmlns:inkscape="http://www.inkscape.org/namespaces/inkscape"
   version="1.0"
   width="358.35886"
   height="447.20511"
   id="svg5733"
   inkscape:version="0.91 r13725"
   sodipodi:docname="цщклцуфк.svg"
   inkscape:export-filename="/Users/Anri/Downloads/дщпщ.png"
   inkscape:export-xdpi="300"
   inkscape:export-ydpi="300">
  <metadata
     id="metadata3477">
    <rdf:RDF>
      <cc:Work
         rdf:about="">
        <dc:format>image/svg+xml</dc:format>
        <dc:type
           rdf:resource="http://purl.org/dc/dcmitype/StillImage" />
        <dc:title></dc:title>
      </cc:Work>
    </rdf:RDF>
  </metadata>
  <sodipodi:namedview
     pagecolor="#ffffff"
     bordercolor="#666666"
     borderopacity="1"
     objecttolerance="10"
     gridtolerance="10"
     guidetolerance="10"
     inkscape:pageopacity="0"
     inkscape:pageshadow="2"
     inkscape:window-width="1437"
     inkscape:window-height="802"
     id="namedview3475"
     showgrid="false"
     inkscape:zoom="0.9"
     inkscape:cx="67.37929"
     inkscape:cy="256.787"
     inkscape:window-x="0"
     inkscape:window-y="0"
     inkscape:window-maximized="0"
     inkscape:current-layer="g3716"
     showguides="false" />
  <defs
     id="defs5735" />
  <g
     transform="matrix(0.56569734,0,0,0.56569734,-123.87199,11.256963)"
     id="layer1">
    <g
       transform="matrix(8.1310058,0,0,8.1310058,-3472.7271,-3025.8622)"
       id="g5712">
      <rect
         width="34.203747"
         height="42.635372"
         x="332.28293"
         y="524.51227"
         transform="matrix(0.96592584,-0.25881901,0.25881901,0.96592584,0,0)"
         id="rect4350"
         style="fill:#b3b3b3;fill-opacity:1;stroke:none;stroke-width:0.75;stroke-miterlimit:4;stroke-dasharray:none;stroke-dashoffset:0.5;stroke-opacity:1" />
      <rect
         width="28.995359"
         height="38.202419"
         x="334.88718"
         y="526.51636"
         transform="matrix(0.9659258,-0.258819,0.258819,0.9659258,0,0)"
         id="rect5146"
         style="fill:#ffffff;fill-opacity:1;stroke:none;stroke-width:1.51300001;stroke-miterlimit:4;stroke-dasharray:6.052, 1.513;stroke-dashoffset:0;stroke-opacity:1" />
      <g
         transform="matrix(0.9659258,-0.258819,0.258819,0.9659258,-108.99449,100.14339)"
         id="g5695">
        <path
           d="m 468.1762,465.90003 13.43733,0"
           id="path5155"
           style="fill:none;fill-rule:evenodd;stroke:#000000;stroke-width:1.63245177;stroke-linecap:butt;stroke-linejoin:miter;stroke-miterlimit:4;stroke-dasharray:none;stroke-opacity:1"
           inkscape:connector-curvature="0" />
        <path
           d="m 468.1762,469.16493 13.43733,0"
           id="path5157"
           style="fill:none;fill-rule:evenodd;stroke:#000000;stroke-width:1.63245177;stroke-linecap:butt;stroke-linejoin:miter;stroke-miterlimit:4;stroke-dasharray:none;stroke-opacity:1"
           inkscape:connector-curvature="0" />
        <path
           d="m 468.1762,472.42983 13.43733,1e-5"
           id="path5159"
           style="fill:none;fill-rule:evenodd;stroke:#000000;stroke-width:1.63245177;stroke-linecap:butt;stroke-linejoin:miter;stroke-miterlimit:4;stroke-dasharray:none;stroke-opacity:1"
           inkscape:connector-curvature="0" />
        <path
           d="m 468.1762,475.69474 8.90752,0"
           id="path5161"
           style="fill:none;fill-rule:evenodd;stroke:#000000;stroke-width:1.63245177;stroke-linecap:butt;stroke-linejoin:miter;stroke-miterlimit:4;stroke-dasharray:none;stroke-opacity:1"
           inkscape:connector-curvature="0" />
        <path
           d="m 468.17621,480.04794 13.43733,0"
           id="path5163"
           style="fill:none;fill-rule:evenodd;stroke:#000000;stroke-width:1.63245177;stroke-linecap:butt;stroke-linejoin:miter;stroke-miterlimit:4;stroke-dasharray:none;stroke-opacity:1"
           inkscape:connector-curvature="0" />
        <path
           d="m 468.17621,483.31285 13.43733,0"
           id="path5165"
           style="fill:none;fill-rule:evenodd;stroke:#000000;stroke-width:1.63245177;stroke-linecap:butt;stroke-linejoin:miter;stroke-miterlimit:4;stroke-dasharray:none;stroke-opacity:1"
           inkscape:connector-curvature="0" />
        <path
           d="m 468.17621,486.57775 13.43733,0"
           id="path5167"
           style="fill:none;fill-rule:evenodd;stroke:#000000;stroke-width:1.63245177;stroke-linecap:butt;stroke-linejoin:miter;stroke-miterlimit:4;stroke-dasharray:none;stroke-opacity:1"
           inkscape:connector-curvature="0" />
        <path
           d="m 468.17621,489.84265 13.43733,0"
           id="path5169"
           style="fill:none;fill-rule:evenodd;stroke:#000000;stroke-width:1.63245177;stroke-linecap:butt;stroke-linejoin:miter;stroke-miterlimit:4;stroke-dasharray:none;stroke-opacity:1"
           inkscape:connector-curvature="0" />
        <path
           d="m 468.17621,493.10756 9.46602,0"
           id="path5171"
           style="fill:none;fill-rule:evenodd;stroke:#000000;stroke-width:1.63245177;stroke-linecap:butt;stroke-linejoin:miter;stroke-miterlimit:4;stroke-dasharray:none;stroke-opacity:1"
           inkscape:connector-curvature="0" />
      </g>
      <path
         d="m 471.94421,409.5721 c -2.20538,0.59092 -3.51517,2.85954 -2.92424,5.06492 0.14497,0.54103 0.39476,1.02332 0.71604,1.44175 l -3.9806,1.0666 1.11281,4.15306 15.33975,-4.11027 -1.11281,-4.15306 -3.9806,1.0666 c 0.069,-0.52292 0.0395,-1.06445 -0.10543,-1.60537 -0.59093,-2.20538 -2.85954,-3.51516 -5.06492,-2.92423 z"
         id="rect4345"
         style="fill:#000000;fill-opacity:1;stroke:none;stroke-width:0.75;stroke-miterlimit:4;stroke-dasharray:none;stroke-dashoffset:0.5;stroke-opacity:1"
         inkscape:connector-curvature="0" />
      <rect
         width="6.1679912"
         height="6.1679912"
         x="353.37695"
         y="534.37634"
         transform="matrix(0.9659258,-0.258819,0.258819,0.9659258,0,0)"
         id="rect5634"
         style="opacity:1;fill:none;fill-opacity:1;stroke:#000000;stroke-width:1.36345065;stroke-miterlimit:4;stroke-dasharray:none;stroke-dashoffset:0;stroke-opacity:1" />
      <path
         d="m 481.88409,424.7933 c 0.38299,0.38344 0.78652,0.74567 1.17501,1.12333 0.10122,0.0984 0.20927,0.1909 0.29886,0.29997 0.10902,0.13276 0.19549,0.28253 0.2947,0.42277 0.12988,0.18359 0.26169,0.36581 0.39254,0.54871 0.0401,0.0534 0.6635,0.89174 0.75294,0.98081 0.41852,0.41674 1.65569,0.13157 -1.02834,0.94598 -0.14774,0.0448 0.10762,-0.29065 0.13891,-0.44183 0.0487,-0.2353 0.0668,-0.4759 0.10024,-0.71385 0.11661,-1.21496 0.15483,-2.44017 0.38384,-3.64188 0.14568,-0.76451 0.24226,-1.03974 0.45543,-1.78728 0.34265,-1.17697 0.80012,-2.31458 1.22189,-3.4641 l 1.35686,-0.82472 c -0.4454,1.14347 -0.90077,2.28396 -1.24509,3.46342 -0.20906,0.71475 -0.3215,1.04134 -0.46777,1.77257 -0.23723,1.18593 -0.28828,2.39862 -0.34134,3.60357 -0.0142,0.23142 -0.0266,0.46296 -0.0426,0.69428 -0.0113,0.16321 0.0767,0.37369 -0.0391,0.48925 -0.46052,0.45948 -1.00567,0.84455 -1.58811,1.13431 -0.097,0.0482 -0.16148,-0.14576 -0.22937,-0.23014 -0.25797,-0.32069 -0.44717,-0.69333 -0.72845,-0.99692 -0.24724,-0.30237 -0.48006,-0.61637 -0.72829,-0.91792 -0.42955,-0.52181 -0.94273,-0.97801 -1.47682,-1.38849 l 1.34405,-1.07184 z"
         id="path5638"
         style="fill:#f9d53d;fill-opacity:1;stroke:none;stroke-width:3;stroke-miterlimit:4;stroke-dasharray:none;stroke-dashoffset:0;stroke-opacity:1"
         inkscape:connector-curvature="0" />
      <rect
         width="6.1679912"
         height="6.1679912"
         x="353.37695"
         y="544.375"
         transform="matrix(0.9659258,-0.258819,0.258819,0.9659258,0,0)"
         id="rect5640"
         style="opacity:1;fill:none;fill-opacity:1;stroke:#000000;stroke-width:1.36345065;stroke-miterlimit:4;stroke-dasharray:none;stroke-dashoffset:0;stroke-opacity:1" />
      <path
         d="m 489.69365,432.13981 -1.2232,0.93235 c -0.75012,1.32746 -0.3679,0.63971 -1.14452,2.0875 -0.21972,0.43418 -0.436,0.86968 -0.65027,1.30648 -0.842,-0.43683 -1.7184,-0.8128 -2.63731,-1.06315 l -1.11602,1.33234 c 0.21839,0.0335 0.43839,0.0486 0.65332,0.0998 0.85161,0.20278 1.64716,0.60875 2.41295,1.04633 -0.54759,1.15089 -1.07593,2.31002 -1.59771,3.47308 l 1.4056,-1.11313 c 0.23555,-0.68251 0.50363,-1.36108 0.78756,-2.02483 0.17203,0.1034 0.34305,0.21084 0.51268,0.31333 0.75882,0.48605 1.43396,1.08549 2.16738,1.6068 l 1.15926,-1.21202 c -0.16134,-0.10533 -0.32175,-0.2002 -0.47916,-0.31132 -0.58158,-0.41057 -1.10062,-0.89971 -1.7135,-1.26672 -0.32635,-0.19411 -0.65544,-0.38619 -0.98834,-0.57062 0.40026,-0.84774 0.82102,-1.6895 1.24797,-2.52194 0.80644,-1.46807 0.4072,-0.76215 1.20331,-2.11424 z"
         id="path5642"
         style="fill:#f9d53d;fill-opacity:1;stroke:none;stroke-width:3;stroke-miterlimit:4;stroke-dasharray:none;stroke-dashoffset:0;stroke-opacity:1"
         inkscape:connector-curvature="0" />
      <rect
         width="6.1679912"
         height="6.1679912"
         x="353.37695"
         y="554.37366"
         transform="matrix(0.9659258,-0.258819,0.258819,0.9659258,0,0)"
         id="rect5647"
         style="opacity:1;fill:none;fill-opacity:1;stroke:#000000;stroke-width:1.36345065;stroke-miterlimit:4;stroke-dasharray:none;stroke-dashoffset:0;stroke-opacity:1" />
      <path
         d="m 486.98754,443.72382 c 0.32427,0.43423 0.67191,0.85039 1.00246,1.27969 0.0861,0.11184 0.17985,0.21884 0.25293,0.33959 0.0889,0.14697 0.15312,0.30757 0.23128,0.46054 0.10231,0.20026 0.20674,0.39944 0.31011,0.59917 0.0321,0.0586 0.52928,0.97738 0.60509,1.07832 0.35468,0.47225 1.6199,0.36678 -1.15296,0.78934 -0.15262,0.0233 0.14804,-0.27228 0.20061,-0.41744 0.0818,-0.22593 0.13413,-0.46147 0.20121,-0.69221 0.289,-1.18584 0.50188,-2.39301 0.90024,-3.54968 0.25342,-0.73585 0.38833,-0.99445 0.70611,-1.70387 0.5073,-1.11594 1.12261,-2.17651 1.70429,-3.25398 l 1.46078,-0.6224 c -0.6042,1.06811 -1.21785,2.13183 -1.72716,3.25 -0.30903,0.67755 -0.46698,0.98472 -0.71623,1.68755 -0.40424,1.13987 -0.62802,2.33283 -0.85269,3.51783 -0.0471,0.22702 -0.0925,0.45442 -0.14132,0.68108 -0.0345,0.15992 0.0225,0.38081 -0.10863,0.47864 -0.52144,0.38897 -1.11603,0.6922 -1.73389,0.89576 -0.10287,0.0339 -0.139,-0.16732 -0.19414,-0.26054 -0.2095,-0.35426 -0.34352,-0.75011 -0.57853,-1.09077 -0.20151,-0.33459 -0.38707,-0.67864 -0.58968,-1.01256 -0.35058,-0.57782 -0.79332,-1.10267 -1.26328,-1.58525 l 1.4834,-0.86881 z"
         id="path5649"
         style="fill:#f9d53d;fill-opacity:1;stroke:none;stroke-width:3;stroke-miterlimit:4;stroke-dasharray:none;stroke-dashoffset:0;stroke-opacity:1"
         inkscape:connector-curvature="0" />
    </g>
  </g>
  <g
     id="g3716"
     transform="translate(353.36674,275.73758)">
    <g
       id="g4636"
       transform="translate(-10.444445,8.666667)">
      <path
         style="fill:#4d4d4d"
         inkscape:connector-curvature="0"
         d="m -278.5549,-259.29488 -3.23923,4.35652 c -0.2482,0.33378 -0.3359,0.73656 -0.27989,1.11735 0.45602,5.53129 -2.17491,8.41041 -2.17491,8.41041 -3.12223,4.19915 -8.92088,6.21577 -9.48674,6.52069 -0.21012,0.11326 -0.46999,0.43693 -0.71308,0.7997 0,0 -6.60657,5.61883 -10.58842,20.90503 -3.98303,15.28383 5.471,33.76401 5.471,33.76401 l 0.71342,-0.3122 0.26664,-0.35859 c 0,0 -4.63882,-19.77963 0.54935,-29.83857 0,0 1.79931,-2.97763 6.51886,-2.81396 1.03554,0.0354 1.92376,-0.0239 2.71187,-0.15766 l 2.94122,2.18691 0.59282,-0.7973 47.5659,35.36706 -0.91263,1.22742 1.85781,1.38135 0.14178,1.63377 c 7.61607,7.10529 28.10733,22.0007 46.08747,35.36964 17.98015,13.36892 34.16649,26.69251 35.43311,27.83126 1.26545,1.14232 1.52823,1.05781 2.32185,1.16956 0.79584,0.11456 1.22242,-0.40916 1.22242,-0.40916 3.75785,-4.19156 5.66805,-6.56545 5.66805,-6.56545 0,0 1.72234,-2.51358 4.65452,-7.31758 0,0 0.37681,-0.55657 0.0398,-1.28844 -0.33719,-0.72761 -0.33122,-1.00453 -1.78789,-1.8877 -1.45832,-0.88292 -18.8764,-12.54993 -36.85559,-25.91814 -17.97919,-13.36822 -38.14593,-28.70209 -47.14335,-33.94957 l -1.60469,0.33372 -1.85781,-1.38135 -0.91404,1.22931 -47.5659,-35.36706 0.52404,-0.70479 -1.60318,-1.19201 c 0.45136,-0.86398 0.76907,-1.51633 0.87133,-1.72759 0.013,-0.0247 0.0227,-0.0484 0.0335,-0.073 10e-4,-0.002 0.005,-0.006 0.005,-0.006 0.0312,-0.07 0.0591,-0.13525 0.0702,-0.19211 0.12907,-0.62969 0.39051,-6.76344 3.51273,-10.96258 0,0 1.99792,-3.34831 7.426,-4.50604 0.38269,-0.0545 0.74245,-0.2536 0.99205,-0.58931 l 3.23923,-4.35652 c 1.31754,-1.77197 -0.17152,-3.07165 -0.17152,-3.07165 l -11.54265,-8.58242 c 2.9e-4,10e-4 -1.67152,-1.05031 -2.98976,0.72262 z"
         id="path3666" />
      <path
         style="fill:#f9d53d"
         inkscape:connector-curvature="0"
         d="m -179.79263,-155.03982 c -18.02528,-13.40247 -38.23977,-28.77668 -47.26786,-34.02644 l -1.61823,0.34536 -8.29313,11.15358 0.13452,1.65013 c 2.83047,2.64679 7.4425,6.37191 13.04454,10.69042 3.8368,-0.0206 12.06081,1.782 28.46731,11.68878 22.55589,13.62292 38.9719,32.50837 50.2004,34.04399 -0.10672,0.16547 -0.1998,0.30656 -0.28389,0.4318 0.6784,-1.02015 2.17758,-3.31206 4.31618,-6.80928 0,0 0.38145,-0.56501 0.0473,-1.30164 -0.33636,-0.73372 -0.32877,-1.01348 -1.78926,-1.89662 -1.46455,-0.88168 -18.93356,-12.56828 -36.95787,-25.97005 z"
         id="path3668" />
      <rect
         transform="matrix(0.59667614,-0.80248214,0.80248214,0.59667614,0,0)"
         style="fill:#cccccc"
         x="2.3253007"
         y="-357.89807"
         width="11.186339"
         height="59.273464"
         id="rect3670" />
      <path
         style="fill:#cccccc"
         inkscape:connector-curvature="0"
         d="m -282.403,-220.12797 c 1.97724,-2.65922 4.04249,-7.0605 4.04249,-7.0605 l -0.90275,-3.10242 c 0,0 -1.12506,-2.55748 -1.29016,-4.20087 -0.005,-0.16177 -0.01,-0.31834 -0.0195,-0.46981 0.001,-0.014 -7.5e-4,-0.0297 -10e-4,-0.0421 l -0.001,0.002 c -0.18605,-2.80325 -1.23161,-3.72938 -1.23161,-3.72938 -2.53593,-1.88555 -5.23477,-0.96329 -5.23477,-0.96329 -2.73207,0.89605 -7.37867,1.67828 -7.37867,1.67828 0,0 -6.804,5.7326 -10.78215,21.47306 -3.9767,15.73848 6.03378,34.91725 6.03378,34.91725 l 0.73881,-0.31418 0.27322,-0.36746 c 0,0 -5.02501,-20.47086 0.25949,-30.80254 0,0 1.83906,-3.05487 6.74306,-2.83681 4.90444,0.21535 6.77579,-1.52404 8.75158,-4.18133 z"
         id="path3672" />
      <path
         style="fill:#b3b3b3"
         inkscape:connector-curvature="0"
         d="m -282.23206,-238.54704 c 0,0 1.04395,0.92283 1.25812,3.68115 l 0.001,-0.002 c -6.6e-4,0.0128 0.002,0.0283 10e-4,0.0412 0.0119,0.1491 0.0181,0.30219 0.0242,0.46231 0.18059,1.61819 1.321,4.14553 1.321,4.14553 l 0.92604,3.06103 c 0.0328,-0.0689 0.0589,-0.1354 0.0681,-0.19366 0.12049,-0.63611 0.26007,-6.86043 3.3823,-11.05958 0,0 1.98541,-3.36059 7.54348,-4.41869 0,0 -0.32336,-0.68175 -2.22692,-2.18894 l -4.67454,-3.78375 -4.97253,-3.38922 c -1.9912,-1.38724 -2.73649,-1.50153 -2.73649,-1.50153 0.58649,5.62829 -2.05933,8.49635 -2.05933,8.49635 -3.12222,4.19915 -9.04369,6.12444 -9.61819,6.42295 -0.21365,0.11064 -0.47312,0.43461 -0.71546,0.79793 0.004,-0.002 4.59292,-0.72278 7.2856,-1.57447 9.6e-4,7e-4 2.66126,-0.87801 5.19126,1.00314 z"
         id="path3674" />
      <path
         style="fill:#cccccc"
         inkscape:connector-curvature="0"
         d="m -268.28697,-242.77598 c 0.38403,-0.0536 0.74702,-0.24873 0.99593,-0.58349 l 3.23922,-4.35651 c 0.49212,-0.66186 0.34668,-1.60824 -0.32984,-2.11126 l -12.48006,-9.2794 c -0.67457,-0.50157 -1.62204,-0.36931 -2.11488,0.29351 l -3.23922,4.35651 c -0.24821,0.3338 -0.33388,0.73809 -0.27368,1.12199 0,0 0.73106,0.10208 2.6671,1.44994 l 4.83756,3.28887 4.53966,3.68346 c 1.84206,1.45997 2.15551,2.12991 2.15821,2.13638 z"
         id="path3676" />
    </g>
    <g
       id="g4644"
       transform="translate(-10.666667,2)">
      <path
         style="fill:#b3b3b3"
         inkscape:connector-curvature="0"
         d="m -56.445257,-131.3225 c -0.07541,-0.0625 -0.165232,-0.12638 -0.246806,-0.18912 l 0.0049,-0.002 c 0,0 -4.270488,-3.52818 -6.27819,-6.51629 -2.008837,-2.98898 -2.862592,-5.76501 -3.529233,-9.9578 -0.474985,-2.99135 -6.347434,-48.7603 -9.684465,-74.81856 l 0.02017,-0.002 -0.426017,-3.18731 c -0.04051,-1.90607 0.08057,-4.87593 0.972721,-7.72469 0.793204,-2.53519 1.399868,-5.03904 1.867011,-6.81936 0.347256,-0.70157 0.632138,-1.46739 0.829256,-2.31257 0,0 0.02039,-0.0791 0.04889,-0.21225 0.02149,-0.0144 0.02048,-0.0312 0.01002,-0.0482 0.162567,-0.80503 0.527601,-3.38759 -0.884739,-5.76286 0,0 -1.86347,-4.38196 -6.154123,-7.93201 0,0 -3.930881,-3.04015 -4.291903,-2.57025 -0.127708,-0.0334 -0.230495,-0.009 -0.287742,0.10774 l -0.545916,1.58973 3.929558,9.13109 c 0,0 0.43434,0.87226 0.641838,1.74032 -0.580821,0.99897 -1.862309,2.20714 -4.604616,3.29709 0,0 -6.18054,2.17444 -7.424471,-0.56826 -1.245422,-2.73844 -4.243116,-9.88958 -4.243116,-9.88958 0,0 -0.46143,-0.84531 -0.65468,-0.6143 0,0 -3.43131,2.11926 -1.49245,12.37424 0,0 0.4395,2.62389 1.32901,4.60731 l 0.002,-1.3e-4 c 0.3361,0.7515 0.73683,1.41199 1.20511,1.79973 0.20556,0.17007 0.44712,0.34258 0.71889,0.51219 1.03109,1.27593 2.28547,2.88984 3.263371,4.34497 1.771822,2.63952 2.644724,5.11541 3.283534,8.5442 0.03886,0.31505 0.06011,0.4866 0.06011,0.4866 l 0.02335,-0.001 c 0.02936,0.16337 0.05786,0.32786 0.08586,0.4965 l 10.041547,76.39913 c 0,0 0.910332,5.15912 -0.848563,9.76464 -1.110447,2.9026 -2.031901,5.76127 -2.686158,7.5608 -1.026739,1.33309 -1.848937,2.93831 -2.301795,4.87581 0,0 -1.053819,3.81775 0.997055,7.26406 0,0 2.245806,5.28544 7.422527,9.56754 0,0 4.741352,3.66891 5.176391,3.10173 0.154305,0.0421 0.277683,0.0102 0.347234,-0.12863 l 0.658206,-1.91829 -4.740842,-11.01457 c 0,0 -0.521841,-1.05152 -0.773809,-2.0973 0.702713,-1.20643 2.246589,-2.66273 5.554084,-3.97691 0,0 7.454593,-2.62324 8.9555,0.6855 1.502515,3.30547 5.116584,11.93012 5.116584,11.93012 0,0 0.558244,1.01827 0.79005,0.73841 0,0 4.141324,-2.55495 1.801475,-14.92507 7.59e-4,-8e-4 -0.996706,-6.02864 -3.056485,-7.72963 z"
         id="path3678" />
      <path
         style="fill:#e6e6e6"
         inkscape:connector-curvature="0"
         d="m -74.473852,-247.14322 c -0.234987,-0.45166 -0.591634,-1.09444 -1.080947,-1.84848 -0.980273,-1.50474 -2.483958,-3.44513 -4.564252,-5.16284 -9.67e-4,-6e-4 -1.826695,-1.41322 -3.055507,-2.13138 -0.0099,-0.005 -0.0189,-0.0117 -0.03088,-0.0186 l 3.755026,9.39635 c 0.01683,0.0355 0.0751,0.20942 0.101512,0.49141 0.13278,1.10917 -0.436842,3.702 -5.411915,5.63738 -0.02262,0.007 -1.758977,0.62387 -3.643943,0.80333 -0.85401,0.0803 -1.738382,0.0759 -2.540259,-0.14117 -0.796356,-0.21361 -1.546766,-0.68606 -1.917462,-1.51562 -1.203981,-2.64695 -4.009891,-9.3337 -4.233741,-9.87243 -0.0117,-0.0199 -0.0313,-0.053 -0.0573,-0.0956 -0.15889,0.25301 -0.35843,0.64695 -0.55037,1.21822 -0.41193,1.23188 -0.76895,3.2874 -0.46199,6.51566 0.0533,0.57514 0.12838,1.18518 0.2343,1.86766 0.002,9.4e-4 0.0404,0.45244 0.20984,1.20009 0.16903,0.74462 0.46325,1.76249 0.95836,2.83583 0.99778,2.15795 2.7612,4.50498 5.939173,5.491 0.0083,-0.002 0.592148,0.18006 1.589825,0.32673 1.00405,0.14896 2.403023,0.26195 3.966901,0.11397 1.173226,-0.11048 2.437405,-0.36842 3.725006,-0.86993 0.002,-0.003 0.366888,-0.12617 0.981093,-0.43623 0.615175,-0.31026 1.452195,-0.79611 2.339537,-1.49128 1.772873,-1.39632 3.723788,-3.61188 4.507834,-6.99504 -0.0033,-0.001 0.07202,-0.25399 0.134575,-0.70656 0.06056,-0.45231 0.106945,-1.08422 0.04208,-1.78019 -0.06475,-0.67151 -0.231226,-1.40425 -0.592786,-2.13203 -0.0027,0.002 -0.109757,-0.24875 -0.343745,-0.70053 z"
         id="path3680" />
      <path
         style="fill:#e6e6e6"
         inkscape:connector-curvature="0"
         d="m -55.014031,-124.15943 c -0.203378,-0.89919 -0.559411,-2.12616 -1.155882,-3.42285 -1.202134,-2.60133 -3.329958,-5.43113 -7.162549,-6.62268 -0.01071,9.3e-4 -0.713217,-0.21732 -1.917654,-0.39428 -1.209962,-0.18032 -2.899313,-0.31576 -4.786419,-0.13703 -1.41486,0.13373 -2.939214,0.44478 -4.490771,1.04885 -0.0025,0.003 -0.442911,0.1533 -1.184412,0.52686 -0.74151,0.37354 -1.753143,0.95946 -2.820703,1.79738 -2.139134,1.68443 -4.492377,4.35795 -5.437619,8.43887 0.0042,0.002 -0.0897,0.30626 -0.1626,0.8519 -0.07403,0.54479 -0.129834,1.30841 -0.04962,2.14611 0.07882,0.81138 0.277991,1.69379 0.713986,2.57093 0.0011,10e-4 0.129077,0.30333 0.41278,0.84754 0.280817,0.54561 0.710952,1.32259 1.30282,2.23048 1.18274,1.81588 2.997151,4.15527 5.504681,6.2273 0.0041,0.001 2.204995,1.70459 3.683406,2.57077 0.01327,0.007 0.02526,0.014 0.03852,0.0213 l -4.529459,-11.33353 c -0.01854,-0.0415 -0.08985,-0.25237 -0.120671,-0.59189 -0.161449,-1.33786 0.526387,-4.4649 6.526982,-6.80049 0.02837,-0.009 2.121622,-0.75146 4.398246,-0.96853 1.028211,-0.0968 2.094149,-0.0915 3.061003,0.17143 0.95791,0.2569 1.86466,0.82623 2.313786,1.82808 1.452071,3.19172 4.836533,11.25698 5.106701,11.90897 0.01519,0.0224 0.03865,0.0623 0.06988,0.11425 0.189765,-0.30496 0.430761,-0.78069 0.662472,-1.46929 0.49839,-1.48468 0.929613,-3.96575 0.561556,-7.86092 -0.06648,-0.69269 -0.159,-1.4289 -0.284281,-2.2526 -0.0042,-0.002 -0.04961,-0.54707 -0.254133,-1.44713 z"
         id="path3682" />
      <path
         style="fill:#e6e6e6"
         inkscape:connector-curvature="0"
         d="m -64.266852,-136.76801 c -2.166342,-3.20501 -3.119479,-6.33817 -3.789022,-10.6162 -0.495956,-3.12933 -6.622543,-50.903 -9.911589,-76.5995 l -0.251691,-2.38629 c -0.04327,-2.03721 0.141422,-4.83898 1.188993,-7.59781 0.426422,-1.11246 0.821132,-2.21775 1.189311,-3.26861 -1.082434,1.03758 -2.313801,1.81518 -3.510885,2.39361 -0.01523,0.007 -0.02951,0.0153 -0.03639,0.018 -2.830675,1.35934 -5.457555,1.61882 -5.457555,1.61882 -1.353606,0.17368 -2.613429,0.21388 -3.771645,0.15731 -0.04417,-0.002 -0.09003,-0.002 -0.133088,-0.005 -1.443451,-0.0787 -2.7215,-0.31234 -3.82177,-0.62925 0.62037,0.70336 1.209644,1.4342 1.70308,2.1571 1.86911,2.76858 2.832307,5.48452 3.492245,8.92691 l 10.209835,77.67189 c 0.02041,0.12577 0.08558,0.54137 0.145473,1.16765 0.171967,1.89003 0.33349,5.7019 -1.08511,9.43451 -0.579739,1.51767 -1.110118,3.03097 -1.580464,4.39376 4.276451,-3.24936 9.583861,-3.7712 9.583861,-3.7712 3.471097,-0.44653 6.435419,-0.17182 8.784378,0.42741 -1.050568,-1.0726 -2.132417,-2.29199 -2.947995,-3.49397 z"
         id="path3684" />
      <path
         style="fill:#b3b3b3"
         inkscape:connector-curvature="0"
         d="m -69.277989,-148.68157 -8.694337,-67.34869 c -0.271644,-2.10033 -1.979427,-3.61053 -3.809082,-3.37403 -1.831398,0.23877 -3.098224,2.13312 -2.825571,4.23331 l 8.692326,67.34896 c 0.272519,2.09918 1.978167,3.60866 3.810956,3.37275 1.833664,-0.23703 3.099099,-2.13424 2.825708,-4.2323 z"
         id="path3686" />
    </g>
    <g
       id="g4672">
      <path
         style="fill:#4d4d4d"
         inkscape:connector-curvature="0"
         d="m -54.907782,159.99519 c 0.922412,0.001 2.037614,-0.875 2.037614,-0.875 l 2.33604,-1.77715 c 2.596985,-1.94972 2.189571,-3.5141 0.842525,-5.50895 -1.348641,-1.99324 -7.57978,-9.35174 -9.699533,-11.47528 -2.119741,-2.12353 -8.138043,-8.62502 -12.95561,-15.03664 -4.816763,-6.41403 -7.53165,-13.983 -8.430247,-16.47025 -0.898596,-2.48725 -4.275562,-12.228044 -5.208531,-14.74332 -0.933771,-2.51609 -4.310566,-11.548871 -4.955706,-12.968677 -0.64355,-1.419795 -3.57328,-6.71051 -4.76263,-8.808415 -1.19255,-2.096299 -2.1767,-1.953178 -2.1767,-1.953178 l -0.62908,0.313045 c -0.61558,-1.390175 -2.99561,-6.774004 -3.10741,-7.015703 -0.0319,-0.0672 -0.0415,-0.137645 -0.0414,-0.203243 -0.005,0.0023 -0.008,0.0011 -0.012,0.0045 1.30531,-0.545241 2.53085,-1.343358 3.59582,-2.406425 1.05135,-1.04949 1.84445,-2.26 2.39361,-3.549933 0.0623,0.0034 0.128,0.01131 0.19197,0.04016 0.2415,0.112234 5.61947,2.503464 7.01095,3.119111 l -0.31417,0.628533 c 0,0 -0.14569,0.984696 1.949287,2.18018 2.094976,1.195497 7.379649,4.133867 8.799093,4.779157 1.419455,0.646873 10.445391,4.039 12.960599,4.978066 2.513601,0.93746 12.246759,4.333422 14.732392,5.236453 2.48724,0.901437 10.049744,3.631439 16.455163,8.459652 6.4038,4.828214 12.894537,10.856517 15.015081,12.980852 2.120545,2.124335 9.464702,8.370215 11.457931,9.720025 1.99083,1.35219 3.556099,1.7608 5.508847,-0.8311 l 1.782123,-2.33365 c 0,0 0.878604,-1.11364 0.87943,-2.03686 8.26e-4,-0.92162 0.152987,-2.89111 -1.217807,-4.26436 -1.371609,-1.374054 -4.155149,-2.834974 -5.206539,-3.54232 -1.048993,-0.70815 -6.018313,-5.599879 -10.344313,-9.719016 -4.325197,-4.11994 -11.691099,-11.114655 -19.489849,-15.3657 -7.799542,-4.248647 -16.133609,-7.493749 -20.270599,-9.147866 -4.135406,-1.654129 -8.034407,-2.858438 -9.769532,-4.766417 -1.735928,-1.908793 -2.953747,-4.376324 -2.694601,-7.891354 0,0 0.732406,-3.129011 -1.02503,-3.344179 l -0.964534,-0.322469 c 0,0 -0.386302,-0.119543 -1.004268,0.283108 -8.03e-4,8.04e-4 -8.03e-4,8.04e-4 -0.0023,0.0023 -0.212124,0.138211 -0.449909,0.340402 -0.710966,0.629778 -0.01923,0.02082 -0.03847,0.04152 -0.0577,0.06392 -0.120923,0.138302 -0.245071,0.295791 -0.374027,0.474076 -0.02398,0.0336 -0.04888,0.07117 -0.07365,0.107143 -0.134579,0.193479 -0.272359,0.402956 -0.414179,0.645232 -0.137815,0.235081 -0.269226,0.470173 -0.399042,0.702063 -0.435903,0.782029 -0.838984,1.532877 -1.281131,2.142097 0,0 8.03e-4,-8.03e-4 8.03e-4,-8.03e-4 -0.854676,1.184058 -1.85848,1.83437 -3.554685,1.139244 -2.827823,-1.160944 -4.240637,-2.062222 -4.240637,-2.062222 0,0 -0.847141,-0.08157 -1.550018,1.325041 l -1.182134,2.36299 -9.372018,-6.435694 c 0,0 -0.93859,-0.701655 -1.27476,-0.524344 -0.15447,0.08225 -0.45219,0.211593 -0.7251,0.324155 -0.44896,-0.730019 -0.97875,-1.422498 -1.61019,-2.055082 -0.51395,-0.514862 -1.06876,-0.963369 -1.64842,-1.356697 0.17538,-0.205438 0.37483,-0.481271 0.37502,-0.690873 4e-5,-0.04322 -0.0502,-0.151244 -0.13093,-0.300927 0.002,0.0045 0.005,0.0079 0.006,0.01199 l -5.14168,-9.879967 c 0,0 -0.63901,-1.123788 -1.425,-1.598905 -0.78599,-0.475105 -21.49168,-16.041899 -21.49168,-16.041899 0,0 -1.41518,-0.94048 -2.07246,-0.41866 l 0,0 c -0.17841,0.0057 -0.27446,0.07094 -0.27446,0.07094 l -1.6636,1.302537 5.95748,8.327076 0.39676,0.03711 c 0,0 0.64804,-0.02659 1.02405,-0.02625 0.3752,0.0011 0.36296,0.269124 0.36296,0.269124 0,0 0.0812,0.409688 0.0793,0.713693 -2.7e-4,0.300803 0.32862,0.209092 0.32862,0.209092 0,0 0.8202,-0.195267 0.92899,-0.195176 0.10646,8.94e-4 0.2952,0.0011 0.29474,0.532274 0.001,0.531211 0.0905,0.729691 0.18806,0.827387 0.0975,0.09764 0.3832,0.0011 0.92889,-0.08632 0.5457,-0.08746 0.39635,0.517159 0.39635,0.517159 0,0 -0.0741,0.531143 -0.15204,0.944678 -0.078,0.413546 0.35968,0.360337 0.35968,0.360337 0,0 0.42401,3.73e-4 0.80727,-0.05928 0.38406,-0.06042 0.32924,0.397107 0.32924,0.397107 0,0 -0.18846,0.523834 -0.35772,1.028491 -0.16925,0.503062 0.26921,0.444253 0.26921,0.444253 0,0 0.45761,4.07e-4 0.69837,0.05419 0.24316,0.05465 0.18207,0.369762 0.18207,0.369762 0,0 -0.39867,1.189273 -0.31,1.330957 0.0871,0.141673 0.43668,0.141187 0.6791,0.14061 0.24159,0.0023 0.2662,0.220236 0.2662,0.220236 l -0.44909,2.109242 6.72595,9.604587 -3.18531,3.179606 -9.59335,-6.74229 -2.10844,0.443732 c 0,0 -0.21998,-0.02342 -0.21976,-0.266602 0.001,-0.242412 0.001,-0.59122 -0.1394,-0.679344 -0.14233,-0.08814 -1.3315,0.307614 -1.3315,0.307614 0,0 -0.31606,0.06132 -0.36945,-0.182731 -0.0542,-0.241654 -0.0529,-0.698453 -0.0529,-0.698453 0,0 0.0604,-0.437554 -0.44457,-0.269203 -0.50416,0.167548 -1.02994,0.356682 -1.02994,0.356682 0,0 -0.45606,0.05238 -0.39572,-0.330762 0.0603,-0.383146 0.0616,-0.807961 0.0616,-0.807961 0,0 0.054,-0.437554 -0.35968,-0.360325 -0.41368,0.07727 -0.94575,0.151165 -0.94575,0.151165 0,0 -0.60575,0.147454 -0.51727,-0.396474 0.0885,-0.545534 0.18715,-0.832647 0.0896,-0.930343 -0.0975,-0.09764 -0.29584,-0.18746 -0.82864,-0.187935 -0.53121,-4.75e-4 -0.53024,-0.188479 -0.53015,-0.297285 1e-4,-0.10884 0.19523,-0.927039 0.19523,-0.927039 0,0 0.0947,-0.331125 -0.20771,-0.32979 -0.3024,-2.71e-4 -0.71273,-0.08146 -0.71273,-0.08146 0,0 -0.26882,0.01256 -0.26848,-0.363448 0.001,-0.375203 0.0273,-1.023197 0.0273,-1.023197 l -0.0364,-0.396835 -8.31642,-5.972345 -1.30711,1.66447 c 0,0 -0.0657,0.09594 -0.0715,0.27434 l 0,0 c -0.5222,0.655539 0.41575,2.072403 0.41575,2.072403 0,0 15.52897,20.734255 16.00268,21.521093 0.4761,0.786045 1.59716,1.427058 1.59716,1.427058 l 9.85078,5.152097 c 0.15433,0.08248 0.26389,0.133029 0.30789,0.132271 0.216,1.92e-4 0.5098,-0.21475 0.71797,-0.395365 0.39229,0.578763 0.8382,1.132772 1.35215,1.647634 0.62825,0.629382 1.31739,1.156407 2.0402,1.606655 -0.11705,0.281502 -0.25413,0.595791 -0.33988,0.758112 -0.17711,0.333443 0.52287,1.274886 0.52287,1.274886 l 6.41894,9.383512 -2.36509,1.177915 c -1.40786,0.700354 -1.32781,1.547641 -1.32781,1.547641 0,0 0.89955,1.415224 2.05384,4.245117 0.6929,1.698242 0.0399,2.700077 -1.14719,3.554233 8e-4,-7.92e-4 8e-4,-7.92e-4 8e-4,-7.92e-4 -0.6044,0.437068 -1.35037,0.836404 -2.12918,1.268516 -0.23771,0.131796 -0.47704,0.265187 -0.71557,0.404167 -0.24253,0.14139 -0.45226,0.278809 -0.64598,0.413037 -0.036,0.02478 -0.0737,0.04955 -0.10805,0.07433 -0.17771,0.127847 -0.33623,0.25411 -0.47554,0.373981 -0.0216,0.02003 -0.0416,0.03835 -0.0632,0.0568 -0.28903,0.259745 -0.49246,0.497971 -0.63104,0.709846 -8e-4,8.04e-4 -0.001,0.0011 -0.003,0.0034 l 10e-4,-0.0011 c -0.40457,0.618057 -0.2857,1.004574 -0.2857,1.004574 l 0.32154,0.964296 c 0.21203,1.757832 3.34234,1.031003 3.34234,1.031003 3.5155,-0.252854 5.97845,0.970157 7.88572,2.709502 1.9057,1.737727 3.10143,5.640473 4.74816,9.778822 1.64834,4.13834 4.87775,12.47898 9.113258,20.28531 4.237107,7.80633 11.218653,15.1847 15.329258,19.51886 4.112213,4.33255 8.99505,9.31061 9.700529,10.36166 0.707074,1.05105 2.162213,3.838 3.533811,5.21205 1.3724,1.37005 3.344574,1.22061 4.265391,1.22063 z"
         id="path3688" />
      <path
         style="fill:#f9d53d"
         inkscape:connector-curvature="0"
         d="m -77.95769,67.846196 c 1.419444,0.646874 10.445381,4.039 12.9606,4.978067 2.513601,0.937459 12.246759,4.333422 14.732392,5.236453 2.48724,0.901448 10.049744,3.63145 16.455151,8.459664 6.403812,4.828202 12.894549,10.856516 15.015093,12.980851 2.120545,2.124319 9.464701,8.370209 11.45793,9.720009 1.990831,1.35221 3.5561,1.76081 5.508848,-0.8311 l 0.181814,-0.23904 c -0.80176,-0.73112 -2.023177,-1.86024 -3.138197,-2.97725 -1.863164,-1.86651 -4.925174,-4.16368 -8.330187,-7.574783 -3.405025,-3.411111 -10.172658,-9.334059 -17.863722,-15.019437 -7.690272,-5.687777 -19.47419,-9.599167 -19.47419,-9.599167 -8.592048,-2.814936 -15.449073,-5.393898 -19.112507,-7.006007 -3.664227,-1.609698 -4.113887,-2.446114 -5.055465,-3.389377 -0.943173,-0.944859 -1.800146,-0.773623 -1.800146,-0.773623 0,0 5.08823,-10.004443 6.313505,-12.296993 0.678744,-1.272216 0.907127,-2.595231 0.978359,-3.523187 -0.01844,-0.0045 -0.03439,-0.01018 -0.05284,-0.01448 l -0.964522,-0.322469 c 0,0 -1.135703,-0.365824 -2.638824,2.204086 -1.502318,2.570703 -2.40544,5.142752 -5.234055,3.9826 -2.827811,-1.160943 -4.240636,-2.062221 -4.240636,-2.062221 0,0 -0.847141,-0.08157 -1.550007,1.32504 l -4.895224,9.781401 c 0,0 -0.14569,0.984695 1.949284,2.18018 2.093369,1.195496 7.378042,4.135474 8.797497,4.780752 z"
         id="path3690" />
      <path
         style="fill:#f9d53d"
         inkscape:connector-curvature="0"
         d="m -50.036032,151.84295 c -1.348642,-1.99324 -7.579781,-9.35174 -9.699533,-11.47528 -2.119742,-2.12353 -8.138043,-8.62502 -12.95561,-15.03664 -4.816764,-6.41403 -7.531651,-13.983 -8.430247,-16.47025 -0.898597,-2.48725 -4.275563,-12.228045 -5.208531,-14.743321 -0.933771,-2.516079 -4.310567,-11.548872 -4.955707,-12.968666 -0.64355,-1.419806 -3.57328,-6.710521 -4.76263,-8.808426 -1.19255,-2.096299 -2.1767,-1.953178 -2.1767,-1.953178 l -9.79013,4.877745 c -1.40786,0.700366 -1.32782,1.547642 -1.32782,1.547642 0,0 0.89956,1.415235 2.05385,4.245117 1.1559,2.829882 -1.41775,3.72841 -3.99114,5.226135 -2.57419,1.500135 -2.2096,2.635679 -2.2096,2.635679 l 0.32155,0.964307 c 10e-4,0.02082 0.009,0.03519 0.0128,0.05442 0.92969,-0.06958 2.25231,-0.29639 3.52575,-0.972872 2.29393,-1.220376 12.30745,-6.290729 12.30745,-6.290729 0,0 -0.17198,0.85747 0.77039,1.801526 0.94158,0.943263 1.778,1.393614 3.38195,5.059911 1.60396,3.667903 4.17068,10.52793 6.971056,19.12579 0,0 3.88874,11.79249 9.563574,19.4921 5.672423,7.70041 11.583277,14.47862 14.988301,17.88972 3.405817,3.41191 5.695923,6.47801 7.559087,8.34451 1.115021,1.11702 2.242747,2.33964 2.972449,3.14272 l 0.238565,-0.1806 c 2.596193,-1.94731 2.189582,-3.5125 0.84093,-5.50735 z"
         id="path3692" />
      <path
         style="fill:#cccccc"
         inkscape:connector-curvature="0"
         d="m -116.57075,59.900637 c 0.02,0.01018 0.0407,0.02319 0.0592,0.03372 0.15673,0.08497 0.26709,0.134635 0.31268,0.135484 0.37121,3.28e-4 0.97739,-0.638342 0.97739,-0.638342 l 0,0 c 0.39308,0.595564 0.85178,1.160785 1.37612,1.686056 4.23709,4.244664 11.11401,4.250807 15.35948,0.0129 0.96408,-0.962351 1.70667,-2.060117 2.23413,-3.232465 l 0.002,-7.92e-4 c 0,0 0.30419,-0.199736 0.58008,-0.0723 0.2471,0.114621 5.83778,2.600458 7.08372,3.153584 l 3.39251,-6.777092 -9.43919,-6.483756 c 0,0 -0.93859,-0.701655 -1.27475,-0.524355 -0.22491,0.119012 -0.74591,0.335345 -1.06283,0.463068 l 0,0 -0.2593,0.105332 -3.95654,-3.963604 0.008,-0.0079 c -2.98108,-1.538693 -6.52429,-1.606656 -9.5536,-0.200528 l -4.22945,4.2219 0.3595,0.569928 c 0,0 -1.16021,1.098988 -1.41541,1.099554 -0.2552,-10e-4 -2.30476,-0.981279 -2.42706,-1.103786 -0.12229,-0.122507 -9.29135,-6.297212 -9.29135,-6.297212 l 1.07253,-0.567053 c 0,0 -0.21999,-0.02342 -0.21977,-0.266602 0.001,-0.2424 0.001,-0.591208 -0.13939,-0.679344 -0.14233,-0.08814 -1.3315,0.307626 -1.3315,0.307626 0,0 -0.31607,0.06132 -0.36945,-0.182743 -0.0542,-0.241642 -0.053,-0.698453 -0.053,-0.698453 0,0 0.0604,-0.437554 -0.44456,-0.269203 -0.50416,0.167548 -1.02993,0.356682 -1.02993,0.356682 0,0 -0.45607,0.05238 -0.39572,-0.330751 0.0603,-0.383157 0.0615,-0.80796 0.0615,-0.80796 0,0 0.054,-0.437566 -0.35969,-0.360337 -0.41367,0.07727 -0.94576,0.151165 -0.94576,0.151165 0,0 -0.60573,0.147454 -0.51725,-0.396474 0.0885,-0.545534 0.18715,-0.832647 0.0896,-0.930332 -0.0975,-0.09775 -0.29584,-0.187471 -0.82864,-0.187946 -0.53121,-4.75e-4 -0.53025,-0.188479 -0.53015,-0.297285 9e-5,-0.10884 0.19523,-0.927039 0.19523,-0.927039 0,0 0.0947,-0.331125 -0.20771,-0.32979 -0.30241,-2.71e-4 -0.71274,-0.08146 -0.71274,-0.08146 0,0 -0.26882,0.01256 -0.26848,-0.363448 0.001,-0.375203 0.0273,-1.023197 0.0273,-1.023197 l -0.0364,-0.396835 -8.31563,-5.973137 -1.30711,1.664458 c 0,0 -0.0657,0.09594 -0.0715,0.27434 0.007,0.0091 3.55022,5.640078 15.6485,18.579927 0,0 8.41194,9.194084 11.80689,11.349158 0.12953,0.07852 0.24707,0.149819 0.34702,0.206706 z"
         id="path3694" />
      <circle
         transform="matrix(0.70773799,-0.70647501,0.70647501,0.70773799,0,0)"
         style="fill:#b3b3b3"
         cx="-112.5132"
         cy="-37.010841"
         r="5.176116"
         id="circle3696" />
      <path
         style="fill:#cccccc"
         inkscape:connector-curvature="0"
         d="m -99.67514,43.665033 c 0.185,-0.20864 0.42929,-0.526029 0.42869,-0.755634 3e-5,-0.04322 -0.0502,-0.151256 -0.13094,-0.300927 -0.0152,-0.03123 -0.0368,-0.06562 -0.0559,-0.09764 -0.0503,-0.0904 -0.11019,-0.192099 -0.17893,-0.304164 -2.12981,-3.390769 -11.33603,-11.844741 -11.33603,-11.844741 -12.91503,-12.113369 -18.53835,-15.669649 -18.55274,-15.680861 -0.17841,0.0057 -0.27448,0.07094 -0.27448,0.07094 l -1.66598,1.30334 5.95746,8.327076 0.39678,0.03711 c 0,0 0.64804,-0.02659 1.02405,-0.02625 0.3752,0.0011 0.36296,0.269135 0.36296,0.269135 0,0 0.0812,0.409677 0.0793,0.713682 -2.7e-4,0.300803 0.32861,0.209104 0.32861,0.209104 0,0 0.82019,-0.195278 0.929,-0.195177 0.10635,8.94e-4 0.2952,0.0011 0.29473,0.532275 0.001,0.531211 0.0905,0.729691 0.18807,0.827375 0.0975,0.09775 0.3832,0.0011 0.92889,-0.08632 0.54568,-0.08746 0.39634,0.51717 0.39634,0.51717 0,0 -0.0741,0.531143 -0.15205,0.944678 -0.0779,0.413535 0.35969,0.360326 0.35969,0.360326 0,0 0.424,3.85e-4 0.80726,-0.05928 0.38406,-0.06042 0.32926,0.397096 0.32926,0.397096 0,0 -0.18847,0.523845 -0.35772,1.028503 -0.16926,0.503062 0.2692,0.444252 0.2692,0.444252 0,0 0.45761,4.07e-4 0.69836,0.05419 0.24316,0.05465 0.18208,0.369773 0.18208,0.369773 0,0 -0.39867,1.189262 -0.30999,1.330947 0.0871,0.141684 0.43668,0.141197 0.67908,0.140609 0.24161,0.0023 0.26621,0.220248 0.26621,0.220248 l 0.56737,-1.069923 c 0,0 6.15991,9.178482 6.28221,9.300989 0.0903,0.09051 0.64452,1.230196 0.9295,1.924067 3.36765,-1.333017 7.2474,-0.969546 10.32961,1.098049 z"
         id="path3698" />
      <path
         style="fill:#cccccc"
         inkscape:connector-curvature="0"
         d="m -101.67907,63.941606 c -0.0319,-0.06721 -0.0415,-0.137645 -0.0414,-0.203243 -3.3077,1.385072 -7.14592,1.108039 -10.24105,-0.831562 -0.12106,0.287091 -0.26055,0.613373 -0.3479,0.778907 -0.1771,0.333443 0.52287,1.274886 0.52287,1.274886 l 6.41894,9.383512 6.79595,-3.386798 c -0.61556,-1.391781 -2.9948,-6.774806 -3.10739,-7.015702 z"
         id="path3700" />
    </g>
    <g
       id="g4651"
       transform="translate(-1.1111126e-8,5.555556)">
      <path
         style="fill:#4d4d4d"
         inkscape:connector-curvature="0"
         d="m -83.495319,-42.422906 c 2.060326,-1.021498 1.731565,-2.504223 1.731565,-2.504223 -0.270505,-1.993765 -0.951962,-3.871729 -1.571186,-5.261176 l 50.208904,-27.223138 c 0,0 4.753109,-2.334542 8.122829,-3.512331 0,0 2.459434,-0.682808 4.714767,-2.255246 0.260557,-0.182657 0.534162,-0.378093 0.812682,-0.577623 0.0083,-0.0059 0.01586,-0.01287 0.02247,-0.01646 0.08555,-0.06065 0.168803,-0.122922 0.254352,-0.183572 0.05477,-0.04111 0.110127,-0.08111 0.167196,-0.120614 0.08766,-0.06465 0.178129,-0.1294 0.266894,-0.194652 0.05698,-0.04231 0.111732,-0.08342 0.168204,-0.124026 0.09208,-0.06705 0.183643,-0.13239 0.274016,-0.199941 0.04764,-0.03583 0.09529,-0.07164 0.14243,-0.105761 0.100204,-0.07573 0.199997,-0.146966 0.297997,-0.221506 0.03561,-0.02644 0.07061,-0.05399 0.107329,-0.08102 0.101308,-0.07633 0.20211,-0.150966 0.301811,-0.225001 0.03722,-0.02874 0.07503,-0.05637 0.112836,-0.08401 0.098,-0.07454 0.193289,-0.146182 0.288578,-0.217824 0.01755,-0.01242 0.034,-0.02415 0.04985,-0.03702 0.485175,-0.365801 0.925322,-0.701481 1.285619,-0.973891 -9.3e-5,-0.003 0.0021,-0.004 0.0043,-0.005 0.08707,-0.0658 0.165906,-0.12563 0.241438,-0.18371 0.01091,-0.009 0.02026,-0.0153 0.02949,-0.0245 0.15658,-0.11915 0.285775,-0.21774 0.387495,-0.29857 0.04595,-0.0363 0.09088,-0.0693 0.121479,-0.0944 0.07934,-0.0616 0.123687,-0.0956 0.123687,-0.0956 l -2.574628,-4.748509 c 0,0 -0.0533,0.0175 -0.148195,0.0504 -0.03718,0.013 -0.08988,0.0316 -0.145394,0.0503 -0.0483,0.0162 -0.100405,0.0359 -0.161429,0.0576 -0.03337,0.01 -0.06443,0.0207 -0.0988,0.0336 -0.06162,0.0206 -0.125955,0.044 -0.1964,0.0694 -0.01443,0.005 -0.02666,0.009 -0.04108,0.0137 -0.08988,0.0316 -0.182475,0.0661 -0.285684,0.1021 -0.0028,9e-5 -0.005,10e-4 -0.0061,0.002 -0.425563,0.1494 -0.945831,0.33731 -1.517611,0.54602 -0.01944,0.006 -0.03887,0.0125 -0.05882,0.0205 -0.112623,0.0397 -0.223463,0.0826 -0.3394,0.12409 -0.04439,0.0155 -0.08878,0.031 -0.134271,0.0471 -0.105925,0.0389 -0.210139,0.0783 -0.317758,0.11664 -0.05982,0.0239 -0.120852,0.0456 -0.182383,0.0689 -0.106425,0.0406 -0.213445,0.0801 -0.320466,0.11953 -0.05822,0.0216 -0.114241,0.042 -0.172458,0.0635 -0.105322,0.04 -0.210642,0.08 -0.317066,0.12054 -0.06543,0.0241 -0.12917,0.0486 -0.195111,0.0744 -0.103114,0.0388 -0.206736,0.0793 -0.308749,0.11745 -0.06543,0.0241 -0.12917,0.0486 -0.192306,0.0743 -0.09871,0.0364 -0.195111,0.0744 -0.293217,0.1119 -0.0083,0.003 -0.01774,0.007 -0.02545,0.0109 -0.319777,0.12344 -0.632844,0.24609 -0.927482,0.36589 -2.54951,1.02988 -4.463045,2.719509 -4.463045,2.719509 -2.82612,2.183008 -7.374836,4.891893 -7.374836,4.891893 l -50.208821,27.223132 c -0.826544,-1.277041 -2.029618,-2.872189 -3.552358,-4.188422 0,0 -1.063193,-1.084511 -3.043399,0.08476 -1.980808,1.168166 -6.463189,4.691551 -7.381419,5.758769 -0.918227,1.067216 -2.326857,2.545875 -3.245457,3.043939 -0.91751,0.497467 -2.54886,1.16794 -5.17012,1.947051 -2.61955,0.779616 -9.62397,3.201806 -18.09762,7.796196 -8.12186,4.403655 -23.36863,12.367903 -20.62533,20.388284 -0.0391,-0.04585 -0.0837,-0.0859 -0.12118,-0.134059 0.08,0.229165 0.17975,0.460481 0.30292,0.687649 0.0413,0.07609 0.0917,0.140091 0.13553,0.210482 0.0463,0.09332 0.0791,0.185411 0.12875,0.276941 0.13692,0.252533 0.2851,0.488977 0.44342,0.709927 -5.9e-4,-0.0011 -5.9e-4,-0.0011 -5.9e-4,-0.0011 5.05002,7.116438 20.30977,-1.471292 28.52647,-5.926368 8.47255,-4.593792 14.32588,-9.141608 16.40851,-10.911508 2.083738,-1.770498 3.535114,-2.772903 4.452617,-3.270368 0.918594,-0.498066 2.925745,-0.872856 4.321111,-1.060067 1.395365,-0.187211 6.797858,-2.016242 8.858185,-3.03774 z"
         id="path3702" />
      <path
         style="fill:#cccccc"
         inkscape:connector-curvature="0"
         d="m -30.877325,-85.683837 c -2.697579,2.166508 -7.081209,4.805704 -7.081209,4.805704 l -48.504705,26.299123 c 0.90038,1.416644 1.397386,2.465405 1.397386,2.465405 0,0 0.607733,0.988752 1.304946,2.51862 l 48.504698,-26.299123 c 0,0 4.604597,-2.234183 7.890345,-3.313376 0,0 2.408567,-0.60203 4.570408,-2.15236 0.326976,-0.235934 0.678495,-0.492738 1.033453,-0.760994 l -0.397284,-0.07169 -3.376936,-6.228242 c 0,0 -0.259975,-0.21251 0.147098,-0.36686 -0.234606,0.0885 -0.925731,0.34441 -1.190742,0.44803 -2.478342,0.964031 -4.297458,2.65577 -4.297458,2.65577 z"
         id="path3704" />
      <path
         style="fill:#f9d53d"
         inkscape:connector-curvature="0"
         d="m -82.408531,-40.418448 c 2.070851,-1.002089 1.559483,-2.82162 1.559483,-2.82162 -1.023302,-4.908644 -3.771144,-9.437082 -3.771144,-9.437082 0,0 -2.295695,-4.773586 -5.850199,-8.308022 0,0 -1.2458,-1.421297 -3.215494,-0.232643 -1.970396,1.187353 -6.332675,4.932272 -7.188315,6.114939 -0.85563,1.182656 -2.18567,2.806272 -3.10427,3.304336 -0.91751,0.497467 -2.57238,1.124546 -5.26423,1.773454 -2.69002,0.649699 -9.84565,2.792978 -18.31929,7.387368 -8.47365,4.59439 -24.75216,12.995435 -19.02554,23.557302 5.72737,10.563257 21.64996,1.503153 30.12251,-3.09064 8.47254,-4.593792 14.1748,-9.420244 16.18699,-11.32005 2.013299,-1.900414 3.440991,-2.94651 4.358494,-3.443977 0.918594,-0.498064 3.004185,-0.728183 4.462147,-0.799945 1.457961,-0.07178 6.977279,-1.682698 9.048858,-2.68342 z m -55.181889,16.461618 c -1.1171,-2.060306 4.52532,-7.286634 12.60748,-11.668765 8.08327,-4.382727 15.54206,-6.261635 16.65991,-4.199938 1.1186,2.063087 -4.52642,7.287222 -12.60968,11.669949 -8.08217,4.382131 -15.53834,6.263242 -16.65771,4.198754 z m 48.249543,-20.23074 c -6.035955,0.963354 -7.366717,-1.935818 -7.366717,-1.935818 0,0 -1.703504,-2.697075 2.397906,-7.228381 4.10067,-4.532696 6.110192,-1.781779 7.952649,1.616337 1.844301,3.398908 3.051365,6.58312 -2.983838,7.547862 z"
         id="path3708" />
    </g>
  </g>
</svg>
