<svg id="Слой_1" data-name="Слой 1" xmlns="http://www.w3.org/2000/svg" viewBox="0 0 32 32"><defs><style>.cls-1{fill:#999;}.cls-2{fill:#fcce21;}.cls-3{fill:#4d4d4d;}.cls-4{fill:#fff;}</style></defs><title>Иконка Вариант 1.2 32х32</title><rect class="cls-1" width="32" height="32"/><path class="cls-2" d="M6.83,15.92a1.44,1.44,0,0,1-1.56-.36,1.38,1.38,0,0,1-.31-1L13.1,3.17,15,4.5Z"/><path class="cls-3" d="M9.38,4c.15.71.94.58,3.19,1.86,1.23.7,1.79,1.12,2.56,1l.3-.09a6,6,0,0,0,.8-.36c.7-.37,2.13.91,2.25.77a6.17,6.17,0,0,0-2-2.45,11.78,11.78,0,0,0-6.18-2.58C9.29,3.16,9.33,3.79,9.38,4Z"/><path class="cls-4" d="M26.18,11.17c-.34-.89-1.79-1.18-1.79-1.18a64.46,64.46,0,0,1-8-3.08V4.4A.9.9,0,0,0,16,3.75a1.71,1.71,0,0,0-1.07-.1h0a1.77,1.77,0,0,1,.44.35.87.87,0,0,1,.17.52l-.06,2.22A61.84,61.84,0,0,1,7.23,10s-1.45.29-1.79,1.18a1,1,0,0,0-.07.32H26.25A1,1,0,0,0,26.18,11.17ZM16,10.74H8l7.78-3,7.78,3Z"/><path class="cls-2" d="M17.91,30.19a6.65,6.65,0,0,0,2.48-.13,6.81,6.81,0,0,0,2.72-1.38L21,14V10.74H10.57V14L8.79,28.57a7.5,7.5,0,0,0,4.93,1.62l2-13.77Z"/><rect class="cls-3" x="10.57" y="11.89" width="10.47" height="1.86"/><path class="cls-3" d="M9.87,19.44a3.67,3.67,0,0,0,2-1.1c.88-1,1.26-2.51.81-2.91-.17-.15-.35-.05-1.3-.14-.4,0-.73-.09-.94-.12Z"/><path class="cls-3" d="M21.81,19.38a3.68,3.68,0,0,1-2-1c-.92-1-1.27-2.52-.81-2.91.18-.16.38,0,1.3-.14a9.13,9.13,0,0,0,.91-.14Z"/><path class="cls-3" d="M22,12.59a.44.44,0,0,1,.22-.31c1.28-.94,6-1.61,6.24-.48a.81.81,0,0,1-.19.58c-.94,1.56-3.46,1.33-3.78,1.3C23.31,13.56,21.95,13.05,22,12.59Z"/><path class="cls-2" d="M22,12.28a4.77,4.77,0,0,1,.77-2.94,3.76,3.76,0,0,1,2.81-1.87,3.46,3.46,0,0,1,3.28,2.32,2.27,2.27,0,0,1,.05,1.65c-.55,1.29-2.58,1.42-3.46,1.48A7.4,7.4,0,0,1,22,12.28Z"/><path class="cls-2" d="M22,12.29a4.14,4.14,0,0,0,1.92.93A5.38,5.38,0,0,0,29,10.58,5.21,5.21,0,0,1,26.89,14a4.92,4.92,0,0,1-3,.8c-.57,0-2-.09-2.31-.94A1.83,1.83,0,0,1,22,12.29Z"/><path class="cls-3" d="M24.23,10.46A2.38,2.38,0,0,1,25,8.92,3,3,0,0,1,27.31,8a6.33,6.33,0,0,0-1.88,1A9.73,9.73,0,0,0,24.23,10.46Z"/><path class="cls-3" d="M23.16,10a2.07,2.07,0,0,1,.65-1.34,2.64,2.64,0,0,1,2-.8,5.49,5.49,0,0,0-1.63.88A8.45,8.45,0,0,0,23.16,10Z"/></svg>