<svg id="Слой_1" data-name="Слой 1" xmlns="http://www.w3.org/2000/svg" viewBox="0 0 128 128"><defs><style>.cls-1{fill:#999;}.cls-2{fill:#fcce21;}.cls-3{fill:#4d4d4d;}.cls-4{fill:#fff;}</style></defs><title>Иконка вариант 1.2 128х128</title><rect class="cls-1" width="128" height="128"/><path class="cls-2" d="M27.26,62.4A5.77,5.77,0,0,1,21,61a5.53,5.53,0,0,1-1.24-3.91L52.47,11.14,60,16.49Z"/><path class="cls-3" d="M37.51,14.59c.61,2.87,3.78,2.34,12.83,7.48,5,2.82,7.18,4.5,10.31,3.82a9.2,9.2,0,0,0,1.21-.34,24,24,0,0,0,3.22-1.43c2.8-1.49,8.58,3.67,9,3.1S71.36,21.88,66,17.39C61.62,13.72,53.84,8.7,41.15,7,37.14,11.09,37.31,13.62,37.51,14.59Z"/><path class="cls-4" d="M105,43.29c-1.38-3.58-7.19-4.73-7.19-4.73-4.47-.88-16-5.41-32.36-12.37V16.06a3.62,3.62,0,0,0-1.41-2.59c-1.53-1-4.32-.42-4.32-.42h0a7.1,7.1,0,0,1,1.76,1.4,3.48,3.48,0,0,1,.7,2.11L62,25.47C45.11,32.91,33.46,37.64,28.87,38.55c0,0-5.81,1.16-7.19,4.73a4.22,4.22,0,0,0-.28,1.31h83.91A4.22,4.22,0,0,0,105,43.29ZM64.31,41.57H32.08L63.36,29.52,94.64,41.57Z"/><path class="cls-2" d="M71.78,119.76a26.74,26.74,0,0,0,10-.53,27.38,27.38,0,0,0,11-5.57L84.42,54.6v-13H42.31v13l-7.19,58.64a30.17,30.17,0,0,0,19.82,6.51l8.22-55.35Z"/><rect class="cls-3" x="42.31" y="46.17" width="42.11" height="7.46"/><path class="cls-3" d="M39.47,76.53a14.77,14.77,0,0,0,8-4.42C51,68.22,52.49,62,50.69,60.4c-.68-.62-1.42-.21-5.22-.54-1.63-.14-2.94-.35-3.77-.49Z"/><path class="cls-3" d="M87.47,76.31a14.78,14.78,0,0,1-8-4.2C75.75,68.22,74.34,62,76.2,60.4c.74-.63,1.53-.15,5.22-.54a36.7,36.7,0,0,0,3.65-.58Z"/><path class="cls-3" d="M88.07,49a1.78,1.78,0,0,1,.87-1.24c5.13-3.79,24-6.49,25.09-1.92a3.27,3.27,0,0,1-.76,2.35c-3.79,6.28-13.91,5.35-15.18,5.21C93.51,52.9,88,50.86,88.07,49Z"/><path class="cls-2" d="M88.11,47.74A19.19,19.19,0,0,1,91.2,35.91c1.18-1.76,4.85-7.23,11.29-7.52,6.13-.28,11.47,4.28,13.18,9.31.44,1.29,1.36,4,.22,6.62C113.67,49.49,105.5,50,102,50.26A29.76,29.76,0,0,1,88.11,47.74Z"/><path class="cls-2" d="M88.11,47.78a16.65,16.65,0,0,0,7.74,3.74c7.38,1.32,15.43-2.9,20.69-10.61-.23,1.44-1.58,9.2-8.63,13.91A19.8,19.8,0,0,1,96,58c-2.31-.1-7.84-.35-9.29-3.79C85.55,51.51,87.65,48.42,88.11,47.78Z"/><path class="cls-3" d="M97.22,40.45c-.3-.16.48-3.59,3-6.2,3.69-3.82,9.28-4,9.38-3.69s-3.72.78-7.55,4.07C98.72,37.49,97.52,40.61,97.22,40.45Z"/><path class="cls-3" d="M92.9,38.53c-.26-.14.42-3.12,2.61-5.39,3.21-3.32,8.05-3.49,8.14-3.21s-3.23.68-6.56,3.53C94.21,36,93.16,38.67,92.9,38.53Z"/></svg>