<svg id="Слой_1" data-name="Слой 1" xmlns="http://www.w3.org/2000/svg" viewBox="0 0 48 48"><defs><style>.cls-1{fill:#999;}.cls-2{fill:#fcce21;}.cls-3{fill:#4d4d4d;}.cls-4{fill:#fff;}</style></defs><title>Иконка Вариант1.2  48х48</title><rect class="cls-1" width="48" height="48"/><path class="cls-2" d="M10,24.08a2.2,2.2,0,0,1-2.38-.55A2.11,2.11,0,0,1,7.16,22L19.61,4.58l2.85,2Z"/><path class="cls-3" d="M13.92,5.89c.23,1.09,1.44.89,4.88,2.85,1.89,1.07,2.73,1.71,3.92,1.46a3.5,3.5,0,0,0,.46-.13,9.11,9.11,0,0,0,1.23-.55c1.06-.57,3.26,1.4,3.44,1.18s-1-2-3.09-3.74A18,18,0,0,0,15.3,3C13.78,4.56,13.84,5.52,13.92,5.89Z"/><path class="cls-4" d="M39.61,16.81c-.53-1.36-2.74-1.8-2.74-1.8-1.7-.34-6.07-2.06-12.31-4.71V6.45a1.38,1.38,0,0,0-.54-1,2.62,2.62,0,0,0-1.64-.16h0a2.7,2.7,0,0,1,.67.53,1.32,1.32,0,0,1,.27.8L23.23,10c-6.42,2.83-10.85,4.63-12.6,5,0,0-2.21.44-2.74,1.8a1.6,1.6,0,0,0-.11.5H39.72A1.6,1.6,0,0,0,39.61,16.81Zm-15.5-.65H11.85l11.9-4.59,11.9,4.59Z"/><path class="cls-2" d="M27,45.91a10.18,10.18,0,0,0,3.8-.2,10.42,10.42,0,0,0,4.17-2.12L31.76,21.11v-5h-16v5L13,43.43a11.48,11.48,0,0,0,7.54,2.48l3.13-21.06Z"/><rect class="cls-3" x="15.74" y="17.91" width="16.02" height="2.84"/><path class="cls-3" d="M14.66,29.46a5.62,5.62,0,0,0,3-1.68c1.34-1.48,1.92-3.84,1.24-4.46-.26-.24-.54-.08-2-.21-.62-.05-1.12-.13-1.44-.19Z"/><path class="cls-3" d="M32.93,29.37a5.63,5.63,0,0,1-3.05-1.6c-1.41-1.48-1.94-3.86-1.24-4.46.28-.24.58-.06,2-.21A14,14,0,0,0,32,22.89Z"/><path class="cls-3" d="M33.16,19a.68.68,0,0,1,.33-.47c2-1.44,9.15-2.47,9.55-.73a1.24,1.24,0,0,1-.29.89c-1.44,2.39-5.29,2-5.78,2C35.23,20.47,33.14,19.69,33.16,19Z"/><path class="cls-2" d="M33.17,18.5A7.3,7.3,0,0,1,34.35,14c.45-.67,1.85-2.75,4.3-2.86a5.29,5.29,0,0,1,5,3.54,3.47,3.47,0,0,1,.08,2.52c-.85,2-4,2.17-5.29,2.26A11.32,11.32,0,0,1,33.17,18.5Z"/><path class="cls-2" d="M33.17,18.52a6.34,6.34,0,0,0,2.94,1.42c2.81.5,5.87-1.11,7.87-4A8,8,0,0,1,40.7,21.2a7.53,7.53,0,0,1-4.54,1.22c-.88,0-3-.13-3.54-1.44A2.81,2.81,0,0,1,33.17,18.52Z"/><path class="cls-3" d="M36.64,15.73a3.65,3.65,0,0,1,1.15-2.36A4.64,4.64,0,0,1,41.35,12a9.68,9.68,0,0,0-2.87,1.55A14.89,14.89,0,0,0,36.64,15.73Z"/><path class="cls-3" d="M35,15a3.17,3.17,0,0,1,1-2,4,4,0,0,1,3.1-1.22,8.4,8.4,0,0,0-2.5,1.34A12.93,12.93,0,0,0,35,15Z"/></svg>